<svg width="278" height="276" viewBox="0 0 278 276" fill="none" xmlns="http://www.w3.org/2000/svg">
<path d="M0 93.4519C0 40.8576 43.5783 -1.27222 96.1425 0.504993L224.287 4.83758C260.679 6.06799 285.851 41.6845 274.865 76.4002L232.264 211.022C218.09 255.809 172.743 282.995 126.561 274.389L75.9638 264.961C31.9295 256.756 0 218.327 0 173.535V93.4519Z" fill="#355281"/>
<g clip-path="url(#clip0_0_1)">
<path d="M62.6318 150.82L62.2122 151.793L111.057 172.849L111.477 171.876L62.6318 150.82Z" fill="#FF4D0E"/>
<path d="M101.064 132.121L100.321 132.877L133.471 165.499L134.215 164.744L101.064 132.121Z" fill="#FF4D0E"/>
<path d="M198.959 93.9831L187.903 148.963L188.943 149.171L199.998 94.1921L198.959 93.9831Z" fill="#FF4D0E"/>
<path d="M159.07 115.135L158.013 115.203L160.66 156.247L161.717 156.179L159.07 115.135Z" fill="#FF4D0E"/>
<path d="M158.39 112.331C119.22 87.4908 98.22 130.031 98.22 130.031C60.07 106.101 58.86 76.8108 85.4 41.8408C90.4761 39.1595 95.768 36.9083 101.22 35.1108C104.648 33.9541 108.132 32.9729 111.66 32.1708C161.33 45.4408 171.35 67.4408 158.39 112.331Z" fill="#607DF1"/>
<path d="M98.22 130.031C60.88 117.971 59.45 150.031 59.45 150.031C59.45 150.031 23.45 74.9107 85.4 41.8707C79.87 63.0107 73.13 105.371 98.22 130.031Z" fill="#95C8F1"/>
<path d="M200.13 90.6108C170.72 83.4608 158.39 112.341 158.39 112.341C156.08 65.9608 128.03 42.1808 111.66 32.1808C180.46 16.6708 200.13 90.6108 200.13 90.6108Z" fill="#95C8F1"/>
<path d="M54.0999 130.031L53.0499 129.961C53.0499 129.391 53.9899 115.961 63.3199 110.111C68.9599 106.601 76.4399 106.721 85.5299 110.451C88.7299 106.231 121.53 64.5008 153.79 85.6408C155.3 82.6408 162.79 69.0008 174.15 65.8208C179.36 64.3608 184.64 65.3608 189.82 68.8208L189.24 69.7108C184.32 66.4708 179.34 65.5208 174.44 66.8908C162.44 70.2608 154.55 86.5208 154.44 86.6908L154.18 87.2408L153.67 86.9008C120.58 64.5408 86.45 110.991 86.11 111.461L85.86 111.801L85.4799 111.641C76.54 107.891 69.2599 107.641 63.8499 111.061C55.0099 116.531 54.1099 129.891 54.0999 130.031Z" fill="#001F43"/>
<path d="M81.29 94.6607L80.72 93.8908C76.48 88.1908 71.88 85.3208 67.04 85.3908C58.56 85.4908 52.04 94.5707 52.04 94.6607L51.17 94.0508C51.45 93.6608 58.05 84.4408 67.07 84.3308H67.22C72.14 84.3308 76.79 87.0908 81.03 92.5208C83.03 87.9508 92.96 66.5207 111.15 58.9107C120.52 54.9807 130.64 55.2308 141.23 59.6708C141.99 57.1308 145.38 47.3208 153.47 43.7508C158.4 41.5708 164.11 42.1808 170.47 45.5608L169.97 46.4908C163.97 43.2808 158.54 42.6807 153.92 44.7207C145.27 48.5307 142.14 60.4108 142.11 60.5308L141.96 61.1307L141.39 60.8807C130.87 56.3307 120.84 56.0007 111.58 59.8807C91.68 68.2407 81.78 93.5008 81.68 93.7508L81.29 94.6607Z" fill="#001F43"/>
<path d="M198.44 207.691L150.62 219.121L136.49 192.161L135.63 166.741L187.98 150.401L198.44 207.691Z" fill="#FF9100"/>
<path d="M150.62 219.121L130.64 223.891L113.53 173.641L135.63 166.741L150.62 219.121Z" fill="#FF4D0E"/>
<path d="M152.56 193.611C152.46 193.261 150.14 185.111 152.35 181.181C152.603 180.696 152.953 180.269 153.378 179.925C153.803 179.581 154.293 179.328 154.82 179.181C155.297 179.036 155.801 179.007 156.292 179.095C156.782 179.184 157.244 179.388 157.64 179.691C160.97 182.201 161.18 191.491 161.18 191.881H160.18C160.13 189.341 159.47 182.341 157.05 180.521C156.784 180.316 156.472 180.179 156.141 180.12C155.811 180.06 155.471 180.081 155.15 180.181C154.759 180.284 154.394 180.468 154.079 180.722C153.764 180.975 153.505 181.291 153.32 181.651C151.32 185.201 153.61 193.181 153.63 193.261L152.56 193.611Z" fill="#001F43"/>
<path d="M174.05 188.241C173.95 187.891 171.62 179.751 173.84 175.811C174.089 175.325 174.437 174.897 174.86 174.552C175.283 174.208 175.774 173.956 176.3 173.811C176.778 173.667 177.282 173.64 177.773 173.73C178.263 173.82 178.725 174.026 179.12 174.331C182.45 176.831 182.66 186.121 182.67 186.521H181.61C181.56 183.981 180.91 176.981 178.48 175.161C178.216 174.952 177.904 174.811 177.573 174.75C177.242 174.689 176.901 174.71 176.58 174.811C176.191 174.917 175.829 175.102 175.516 175.355C175.203 175.608 174.945 175.923 174.76 176.281C172.76 179.831 175.04 187.811 175.06 187.891L174.05 188.241Z" fill="#001F43"/>
<path d="M171.38 180.991L162.3 182.131C162.3 182.131 162.68 183.921 163.3 186.201L168.14 187.021L163.89 188.241C165.07 192.071 166.74 196.241 168.42 195.971C171.49 195.491 171.38 180.991 171.38 180.991Z" fill="#F6E8DA"/>
<path d="M128.67 198.051L128.07 197.171L133.12 193.761L133.71 194.641L128.67 198.051Z" fill="#FF9100"/>
<path d="M138.672 193.903L126.907 200.019L127.396 200.96L139.161 194.843L138.672 193.903Z" fill="#FF9100"/>
</g>
<defs>
<clipPath id="clip0_0_1">
<rect width="151.13" height="193.85" fill="white" transform="translate(49 30.0408)"/>
</clipPath>
</defs>
</svg>
