<svg width="274" height="318" viewBox="0 0 274 318" fill="none" xmlns="http://www.w3.org/2000/svg">
<path d="M2.87404 132.052C4.05223 95.1277 25.4923 61.8606 58.6329 45.5352L129.698 10.5278C198.722 -23.4738 278.68 29.9551 273.677 106.736L266.027 224.139C262.076 284.783 205.39 327.912 145.889 315.545L80.2796 301.908C32.7101 292.021 -0.869382 249.373 0.680103 200.811L2.87404 132.052Z" fill="#355281"/>
<g clip-path="url(#clip0_0_1)">
<path d="M189.55 242.53C182.95 251.09 172.55 254.12 166.28 249.3C160.01 244.48 160.28 233.63 166.89 225.07C173.5 216.51 183.89 213.48 190.16 218.3C196.43 223.12 196.15 234.01 189.55 242.53Z" fill="#57A46B"/>
<path d="M107.7 203.94C107.21 203.01 73.57 114.01 73.57 114.01L139.98 83.11L172.24 189.53L166.52 192.27L131.98 93.87L84.33 113.09L111.33 203.94H107.7Z" fill="#001F43"/>
<path d="M149.98 64.81C76.09 57.71 49.98 110.57 49.98 110.57L62.11 128.2L155.58 87.4L149.98 64.81Z" fill="#95C8F1"/>
<path d="M82.9 98.63C82.78 98.43 79.9 93.63 80.9 90.18C81.0602 89.6148 81.3393 89.0904 81.7188 88.642C82.0982 88.1936 82.5692 87.8315 83.1 87.58C83.5978 87.3074 84.1517 87.153 84.7187 87.1288C85.2857 87.1045 85.8507 87.211 86.37 87.44C89.53 88.82 91.17 94.34 91.24 94.58L90.36 94.83C90.36 94.83 88.76 89.48 85.98 88.28C85.5831 88.1024 85.15 88.0207 84.7157 88.0415C84.2814 88.0624 83.8581 88.1852 83.48 88.4C83.0643 88.5886 82.6944 88.8651 82.3958 89.2103C82.0971 89.5556 81.8768 89.9614 81.75 90.4C80.87 93.46 83.63 98.07 83.66 98.12L82.9 98.63Z" fill="#001F43"/>
<path d="M114.98 86.54C114.86 86.34 111.98 81.54 112.98 78.09C113.139 77.5233 113.418 76.9972 113.798 76.547C114.177 76.0969 114.648 75.7331 115.18 75.48C115.681 75.2101 116.236 75.0573 116.804 75.0331C117.372 75.0088 117.938 75.1138 118.46 75.34C121.62 76.72 123.26 82.25 123.33 82.48L122.45 82.74C122.45 82.74 120.86 77.39 118.09 76.18C117.692 76.0069 117.259 75.9278 116.826 75.9486C116.392 75.9694 115.97 76.0896 115.59 76.3C115.176 76.4919 114.808 76.7694 114.51 77.1142C114.212 77.459 113.99 77.8631 113.86 78.3C112.98 81.36 115.75 85.98 115.78 86.02L114.98 86.54Z" fill="#001F43"/>
<path d="M110.34 81.7001L91.73 87.0101C92.7599 89.2434 93.9151 91.4169 95.19 93.5201L103 92.7701L96.77 96.0101C99.58 100.01 103.18 103.73 106.53 102.62C113.39 100.31 110.34 81.7001 110.34 81.7001Z" fill="#F6E8DA"/>
<path d="M67.97 121.45L57.83 100.59L58.65 100.19L68.42 120.29L154.53 86.5801L154.86 87.4301L67.97 121.45Z" fill="#001F43"/>
<path d="M173.8 157.26L119.66 177.8L105 155.5L103.8 127.54L160.76 104.17L173.8 157.26Z" fill="#FF9100"/>
<path d="M119.66 177.8L94.17 187.46L77.92 138.17L103.8 127.54L119.66 177.8Z" fill="#FF4D0E"/>
<path d="M129.23 152.58L127.04 138.27L141.84 144.2L129.23 152.58Z" fill="#F6E8DA"/>
<path d="M130.8 140.6L133.41 145.26L132.62 145.8L128.98 142.11L130.8 140.6ZM134.7 146.27C134.769 146.364 134.81 146.474 134.82 146.59C134.845 146.702 134.845 146.818 134.82 146.93C134.782 147.052 134.724 147.166 134.65 147.27C134.573 147.382 134.475 147.477 134.36 147.55C134.253 147.63 134.13 147.688 134 147.72C133.874 147.739 133.746 147.739 133.62 147.72C133.504 147.713 133.391 147.678 133.29 147.62C133.189 147.569 133.103 147.493 133.04 147.4C132.972 147.305 132.928 147.195 132.91 147.08C132.889 146.964 132.889 146.846 132.91 146.73C132.945 146.609 132.999 146.494 133.07 146.39C133.149 146.28 133.247 146.185 133.36 146.11C133.472 146.031 133.597 145.974 133.73 145.94C133.853 145.921 133.977 145.921 134.1 145.94C134.219 145.948 134.335 145.983 134.44 146.04C134.545 146.093 134.634 146.172 134.7 146.27Z" fill="#FF4D0E"/>
<path d="M95.1547 153.792L86.684 160.313L87.2391 161.034L95.7098 154.513L95.1547 153.792Z" fill="#FF9100"/>
<path d="M102.524 151.161L88.9774 161.514L89.536 162.245L103.083 151.892L102.524 151.161Z" fill="#FF9100"/>
<path d="M205.61 226.37L138.73 236.7L122.24 207.98L123.97 167.81L189.37 143.07L205.61 226.37Z" fill="#95C8F1"/>
<path d="M138.73 236.7L107.9 241.47L85.93 182.2L123.97 167.81L138.73 236.7Z" fill="#607DF1"/>
<path d="M115.172 196.464L102.57 203.553L103.016 204.346L115.618 197.257L115.172 196.464Z" fill="#95C8F1"/>
<path d="M122.004 196.441L98.5644 209.903L99.0226 210.701L122.462 197.239L122.004 196.441Z" fill="#95C8F1"/>
<path d="M115.209 205.421L106.273 209.865L106.682 210.688L115.618 206.245L115.209 205.421Z" fill="#95C8F1"/>
<path d="M110.41 237.58L215.45 212.41V231.17L110.41 245.36V237.58Z" fill="#001F43"/>
<path d="M119.03 248.94C112.43 257.5 102.03 260.53 95.75 255.71C89.47 250.89 89.75 240.04 96.37 231.48C102.99 222.92 113.37 219.89 119.64 224.71C125.91 229.53 125.62 240.38 119.03 248.94Z" fill="#57A46B"/>
<path d="M108.98 243.75C106.98 247.61 103.4 249.75 100.98 248.46C98.56 247.17 98.15 243.05 100.13 239.19C102.11 235.33 105.71 233.19 108.13 234.48C110.55 235.77 110.98 239.9 108.98 243.75Z" fill="#F6E8DA"/>
<path d="M102.19 257.01L101.7 256.23C109.5 251.3 113.9 245.63 114.78 239.37C115.98 230.88 110.13 224.19 110.07 224.13L110.76 223.52C111.01 223.8 116.94 230.57 115.69 239.52C114.77 246.06 110.23 251.95 102.19 257.01Z" fill="#001F43"/>
</g>
<defs>
<clipPath id="clip0_0_1">
<rect width="165.45" height="193.85" fill="white" transform="translate(50 64.15)"/>
</clipPath>
</defs>
</svg>
