<svg width="253" height="283" viewBox="0 0 253 283" fill="none" xmlns="http://www.w3.org/2000/svg">
<path d="M0 106.601C0 55.4594 37.872 12.2237 88.5679 5.48903L116.476 1.78165C167.223 -4.95985 215.107 26.9595 228.406 76.3952L249.319 154.133C267.646 222.256 212.944 287.969 142.627 282.302L93.8058 278.367C40.822 274.096 0 229.852 0 176.696V106.601Z" fill="#355281"/>
<g clip-path="url(#clip0_0_1)">
<path d="M75.904 135.52L171.014 108.14L154.304 26L37.964 65.15L64.574 134.64L75.904 135.52Z" fill="#57A46B"/>
<path d="M74.2212 56.1857L73.3994 56.5005L100.232 126.547L101.053 126.232L74.2212 56.1857Z" fill="#95C8F1"/>
<path d="M143.524 105.5V93.95L161.114 93.84L160.464 105.94L143.524 105.5Z" fill="#F6E8DA"/>
<path d="M144.734 104.35V94.83H148.304L147.594 104.8L144.734 104.35Z" fill="#001F43"/>
<path d="M156.774 104.8V95.22H158.454L157.614 105.17L156.774 104.8Z" fill="#001F43"/>
<path d="M158.694 105.17L159.024 95.22H160.024L159.764 105.17H158.694Z" fill="#001F43"/>
<path d="M150.674 104.8L150.394 95.22L155.884 95.38L155.454 104.8H150.674Z" fill="#001F43"/>
<path d="M148.804 104.8V95.22H149.684V104.8H148.804Z" fill="#001F43"/>
<path d="M89.754 63.93L100.064 87.86L136.504 72L129.824 46.12L89.754 63.93Z" fill="#F6E8DA"/>
<path d="M100.544 69.39L98.414 64.42L116.044 55.33L118.054 61.04L100.544 69.39Z" fill="#001F43"/>
<path d="M104.524 78.89L101.834 74.04L129.384 62.08L130.264 67.76L104.524 78.89Z" fill="#001F43"/>
<path d="M67.9106 93.0411L57.0194 102.416L57.5935 103.082L68.4846 93.708L67.9106 93.0411Z" fill="#95C8F1"/>
<path d="M64.8414 99.4848L61.4308 102.42L62.0049 103.087L65.4155 100.152L64.8414 99.4848Z" fill="#95C8F1"/>
<path d="M76.4982 92.0835L58.894 107.317L59.4698 107.982L77.074 92.749L76.4982 92.0835Z" fill="#95C8F1"/>
<path d="M83.704 137.94L72.824 139.7C72.824 139.7 78.824 174.12 118.564 174.12L119.564 170.38C119.564 170.38 95.364 169.28 83.704 137.94Z" fill="#FFB200"/>
<path d="M169.804 117.3L161.664 119.72C161.664 119.72 161.994 154.78 147.594 169.09L148.364 173.16C148.364 173.16 180.364 154.42 169.804 117.3Z" fill="#FFB200"/>
<path d="M72.824 144.54L86.124 141.79C86.124 141.79 87.554 121.45 75.354 132L76.354 118.81H56.984C56.984 118.81 51.054 131.56 58.524 144.54L71.524 138.82L72.824 144.54Z" fill="#001F43"/>
<path d="M70.634 135.51C66.154 127.22 72.414 119.2 72.474 119.12L73.164 119.67C73.104 119.75 67.164 127.32 71.414 135.09L70.634 135.51Z" fill="#607DF1"/>
<path d="M66.824 136.94C59.914 129.59 66.2639 119.86 66.3339 119.76L67.0639 120.25C67.0039 120.34 61.064 129.5 67.464 136.34L66.824 136.94Z" fill="#607DF1"/>
<path d="M62.284 139.57C53.924 131.29 60.534 119.87 60.604 119.76L61.364 120.21C61.294 120.32 55.034 131.15 62.904 138.95L62.284 139.57Z" fill="#607DF1"/>
<path d="M161.004 121.56C161.004 121.56 151.444 107.15 169.364 107.7L163.724 92.6401L175.524 90.3301C175.524 90.3301 182.674 107.04 171.014 111.11L171.944 117.71L161.004 121.56Z" fill="#001F43"/>
<path d="M172.984 107.75L172.124 107.58C174.224 96.86 165.894 93.82 165.814 93.79L166.104 92.96C166.204 92.99 175.204 96.29 172.984 107.75Z" fill="#607DF1"/>
<path d="M175.954 106.05L175.094 105.84C177.374 96.4801 171.224 92.8401 171.164 92.8401L171.604 92.0801C171.664 92.0801 178.384 96.06 175.954 106.05Z" fill="#607DF1"/>
<path d="M109.214 138.71L107.674 158.5L119.114 161.69L121.864 150.2L117.684 135.52L109.214 138.71Z" fill="#001F43"/>
<path d="M130.664 167.94L135.274 179.16L138.574 178.28L137.474 169.37C137.474 169.37 162.214 158.74 163.644 154.67C165.074 150.6 148.254 126.38 148.254 126.38L116.254 139.02L117.574 159.8C117.574 159.8 106.254 153.65 104.054 159.47C101.854 165.29 110.054 166.73 118.454 163.1L130.664 167.94Z" fill="#FFB200"/>
<path d="M136.444 155.94L136.314 155.53C136.244 155.29 135.614 153.17 136.644 152.15C137.214 151.59 138.124 151.5 139.344 151.9L139.074 152.74C138.464 152.54 137.654 152.38 137.264 152.74C136.874 153.1 136.924 154.17 137.054 154.8C140.754 153.7 145.764 151.8 146.114 150.75C145.234 149.52 142.604 150.99 141.754 151.59L141.194 151.99L139.194 141.8L140.054 141.64L141.754 150.51C142.914 149.82 145.534 148.51 146.754 150.14C146.847 150.266 146.909 150.413 146.935 150.567C146.961 150.722 146.95 150.88 146.904 151.03C146.264 152.95 138.384 155.32 136.814 155.78L136.444 155.94Z" fill="#001F43"/>
<path d="M130.034 155.87L139.274 159.05C139.274 159.05 133.784 167.56 131.704 166.97C129.624 166.38 130.034 155.87 130.034 155.87Z" fill="#001F43"/>
<path d="M130.824 156.86L136.504 158.86L135.404 161.25L132.284 160.57L135.884 162.11C135.884 162.11 133.194 167.01 131.704 166.23C130.214 165.45 130.824 156.86 130.824 156.86Z" fill="#F6E8DA"/>
<path d="M148.614 126.15L147.894 126.65C154.604 136.31 164.204 151.71 163.204 154.54C162.904 155.42 160.834 157.61 150.764 162.69L146.594 153.11L141.824 155.23L142.544 156.83L145.684 155.44L149.184 163.44L148.784 163.64C134.114 171.06 128.334 166.95 127.174 165.88L128.744 154.6L135.744 156.82L136.274 155.14L127.274 152.29L125.274 166.41L125.494 166.7C125.644 166.9 127.914 169.78 133.894 169.78C137.784 169.78 143.234 168.57 150.674 164.62L151.394 164.24L151.054 163.45C163.054 157.4 163.744 155.45 163.974 154.78C165.524 150.67 150.354 128.64 148.614 126.15Z" fill="#001F43"/>
<path d="M111.074 164.09C110.923 163.898 110.813 163.679 110.748 163.443C110.684 163.208 110.668 162.962 110.701 162.721C110.733 162.479 110.814 162.247 110.938 162.037C111.063 161.827 111.228 161.645 111.424 161.5C111.648 161.354 111.907 161.268 112.174 161.25C111.146 160.376 109.822 159.928 108.474 160C108.149 159.984 107.826 160.048 107.531 160.186C107.237 160.324 106.98 160.531 106.784 160.79C106.674 161.051 106.617 161.332 106.617 161.615C106.617 161.898 106.674 162.179 106.784 162.44L105.984 162.81C105.812 162.425 105.722 162.007 105.722 161.585C105.722 161.163 105.812 160.745 105.984 160.36C106.246 159.976 106.598 159.662 107.009 159.446C107.421 159.23 107.879 159.118 108.344 159.12C111.824 158.78 114.344 162.12 114.414 162.29L113.754 162.86C113.754 162.86 112.584 161.77 111.864 162.24C111.144 162.71 111.754 163.58 111.774 163.62L111.074 164.09Z" fill="#001F43"/>
<path d="M137.934 147.11C138.301 147.577 138.513 148.147 138.541 148.74C138.569 149.334 138.412 149.921 138.091 150.421C137.77 150.921 137.302 151.308 136.75 151.53C136.199 151.751 135.593 151.796 135.015 151.657C134.438 151.518 133.918 151.202 133.528 150.754C133.138 150.307 132.897 149.748 132.838 149.157C132.78 148.566 132.907 147.971 133.202 147.456C133.497 146.94 133.945 146.529 134.484 146.28C135.884 145.64 137.434 146.01 137.934 147.11Z" fill="#F6E8DA"/>
<path d="M136.044 148.61C136.06 148.918 135.983 149.224 135.824 149.487C135.664 149.751 135.429 149.961 135.149 150.09C134.868 150.218 134.556 150.26 134.252 150.209C133.948 150.158 133.666 150.017 133.443 149.804C133.22 149.591 133.066 149.316 133.001 149.015C132.936 148.714 132.963 148.4 133.078 148.114C133.193 147.828 133.392 147.583 133.648 147.411C133.904 147.239 134.206 147.148 134.514 147.15C134.91 147.142 135.293 147.291 135.58 147.564C135.867 147.838 136.033 148.214 136.044 148.61Z" fill="#001F43"/>
<path d="M146.854 143.38C147.222 143.849 147.435 144.422 147.462 145.018C147.49 145.614 147.331 146.204 147.008 146.705C146.685 147.207 146.214 147.595 145.66 147.816C145.105 148.038 144.496 148.081 143.917 147.939C143.337 147.798 142.816 147.48 142.425 147.029C142.035 146.578 141.795 146.016 141.738 145.422C141.682 144.828 141.812 144.232 142.111 143.715C142.409 143.198 142.861 142.788 143.404 142.54C143.975 142.204 144.655 142.104 145.299 142.261C145.943 142.418 146.501 142.819 146.854 143.38Z" fill="#F6E8DA"/>
<path d="M145.064 144.87C145.08 145.177 145.003 145.483 144.844 145.746C144.685 146.01 144.45 146.22 144.171 146.348C143.891 146.477 143.579 146.52 143.276 146.469C142.972 146.419 142.69 146.279 142.466 146.068C142.243 145.856 142.088 145.582 142.022 145.281C141.956 144.98 141.981 144.667 142.095 144.381C142.209 144.095 142.406 143.849 142.661 143.676C142.915 143.503 143.216 143.41 143.524 143.41C143.921 143.402 144.305 143.551 144.594 143.824C144.882 144.097 145.051 144.473 145.064 144.87Z" fill="#001F43"/>
<path d="M127.334 147.34C127.094 145.12 128.144 140.63 133.804 139.52L134.484 142.97C130.604 143.73 130.794 146.64 130.834 146.97L127.334 147.34Z" fill="#001F43"/>
<path d="M146.144 140.99C145.908 140.574 145.586 140.212 145.2 139.929C144.814 139.647 144.372 139.449 143.904 139.35C142.815 139.3 141.745 139.656 140.904 140.35L138.604 137.68C140.183 136.338 142.227 135.67 144.294 135.82C145.262 135.971 146.186 136.331 147.001 136.875C147.816 137.419 148.503 138.134 149.014 138.97L146.144 140.99Z" fill="#001F43"/>
<path d="M138.314 132.44C138.314 132.44 150.404 136.62 150.314 136.62C150.224 136.62 147.184 133.62 147.184 133.62L159.184 134.28L151.814 126.42L138.314 132.44Z" fill="#001F43"/>
<path d="M107.674 147.4L175.524 117.4C175.524 117.4 168.044 111.02 150.124 126.4C150.124 126.4 136.044 109.4 120.434 116.07C104.824 122.74 107.674 147.4 107.674 147.4Z" fill="#95C8F1"/>
<path d="M121.264 114.31C121.434 114.7 120.794 115.31 119.844 115.75C118.894 116.19 117.984 116.16 117.844 115.75C117.704 115.34 118.314 114.75 119.264 114.31C120.214 113.87 121.104 113.94 121.264 114.31Z" fill="#95C8F1"/>
<path d="M149.354 127.17L116.914 140.78C116.914 140.78 110.274 121.13 123.294 116.06C135.404 111.33 149.354 127.17 149.354 127.17Z" fill="#607DF1"/>
<path d="M120.274 134.46L119.274 134.77L119.434 135.3L121.114 134.64L121.044 134.2L121.374 134.07L121.734 135.2L118.734 136.53L118.414 135.72L119.054 135.47L118.404 134.07L117.874 134.32L117.564 133.52L120.754 132.35L121.234 133.57L120.924 133.77L120.574 133.06L119.024 133.78L119.214 134.42L120.154 133.99L120.274 134.46Z" fill="#F6E8DA"/>
<path d="M125.994 133.53L124.224 134.4L123.924 133.74L124.434 133.54L123.674 133.13L123.314 133.99L123.804 133.82L124.004 134.36L122.194 135.14L121.934 134.46L122.604 134.23L123.134 133.08L121.794 132.48L121.244 132.72L120.984 132.05L122.854 131.4L123.054 131.95L122.584 132.15L123.334 132.64L123.734 131.76L123.284 131.98L122.984 131.32L124.824 130.58L125.044 131.11L124.364 131.45L123.854 132.68L125.314 133.18L125.764 133L125.994 133.53Z" fill="#F6E8DA"/>
<path d="M125.924 130.87L125.674 131.06L125.464 131.25L125.114 130.69L125.514 130.39L125.894 130.14C125.993 130.068 126.097 130.001 126.204 129.94L126.514 129.77C126.718 129.658 126.928 129.558 127.144 129.47C127.327 129.397 127.519 129.347 127.714 129.32C127.866 129.295 128.022 129.295 128.174 129.32C128.296 129.344 128.409 129.4 128.504 129.48C128.608 129.574 128.687 129.694 128.732 129.826C128.777 129.959 128.788 130.102 128.764 130.24C128.739 130.396 128.685 130.545 128.604 130.68C128.512 130.828 128.405 130.965 128.284 131.09C128.155 131.218 128.018 131.338 127.874 131.45C127.727 131.563 127.577 131.663 127.424 131.75C127.288 131.834 127.148 131.911 127.004 131.98L127.244 132.57L127.964 132.29L128.154 132.78L126.394 133.6L126.134 132.99L126.774 132.74L125.924 130.87ZM127.264 130.03C127.208 130.047 127.154 130.07 127.104 130.1L126.904 130.21L126.684 130.34L126.454 130.49L126.914 131.64L127.204 131.43L127.504 131.19L127.764 130.92C127.835 130.832 127.899 130.739 127.954 130.64C128.002 130.557 128.032 130.465 128.044 130.37C128.069 130.289 128.069 130.201 128.044 130.12C128.018 130.066 127.976 130.02 127.924 129.99C127.873 129.959 127.814 129.941 127.754 129.94C127.684 129.93 127.614 129.93 127.544 129.94C127.447 129.958 127.353 129.988 127.264 130.03Z" fill="#F6E8DA"/>
<path d="M133.034 129.65L133.284 130.76L132.354 131.12L131.124 130.2L130.774 130.35L130.624 130.41H130.474L130.724 131.16L131.414 130.94L131.624 131.36L129.944 132.18L129.674 131.5L130.294 131.3L129.474 129.54L129.064 129.8L128.724 129.19C128.813 129.118 128.907 129.051 129.004 128.99L129.294 128.8L129.574 128.64L129.824 128.51C130.006 128.416 130.193 128.333 130.384 128.26C130.597 128.173 130.818 128.106 131.044 128.06C131.24 128.031 131.438 128.031 131.634 128.06C131.79 128.075 131.941 128.126 132.074 128.21C132.199 128.287 132.292 128.409 132.334 128.55C132.353 128.662 132.353 128.777 132.334 128.89C132.314 129.017 132.27 129.139 132.204 129.25C132.129 129.389 132.031 129.514 131.914 129.62C131.78 129.762 131.625 129.884 131.454 129.98L132.524 130.42L132.834 130.2L132.664 129.76L133.034 129.65ZM130.554 130.11L130.804 130L131.094 129.86L131.364 129.68C131.438 129.618 131.505 129.547 131.564 129.47C131.613 129.395 131.644 129.309 131.654 129.22C131.655 129.121 131.627 129.024 131.574 128.94C131.545 128.899 131.507 128.865 131.464 128.84C131.41 128.805 131.348 128.784 131.284 128.78H131.034L130.704 128.87L130.534 128.95L130.374 129.02L130.214 129.11L130.054 129.2L130.374 130.2H130.464L130.554 130.11Z" fill="#F6E8DA"/>
<path d="M135.304 128.59L134.304 128.9L134.464 129.43L136.144 128.77L136.064 128.33L136.394 128.2L136.754 129.33L133.754 130.66L133.434 129.85L134.064 129.6L133.414 128.2L132.884 128.45L132.574 127.65L135.764 126.48L136.244 127.7L135.944 127.9L135.584 127.19L134.044 127.91L134.234 128.55L135.174 128.12L135.304 128.59Z" fill="#F6E8DA"/>
<path d="M139.134 124.94V126.18C138.958 126.16 138.78 126.16 138.604 126.18L138.184 126.24L137.814 126.35C137.674 126.409 137.537 126.476 137.404 126.55C137.314 126.604 137.233 126.671 137.164 126.75C137.12 126.805 137.089 126.871 137.074 126.94C137.063 126.965 137.057 126.992 137.057 127.02C137.057 127.047 137.063 127.075 137.074 127.1C137.111 127.156 137.168 127.195 137.234 127.21H137.474L137.804 127.12L138.204 126.94L138.474 126.84L138.784 126.76C138.89 126.75 138.998 126.75 139.104 126.76C139.21 126.756 139.317 126.773 139.416 126.811C139.516 126.848 139.607 126.906 139.684 126.98C139.774 127.074 139.843 127.186 139.884 127.31C139.933 127.424 139.96 127.546 139.964 127.67C139.959 127.769 139.939 127.867 139.904 127.96C139.866 128.052 139.812 128.137 139.744 128.21C139.677 128.287 139.6 128.354 139.514 128.41C139.432 128.478 139.341 128.535 139.244 128.58L138.954 128.71L138.604 128.82L138.264 128.91H137.924H137.564V129.33H137.234L137.094 128.17C137.24 128.18 137.387 128.18 137.534 128.17H137.954L138.364 128.09C138.504 128.052 138.64 128.006 138.774 127.95L139.104 127.8C139.176 127.754 139.243 127.701 139.304 127.64C139.348 127.593 139.376 127.534 139.384 127.47C139.398 127.411 139.398 127.349 139.384 127.29C139.36 127.223 139.314 127.167 139.254 127.13C139.179 127.107 139.099 127.107 139.024 127.13C138.918 127.138 138.813 127.162 138.714 127.2C138.568 127.237 138.424 127.284 138.284 127.34L137.924 127.47L137.544 127.57C137.423 127.601 137.299 127.618 137.174 127.62C137.062 127.641 136.946 127.641 136.834 127.62C136.728 127.587 136.629 127.532 136.544 127.46C136.454 127.37 136.385 127.26 136.344 127.14C136.298 127.033 136.274 126.917 136.274 126.8C136.274 126.687 136.294 126.575 136.334 126.47C136.377 126.364 136.438 126.266 136.514 126.18C136.592 126.084 136.683 126 136.784 125.93C136.892 125.849 137.006 125.775 137.124 125.71L137.524 125.54L137.964 125.41H138.164H138.374H138.574C138.64 125.4 138.708 125.4 138.774 125.41L138.704 124.96L139.134 124.94Z" fill="#F6E8DA"/>
<path d="M142.444 123.65V124.88C142.268 124.865 142.09 124.865 141.914 124.88C141.773 124.892 141.633 124.912 141.494 124.94L141.124 125.05C140.982 125.105 140.845 125.172 140.714 125.25C140.622 125.301 140.541 125.369 140.474 125.45C140.425 125.498 140.393 125.562 140.384 125.63C140.372 125.657 140.366 125.686 140.366 125.715C140.366 125.744 140.372 125.773 140.384 125.8C140.422 125.853 140.48 125.889 140.544 125.9C140.623 125.92 140.705 125.92 140.784 125.9C140.896 125.883 141.007 125.856 141.114 125.82L141.524 125.67L141.794 125.57L142.104 125.49C142.21 125.48 142.318 125.48 142.424 125.49C142.53 125.481 142.636 125.498 142.734 125.54C142.836 125.576 142.928 125.634 143.004 125.71C143.094 125.804 143.163 125.917 143.204 126.04C143.252 126.151 143.279 126.27 143.284 126.39C143.285 126.493 143.265 126.595 143.224 126.69C143.183 126.781 143.129 126.865 143.064 126.94C142.997 127.017 142.919 127.084 142.834 127.14C142.749 127.205 142.659 127.262 142.564 127.31L142.274 127.43L141.924 127.55L141.584 127.63L141.234 127.68C141.118 127.69 141 127.69 140.884 127.68V128.11H140.554L140.414 126.95H140.854C140.994 126.96 141.134 126.96 141.274 126.95C141.413 126.939 141.551 126.912 141.684 126.87C141.825 126.84 141.962 126.797 142.094 126.74L142.424 126.59L142.624 126.43C142.667 126.382 142.694 126.323 142.704 126.26C142.719 126.201 142.719 126.139 142.704 126.08C142.68 126.013 142.634 125.957 142.574 125.92C142.502 125.903 142.426 125.903 142.354 125.92C142.245 125.932 142.138 125.956 142.034 125.99L141.604 126.14L141.244 126.26L140.864 126.37C140.742 126.396 140.618 126.413 140.494 126.42C140.382 126.441 140.266 126.441 140.154 126.42C140.048 126.391 139.949 126.339 139.864 126.27C139.774 126.18 139.706 126.07 139.664 125.95C139.618 125.839 139.594 125.72 139.594 125.6C139.594 125.491 139.614 125.382 139.654 125.28C139.697 125.174 139.758 125.076 139.834 124.99C139.911 124.891 140.002 124.804 140.104 124.73C140.212 124.652 140.326 124.582 140.444 124.52C140.573 124.45 140.706 124.39 140.844 124.34C140.988 124.291 141.135 124.251 141.284 124.22H141.484H141.694H141.894H142.094L142.024 123.77L142.444 123.65Z" fill="#F6E8DA"/>
<path d="M127.394 123.94L132.004 125.51L128.824 121.77L130.274 119.58L127.774 120.52L125.714 118.09L125.514 121.37L122.854 122.38L125.404 123.25L125.164 127.33L127.394 123.94Z" fill="#F6E8DA"/>
<path d="M117.574 165.21L115.204 177.07L132.434 178.19L137.264 196.19L155.634 195.19C155.634 195.19 155.634 186.19 142.434 176.39L151.784 175.29L147.934 166.82L138.284 175.82L134.124 176.33L117.574 165.21Z" fill="#607DF1"/>
<path d="M212.474 210.52C206.534 209.31 203.894 232.95 203.894 232.95L153.524 195.34L144.294 194.9L142.204 200.4L119.544 224.4L120.764 198.45C120.764 198.45 96.134 191.08 95.254 197.02C94.374 202.96 113.614 200.87 113.614 200.87C113.614 200.87 107.344 217.87 120.104 231.44L148.914 202.44L204.444 241.8C204.444 241.8 218.404 211.72 212.474 210.52Z" fill="#001F43"/>
<path d="M156.284 192.81H147.414L147.044 190.72L131.944 193.34L133.764 203.25L148.914 201.16L148.164 196.99H156.284V192.81Z" fill="#FF4D0E"/>
<path d="M139.834 199.94C135.834 199.94 132.584 194.56 132.444 194.32L133.204 193.87C133.204 193.93 136.524 199.39 140.204 199.05C142.494 198.82 144.504 196.34 146.204 191.67L147.034 191.97C145.234 196.97 142.974 199.67 140.314 199.97L139.834 199.94Z" fill="#FF9100"/>
<path d="M141.204 197.63C141.204 197.99 140.664 198.27 139.994 198.27C139.324 198.27 138.784 197.99 138.784 197.63C138.784 197.27 139.324 196.99 139.994 196.99C140.664 196.99 141.204 197.28 141.204 197.63Z" fill="#FF9100"/>
<path d="M150.177 192.792L149.299 192.854L149.593 197.034L150.471 196.972L150.177 192.792Z" fill="#FF9100"/>
<path d="M152.379 193.331L151.501 193.392L151.721 196.545L152.599 196.483L152.379 193.331Z" fill="#FF9100"/>
<path d="M154.154 192.81H153.274V196.99H154.154V192.81Z" fill="#FF9100"/>
</g>
<defs>
<clipPath id="clip0_0_1">
<rect width="175.98" height="215.74" fill="white" transform="translate(37.964 26)"/>
</clipPath>
</defs>
</svg>
