<svg width="143" height="140" viewBox="0 0 143 140" fill="none" xmlns="http://www.w3.org/2000/svg">
<path d="M74.755 104.175C64.845 104.175 54.935 104.175 45.035 104.175C43.875 104.175 42.225 104.825 41.675 103.615C41.125 102.405 42.575 101.475 43.255 100.515C48.255 93.515 53.115 86.455 57.475 79.075C63.475 68.935 69.415 58.765 73.225 47.535C76.725 37.215 74.125 28.415 66.595 20.915C58.705 13.065 45.595 11.775 35.685 17.705C30.8809 20.5147 27.1686 24.8669 25.1515 30.054C23.1344 35.241 22.9312 40.9578 24.575 46.275C28.575 59.165 35.575 70.605 42.575 82.065C45.705 87.235 45.785 87.195 42.205 92.135C41.155 93.595 39.975 94.945 39.005 96.455C37.805 98.315 36.905 98.205 35.795 96.365C32.095 90.235 28.185 84.225 24.625 78.015C19.405 68.935 14.725 59.585 11.625 49.515C4.46499 26.055 22.975 0.844969 47.495 0.794969C65.705 0.794969 83.935 1.32497 102.115 0.604967C115.455 0.0849665 131.805 11.225 131.985 29.605C132.055 37.425 129.545 44.505 123.745 49.985C121.575 51.985 121.815 53.085 123.795 55.045C131.975 63.145 134.175 75.815 129.565 86.745C127.374 91.8956 123.72 96.2904 119.056 99.3849C114.392 102.48 108.922 104.138 103.325 104.155L74.755 104.175ZM86.355 90.925C92.115 90.925 97.875 91.055 103.625 90.925C107.681 90.7114 111.497 88.9393 114.278 85.9787C117.058 83.0181 118.587 79.0979 118.546 75.0366C118.505 70.9754 116.896 67.0871 114.056 64.1836C111.216 61.2802 107.364 59.586 103.305 59.455C99.915 59.395 96.515 59.395 93.115 59.345C89.875 59.345 89.775 59.155 90.685 56.195C91.465 53.675 92.295 51.195 92.905 48.605C93.365 46.695 94.345 46.005 96.285 46.085C99.3959 46.2412 102.515 46.0871 105.595 45.625C113.375 44.385 118.885 37.315 118.505 28.875C118.155 21.175 111.875 14.455 104.315 14.205C96.755 13.955 89.035 14.105 81.385 14.105C80.765 14.105 79.945 13.885 79.615 14.615C79.285 15.345 79.985 15.815 80.355 16.315C83.0168 19.9691 85.0887 24.0184 86.495 28.315C89.915 38.765 87.495 48.595 83.495 58.315C78.9599 68.7895 73.5892 78.8821 67.435 88.495C66.175 90.495 66.585 91.035 68.835 91.005C74.655 90.885 80.505 90.925 86.355 90.925Z" fill="#FCA311"/>
<path d="M48.935 52.105C47.2839 52.1037 45.6493 51.7768 44.1246 51.1432C42.6 50.5095 41.2152 49.5814 40.0496 48.4121C38.8839 47.2427 37.9603 45.855 37.3315 44.3284C36.7027 42.8017 36.3811 41.1661 36.385 39.515C36.4861 36.18 37.8783 33.0147 40.2681 30.6864C42.658 28.3582 45.8586 27.049 49.195 27.035C52.4642 27.1547 55.5574 28.5463 57.8157 30.9133C60.074 33.2802 61.3187 36.4354 61.2848 39.7066C61.2509 42.9778 59.9411 46.1065 57.6342 48.4262C55.3274 50.7458 52.206 52.073 48.935 52.125V52.105Z" fill="#FCA311"/>
<path d="M9.43498 115.025C13.155 115.025 17.435 115.835 17.435 121.965V122.585C17.4923 123.401 17.3384 124.218 16.9881 124.957C16.6378 125.696 16.1028 126.333 15.435 126.805C16.2948 127.257 17.0043 127.95 17.4767 128.799C17.9491 129.648 18.1639 130.616 18.095 131.585V132.215C18.095 138.555 13.535 139.405 9.65498 139.405H0.904984V115.025H9.43498ZM6.77501 120.155V124.405H9.33501C10.215 124.405 11.405 124.155 11.405 122.465V122.085C11.405 120.405 10.215 120.155 9.33501 120.155H6.77501ZM6.77501 129.525V134.275H9.77501C10.0825 134.321 10.3965 134.296 10.6922 134.199C10.9879 134.103 11.2571 133.939 11.4784 133.721C11.6998 133.503 11.8671 133.236 11.9672 132.941C12.0673 132.647 12.0974 132.333 12.055 132.025V131.775C12.0974 131.467 12.0673 131.153 11.9672 130.859C11.8671 130.564 11.6998 130.297 11.4784 130.079C11.2571 129.861 10.9879 129.697 10.6922 129.601C10.3965 129.504 10.0825 129.479 9.77501 129.525H6.77501Z" fill="#FCA311"/>
<path d="M36.305 115.025V120.155H26.935V124.405H34.745V129.515H26.935V134.265H36.305V139.395H20.995V115.025H36.305Z" fill="#FCA311"/>
<path d="M47.715 115.025C51.435 115.025 55.715 115.835 55.715 121.965V122.585C55.7733 123.401 55.6198 124.218 55.2694 124.958C54.919 125.697 54.3836 126.333 53.715 126.805C54.5748 127.257 55.2843 127.95 55.7567 128.799C56.2291 129.648 56.4439 130.616 56.375 131.585V132.215C56.375 138.555 51.815 139.405 47.935 139.405H39.185V115.025H47.715ZM45.065 120.155V124.405H47.625C48.505 124.405 49.685 124.155 49.685 122.465V122.085C49.685 120.405 48.505 120.155 47.625 120.155H45.065ZM45.065 129.525V134.275H48.065C48.3725 134.321 48.6865 134.296 48.9822 134.199C49.2779 134.103 49.5471 133.939 49.7684 133.721C49.9898 133.503 50.1571 133.236 50.2572 132.941C50.3573 132.647 50.3873 132.333 50.345 132.025V131.775C50.3873 131.467 50.3573 131.153 50.2572 130.859C50.1571 130.564 49.9898 130.297 49.7684 130.079C49.5471 129.861 49.2779 129.697 48.9822 129.601C48.6865 129.504 48.3725 129.479 48.065 129.525H45.065Z" fill="#FCA311"/>
<path d="M71.755 115.025L77.575 139.405H71.235L70.235 134.465H65.165L64.165 139.405H57.785L63.595 115.025H71.755ZM66.195 129.335H69.195L67.695 121.905L66.195 129.335Z" fill="#FCA311"/>
<path d="M97.945 115.025L103.755 139.405H97.415L96.415 134.465H91.355L90.355 139.405H83.975L89.785 115.025H97.945ZM92.385 129.335H95.385L93.885 121.905L92.385 129.335Z" fill="#FCA311"/>
<path d="M111.575 139.405H105.575V115.025H113.975C118.105 115.025 122.765 115.965 122.765 122.715V123.335C122.765 130.085 118.105 131.025 113.975 131.025H111.575V139.405ZM114.285 125.905C115.445 125.905 116.825 125.465 116.825 123.155V122.905C116.825 120.585 115.445 120.155 114.285 120.155H111.575V125.905H114.285Z" fill="#FCA311"/>
<path d="M130.915 139.405H124.985V115.025H133.385C137.515 115.025 142.165 115.965 142.165 122.715V123.335C142.165 130.085 137.515 131.025 133.385 131.025H130.915V139.405ZM133.635 125.905C134.795 125.905 136.165 125.465 136.165 123.155V122.905C136.165 120.585 134.795 120.155 133.635 120.155H130.915V125.905H133.635Z" fill="#FCA311"/>
</svg>
