<svg width="86" height="60" viewBox="0 0 86 60" fill="none" xmlns="http://www.w3.org/2000/svg">
<g clip-path="url(#clip0_35_44)">
<path d="M68.527 26.0506L71.4019 24.3764C71.6114 24.2241 71.7831 24.0251 71.9034 23.7951C72.0237 23.5651 72.0894 23.3103 72.0955 23.0506V21.6236C72.0955 21.1068 71.7823 20.8708 71.4019 21.0955L68.527 22.7697C68.3156 22.9202 68.1426 23.1187 68.0221 23.3491C67.9015 23.5795 67.8369 23.8353 67.8335 24.0955V25.5225C67.8335 26.0281 68.1467 26.2641 68.527 26.0506Z" fill="#CECB5F"/>
<path d="M72.3304 21.3202C72.3304 21.3202 71.9389 20.9944 71.7487 21.0169C71.5585 21.0393 71.9836 21.6348 71.9836 21.6348L72.3304 21.3202Z" fill="#CECB5F"/>
<path d="M68.6501 26.3539C68.6501 26.3539 68.1355 26.2753 68.0013 26.0281C67.9341 25.8624 67.9341 25.6769 68.0013 25.5112C68.0013 25.5112 68.6725 25.8371 68.6501 26.3539Z" fill="#EA990A"/>
<path d="M68.9633 26.2753L71.8382 24.6011C72.0477 24.4488 72.2193 24.2498 72.3396 24.0198C72.46 23.7898 72.5257 23.535 72.5317 23.2753V21.8483C72.5317 21.3315 72.2185 21.0955 71.8382 21.3202L68.9633 22.9944C68.7519 23.1449 68.5789 23.3434 68.4583 23.5738C68.3378 23.8042 68.2732 24.06 68.2698 24.3202V25.7135C68.2698 26.2528 68.583 26.4888 68.9633 26.2753Z" fill="#DEEFFF"/>
<path d="M44.3312 49.691L52.8327 44.691C52.3303 43.8273 51.544 43.1663 50.609 42.8218C49.674 42.4774 48.6487 42.4708 47.7094 42.8033C45.7213 43.3086 43.8045 44.0636 42.0044 45.0505L44.3312 49.691Z" fill="#7C6B7C"/>
<path d="M47.7318 48.3764C47.7318 51.7472 49.8012 55.736 52.3405 57.2079C54.8798 58.6798 56.9493 57.118 56.9493 53.7022C56.9493 50.2865 54.8798 46.3427 52.3293 44.8708C49.7789 43.3989 47.7318 44.9719 47.7318 48.3764Z" fill="#282027"/>
<path d="M55.2154 57.5225L52.2399 59.2528L46.6467 46.2191L49.7453 44.4438L55.2154 57.5225Z" fill="#282027"/>
<path d="M44.7451 50.1067C44.7451 53.4775 46.8145 57.4775 49.3538 58.9494C51.8931 60.4213 53.9625 58.8483 53.9625 55.4438C53.9625 52.0393 51.8931 48.0843 49.3426 46.6123C46.7921 45.1404 44.7451 46.7022 44.7451 50.1067Z" fill="#3D333B"/>
<path d="M46.0203 50.8595C46.0444 52.108 46.3607 53.3332 46.9437 54.4361C47.5267 55.539 48.36 56.4885 49.3762 57.2078C51.2107 58.264 52.7321 57.1404 52.7321 54.691C52.7089 53.4424 52.3929 52.2168 51.8098 51.1138C51.2267 50.0108 50.393 49.0614 49.3762 48.3427C47.5193 47.2865 46.0203 48.4101 46.0203 50.8595Z" fill="white"/>
<path d="M47.4857 51.8034C47.4986 52.4385 47.6591 53.0618 47.9543 53.6236C48.2495 54.1854 48.6713 54.6702 49.186 55.0393C50.1145 55.5786 50.8751 55.0393 50.8751 53.7584C50.8648 53.1212 50.7055 52.4954 50.4102 51.9313C50.1148 51.3673 49.6917 50.8809 49.1748 50.5112C48.2576 49.9719 47.4857 50.5449 47.4857 51.8034Z" fill="#3D333B"/>
<path d="M47.7766 51.9607C47.7825 52.4916 47.9133 53.0137 48.1583 53.4842C48.4032 53.9548 48.7553 54.3606 49.186 54.6685C49.9579 55.118 50.5955 54.6685 50.5955 53.5449C50.5865 53.0149 50.4531 52.4945 50.2063 52.026C49.9594 51.5574 49.6061 51.1539 49.1748 50.8483C48.403 50.4326 47.7766 50.9157 47.7766 51.9607Z" fill="#7C6B7C"/>
<path d="M9.03851 29.2303L17.5289 24.2416C17.0319 23.3866 16.2559 22.7304 15.3323 22.3844C14.4088 22.0383 13.3946 22.0236 12.4615 22.3427C10.4734 22.8479 8.55658 23.6029 6.7565 24.5899L9.03851 29.2303Z" fill="#7C6B7C"/>
<path d="M1.97997 11.3652C1.97997 11.3652 12.1707 3.09551 20.2471 1.25281C23.603 0.488766 27.2274 2.16292 30.0239 2.37641L33.0442 5.33147L11.3429 18.7697L2.46097 14.0169C1.64438 13.5337 1.15219 11.8483 1.97997 11.3652Z" fill="#CECB5F"/>
<path d="M70.1155 27.2865C68.1205 29.4332 65.8657 31.3206 63.4037 32.9045C54.2086 39.3876 47.6759 38.9045 47.6759 38.9045L42.5861 29.9157C47.9108 27.4438 55.9313 23.882 59.3655 23.1742C62.7997 22.4663 67.2742 25.2641 70.1155 27.2865Z" fill="#5D80B3"/>
<path d="M62.3299 15.0618L70.865 25.1742C70.865 25.1742 71.469 25.6011 70.1155 27.264C67.3077 25.2416 62.7885 22.5562 59.3655 23.2079C55.9425 23.8596 47.9331 27.4213 42.5861 29.9494L41.1878 27.4775L62.3299 15.0618Z" fill="#45649B"/>
<path d="M62.3299 15.0618C62.3299 15.0618 61.4014 16.4213 55.8195 20.3202C50.629 23.9382 41.2102 27.4438 41.2102 27.4438C37.3416 24.5123 33.3078 21.8075 29.129 19.3427C23.7932 16.3652 14.4638 12.455 14.4638 12.455L30.0239 2.42134C30.0239 2.42134 34.1405 -1.63485 41.2102 2.06178C43.8502 3.44381 48.6379 6.39887 55.3496 10.5C57.833 12.0281 60.3387 13.691 62.3299 15.0618Z" fill="#E2DD71"/>
<path d="M61.6811 16.1966C61.6811 16.1966 57.0164 13.3427 50.3606 9.53372C43.7047 5.72473 35.0354 0.702255 35.0354 0.702255L34.2188 0.960677C34.2188 0.960677 37.8208 3.12922 41.199 5.00563C43.9397 6.52248 61.3343 16.7584 61.3343 16.7584L61.6811 16.1966Z" fill="#B7B146"/>
<path d="M45.1478 25.882C45.1478 25.882 40.4831 23.0169 33.8273 19.2079C27.1714 15.3989 18.5021 10.3764 18.5021 10.3764L17.6967 10.6348C17.6967 10.6348 21.2875 12.8034 24.6657 14.6798C27.4063 16.1966 44.801 26.4438 44.801 26.4438L45.1478 25.882Z" fill="#B7B146"/>
<path d="M16.634 11.3539L12.1595 12.1405L7.61784 14.6461C7.61784 14.6461 16.4774 13.5225 17.3723 13.1067C18.2672 12.691 16.634 11.3539 16.634 11.3539Z" fill="#E2DD71"/>
<path d="M12.4615 27.9607C12.4615 31.3315 14.531 35.3202 17.0702 36.7921C19.6095 38.2641 21.679 36.7023 21.679 33.2978C21.679 29.8933 19.6095 25.9382 17.0591 24.4663C14.5086 22.9944 12.4615 24.5112 12.4615 27.9607Z" fill="#282027"/>
<path d="M19.9227 37.0618L16.9472 38.8034L11.3541 25.7584L14.4527 23.9832L19.9227 37.0618Z" fill="#282027"/>
<path d="M9.45239 29.6573C9.45239 33.0281 11.5218 37.0169 14.0611 38.4888C16.6004 39.9607 18.6699 38.3989 18.6699 34.9832C18.6699 31.5674 16.6004 27.6236 14.0499 26.1517C11.4995 24.6798 9.45239 26.2528 9.45239 29.6573Z" fill="#3D333B"/>
<path d="M10.75 30.4101C10.7741 31.6586 11.0904 32.8838 11.6734 33.9867C12.2564 35.0895 13.0897 36.0391 14.1059 36.7584C15.9404 37.8146 17.4618 36.691 17.4618 34.2416C17.4386 32.9929 17.1226 31.7674 16.5395 30.6644C15.9564 29.5614 15.1227 28.612 14.1059 27.8933C12.2266 26.8371 10.7388 27.9607 10.75 30.4101Z" fill="white"/>
<path d="M12.193 31.3315C12.2034 31.9687 12.3626 32.5945 12.658 33.1586C12.9533 33.7226 13.3765 34.209 13.8933 34.5787C14.8218 35.118 15.5825 34.5787 15.5825 33.2865C15.5722 32.6509 15.4128 32.0266 15.1174 31.4644C14.822 30.9022 14.3988 30.4178 13.8822 30.0506C12.9537 29.5225 12.193 30.0955 12.193 31.3315Z" fill="#3D333B"/>
<path d="M12.4615 31.5112C12.4692 32.0403 12.6009 32.5601 12.8457 33.0286C13.0906 33.497 13.4418 33.901 13.871 34.2079C14.6428 34.6573 15.2804 34.2079 15.2804 33.1404C15.2732 32.6085 15.1407 32.0858 14.8937 31.6152C14.6468 31.1446 14.2925 30.7393 13.8598 30.4326C13.1103 29.9831 12.4615 30.4663 12.4615 31.5112Z" fill="#7C6B7C"/>
<path d="M1.97998 11.3652C3.99351 11.736 5.80567 14.736 9.43002 14.0056C10.448 13.8146 13.5466 12.6348 16.1418 12.8146C18.737 12.9944 20.3478 14.0281 22.7864 15.4775C24.7216 16.6011 31.59 20.5225 36.8587 23.927C39.8007 25.8259 41.8366 26.9607 42.6085 28.2304C43.1342 29.118 45.0135 33.5225 46.8481 36.9494C47.21 37.6386 47.6655 38.2739 48.2016 38.8371L81.5814 32.6348C82.9657 34.2408 84.0155 36.109 84.6689 38.1292C85.1275 39.4775 86.5258 42.8371 85.8658 45.882C85.4464 47.5207 84.6891 49.0526 83.6427 50.3785C82.5963 51.7043 81.2843 52.7946 79.7916 53.5787C67.5986 60.6798 60.7079 59.0506 55.6293 56.2079C55.6293 51.7135 52.8775 46.4663 49.5104 44.5113C46.1433 42.5562 43.4139 44.6236 43.3915 49.118L19.7214 35.3877C19.5648 34.1966 18.9384 30.3539 18.2784 29.2304C16.9696 26.9832 13.6473 23.8371 12.1819 23.9832C7.47243 24.4551 9.43003 29.4214 8.61343 28.9495L6.75651 27.9607C3.06504 25.8259 1.16339 21.5899 0.581701 18.9719C0.246113 17.3764 0.346789 12.4438 1.97998 11.3652Z" fill="#B5B055"/>
<path d="M7.987 27.8371C7.987 22.8371 11.052 20.545 14.7994 22.7135C16.6052 23.8577 18.0973 25.4375 19.1397 27.309C19.7773 27.691 20.4261 28.1068 21.1085 28.545C24.6657 30.7922 39.9909 39.6236 45.64 42.8596C46.3407 42.5261 47.1171 42.3858 47.8895 42.4529C48.662 42.52 49.4029 42.7922 50.0362 43.2416C53.7948 45.4214 56.8486 51.2528 56.871 56.2865L56.3452 55.9832L55.5957 55.5449C55.5957 55.5449 54.8351 55.2079 54.8351 55.1629C54.8351 50.9944 52.5419 46.4326 49.4321 44.6236C48.8684 44.2805 48.2399 44.0586 47.5864 43.9719L47.743 44.0618L45.763 44.4776C44.8457 45.2304 44.32 46.7247 44.3312 48.882V49.0169L43.2126 48.3764C43.1636 46.8742 43.5524 45.3902 44.3312 44.1068L29.1402 35.5787C27.0484 34.4551 21.019 31.6236 21.019 31.6236C21.4406 32.9608 21.652 34.3558 21.6454 35.7584L21.1197 35.4551L20.3702 35.0169C20.3702 35.0169 19.6095 34.6798 19.6095 34.6349C19.5908 32.9339 19.2491 31.2521 18.6028 29.6798L18.3679 29.5337L16.455 26.736L13.871 24.2753C13.4459 24.0056 14.2513 24.4101 15.7279 25.2641C15.2656 24.8319 14.7551 24.4549 14.2066 24.1405C11.0856 22.3427 8.78123 24.1405 8.78123 28.3427C8.78123 28.3427 9.10563 28.4888 9.10563 28.5225C8.75885 28.2753 8.37852 28.0618 7.987 27.8371Z" fill="#E2DD71"/>
<path d="M49.4545 44.5113C52.8104 46.4663 55.551 51.691 55.5734 56.2079C55.4168 56.118 55.2601 56.0393 55.1035 55.9382L54.4324 55.5562C54.4324 55.5562 54.4324 55.4663 54.4324 55.4214C54.4324 51.691 52.1951 47.3427 49.365 45.736C46.5349 44.1292 44.3088 45.8371 44.32 49.5674V49.691L43.3244 49.118C43.358 44.6236 46.0874 42.5674 49.4545 44.5113Z" fill="#A09940"/>
<path d="M28.0104 3.70226C25.975 2.42351 23.536 1.9584 21.1756 2.39889C18.4005 3.22454 15.7783 4.49974 13.4123 6.17417L19.8109 8.75844L28.0104 3.70226Z" fill="#E2DD71"/>
<path d="M14.1506 24.0618C17.5065 26.0056 20.2583 31.2416 20.2807 35.7584L19.8109 35.4888L19.1397 35.0955C19.1397 35.0955 19.1397 35.0169 19.1397 34.9719C19.1397 31.2303 16.9025 26.8933 14.0723 25.2753C11.2422 23.6573 9.01613 25.3764 9.02732 29.118V29.2303L8.03174 28.6573C8.0653 24.1741 10.7836 22.118 14.1506 24.0618Z" fill="#A09940"/>
<path d="M70.865 25.1966C70.865 25.1966 75.0598 28.1742 80.8543 32.0843C83.718 34.0056 84.736 39.4438 78.0018 43.8595C70.1714 49.0281 64.1644 48.4775 59.1642 45.5449C53.7947 42.4101 47.6982 38.9157 47.6982 38.9157C47.6982 38.9157 51.8372 38.9157 60.0814 33.9831C64.0912 31.6096 67.7258 28.6481 70.865 25.1966Z" fill="#CECB5F"/>
<path d="M67.3749 46.2416L52.732 37.8596L50.8416 38.6348C50.8416 38.6348 63.1688 46.4438 67.3749 46.2416Z" fill="#E2DD71"/>
<path d="M70.1938 26.4214C70.1938 26.4214 77.1517 30.9157 79.8252 33.1629C80.5858 33.8229 81.1243 34.7033 81.3667 35.6831C81.609 36.6629 81.5434 37.694 81.1787 38.6348L65.8759 29.5674L70.1938 26.4214Z" fill="#E2DD71"/>
<path d="M44.0291 38.309C44.1714 38.394 44.3369 38.4314 44.5017 38.416C44.6665 38.4007 44.8223 38.3332 44.9466 38.2234C45.0708 38.1135 45.1573 37.9669 45.1934 37.8047C45.2296 37.6424 45.2136 37.4728 45.1478 37.3202C43.7719 34.0618 41.1431 28.1292 40.0133 27.3989C38.5479 26.4438 33.4469 23.3876 27.2274 19.691C22.6186 16.9494 18.5357 14.5674 16.6116 15.1067C15.1 15.849 13.6681 16.7451 12.3385 17.7809C12.162 17.9145 12.0209 18.0895 11.9273 18.2906C11.8337 18.4916 11.7906 18.7126 11.8016 18.9343C11.8126 19.1559 11.8775 19.3715 11.9906 19.5622C12.1037 19.7528 12.2615 19.9128 12.4503 20.0281L44.0291 38.309Z" fill="#3D333B"/>
<path d="M35.315 0.511246C35.315 0.511246 29.0731 3.9382 26.2542 5.80337C22.0817 8.56742 16.4662 11.6461 16.4662 11.6461L10.1012 13.3539C11.8351 12.2978 10.1012 13.3539 13.4571 11.4663C18.2224 8.76967 23.4352 5.44383 24.2854 4.91574C25.404 4.1854 27.7084 2.99438 28.9165 2.3764C30.901 1.32441 33.0782 0.68978 35.315 0.511246Z" fill="#779CC9"/>
<path d="M70.0372 51.6685C69.772 51.0241 69.3144 50.4781 68.7274 50.1058C68.1404 49.7336 67.4529 49.5533 66.7596 49.5899C65.7586 49.6443 64.7547 49.5688 63.7729 49.3652C62.1095 49.1619 60.506 48.6148 59.0635 47.7584C57.8218 47.0168 57.7211 48.2865 57.8554 48.7697C58.1252 49.6518 58.6072 50.4537 59.2589 51.1043C59.9105 51.7549 60.7117 52.2343 61.5916 52.5C64.413 53.2735 67.419 52.9776 70.0372 51.6685Z" fill="white"/>
<path d="M71.9612 47.309C70.8426 47.5562 69.6009 47.8371 68.8179 48.0169L68.6054 47.7809C71.9272 46.9903 75.1002 45.6662 78.0018 43.8596C79.4575 42.8726 80.7107 41.6138 81.6933 40.1517L81.8275 40.6573C81.4162 41.3849 80.9447 42.0765 80.4181 42.7247C78.8632 44.7023 73.8853 46.9045 71.9612 47.309Z" fill="#3D333B"/>
<path d="M72.3192 48.3315L69.6233 48.9382L69.1535 48.4101C70.0148 48.2191 71.1782 47.9607 72.2856 47.6686C74.8439 46.8465 77.2676 45.6501 79.4784 44.118C80.5396 43.3528 81.3933 42.3331 81.9618 41.1517L82.1743 41.927C81.7643 42.5787 81.2963 43.1917 80.776 43.7584C79.0981 45.6236 74.2432 47.927 72.3192 48.3315Z" fill="#3D333B"/>
<path d="M80.2614 46.3427C81.2212 45.6612 82.01 44.7649 82.5658 43.7247C82.5718 44.1048 82.4971 44.4817 82.3467 44.8305C82.1962 45.1792 81.9735 45.4917 81.6933 45.7472C80.7049 46.6455 79.6163 47.426 78.4493 48.073C76.7089 49.032 74.912 49.8838 73.0687 50.6236C72.7345 50.7536 72.3741 50.801 72.0179 50.7619C71.6616 50.7228 71.32 50.5983 71.0216 50.3989C71.6704 50.2528 72.3751 50.0843 73.0687 49.9045C75.6254 49.0736 78.0483 47.8737 80.2614 46.3427Z" fill="#3D333B"/>
<path d="M79.8364 45.1517C80.8302 44.4319 81.6739 43.5234 82.3197 42.4775L82.4763 43.0281C82.4809 43.0541 82.4809 43.0807 82.4763 43.1067C82.0873 43.7516 81.6576 44.3709 81.1899 44.9607C79.635 46.927 74.6571 49.1292 72.7331 49.5337L70.563 50.0169L69.9924 49.3652C70.7867 49.1966 71.7375 48.9831 72.666 48.7359C75.2145 47.8919 77.6293 46.6849 79.8364 45.1517Z" fill="#3D333B"/>
<path d="M81.2011 44.9607C81.6688 44.3709 82.0985 43.7516 82.4875 43.1068C82.541 43.3083 82.5673 43.5161 82.5658 43.7247C82.01 44.7649 81.2211 45.6612 80.2614 46.3427C78.0483 47.8737 75.6254 49.0736 73.0687 49.9045C72.3751 50.0843 71.6704 50.2528 71.0216 50.3989C70.8577 50.2901 70.7074 50.1618 70.5741 50.0169L72.7443 49.5337C74.6683 49.1292 79.6462 46.927 81.2011 44.9607Z" fill="#7C6B7C"/>
<path d="M72.3192 48.3314C74.2432 47.927 79.0981 45.6236 80.776 43.7584C81.2963 43.1917 81.7643 42.5787 82.1743 41.9269L82.3197 42.4775C81.6739 43.5234 80.8302 44.4318 79.8364 45.1517C77.6204 46.675 75.1981 47.8707 72.6436 48.7022C71.7151 48.9494 70.7643 49.1629 69.9701 49.3314L69.6233 48.9382L72.3192 48.3314Z" fill="#7C6B7C"/>
<path d="M79.4784 44.118C77.2676 45.6501 74.8439 46.8465 72.2856 47.6686C71.167 47.9607 70.0484 48.2191 69.1535 48.4101L68.8179 48.0169C69.6009 47.8371 70.7979 47.5562 71.9612 47.309C73.8853 46.9045 78.8632 44.7023 80.4181 42.7247C80.9408 42.0761 81.4086 41.3845 81.8163 40.6573L81.9506 41.1517C81.3852 42.3318 80.5355 43.3514 79.4784 44.118Z" fill="#7C6B7C"/>
<path d="M83.4048 35.2416C83.4048 35.2416 83.539 36.9944 83.5502 38.8933C83.6126 40.0376 83.8154 41.1698 84.1543 42.2641C84.4867 41.0762 84.6893 39.8555 84.7583 38.6236C84.6183 37.3945 84.1506 36.2261 83.4048 35.2416Z" fill="white"/>
<path d="M83.416 49.1966C83.416 49.1966 83.416 45.7023 81.1787 47.2191C79.5627 48.3867 77.8571 49.4236 76.0778 50.3202C74.467 51.0843 73.3036 51.6348 72.8449 52.4887C72.5204 53.4897 72.3617 54.5373 72.3751 55.5899C72.3751 55.5899 73.8965 55.5112 79.0869 52.5562C83.058 50.3427 83.416 49.1966 83.416 49.1966Z" fill="#3D333B"/>
<path d="M81.8163 47.7584V49.8483C81.8163 49.8483 80.2055 50.9719 78.9191 51.8258C78.0801 52.3764 74.8809 53.8483 74.8809 53.8483V51.8258C74.8809 51.8258 77.1181 50.8034 78.9191 49.7697C79.9402 49.1835 80.9095 48.5106 81.8163 47.7584Z" fill="white"/>
<path d="M85.9776 44.5562C86.1242 46.3764 85.7061 48.1977 84.7807 49.7697C81.7905 53.737 77.5526 56.5722 72.7555 57.8146C65.2159 59.9831 60.4506 59.2977 57.6204 58.0393C54.7903 56.7809 54.5107 56.9157 54.4324 55.5562C54.3541 54.1966 55.551 55.1404 55.551 55.1404C55.551 55.1404 56.7815 57.2079 62.6319 57.5674C66.1543 57.6794 69.6715 57.2164 73.0463 56.1966C76.1973 55.0947 79.1455 53.4774 81.7716 51.4101C82.9185 50.6348 83.8871 49.6221 84.6125 48.44C85.338 47.2579 85.8034 45.9337 85.9776 44.5562Z" fill="#A09940"/>
<path d="M68.1915 54.5337C68.2652 54.5354 68.3372 54.5565 68.4005 54.5947C68.4637 54.6328 68.5159 54.6869 68.552 54.7515C68.5881 54.8161 68.6069 54.8891 68.6064 54.9632C68.606 55.0373 68.5863 55.11 68.5494 55.1741C68.3554 55.5529 68.1024 55.8981 67.7999 56.1966C66.8379 57.0955 62.4305 57.1629 61.9383 56.7022C61.8146 56.5213 61.743 56.3096 61.7315 56.0904C61.72 55.8712 61.769 55.653 61.8732 55.4601C61.9774 55.2671 62.1326 55.1068 62.3218 54.9968C62.5109 54.8869 62.7266 54.8316 62.9451 54.8371C64.5671 54.927 66.7932 54.5112 68.1915 54.5337Z" fill="#3D333B"/>
<path d="M85.6868 41.6461C85.6868 41.6461 85.3624 43.1517 85.1387 43.7472C84.9149 44.3427 85.9776 44.5562 85.9776 44.5562C85.9716 43.5791 85.8742 42.6048 85.6868 41.6461Z" fill="#3D333B"/>
<path d="M76.2903 46.9045C76.4134 47.309 77.1852 47.3427 77.9906 46.9719C78.796 46.6011 79.3553 45.9607 79.2211 45.5562C79.0869 45.1517 78.3262 45.1067 77.5208 45.4775C76.7154 45.8483 76.1561 46.4887 76.2903 46.9045Z" fill="white"/>
<path d="M71.7487 25.8034C71.7487 25.8034 71.2229 27.0281 68.3033 29.3202C65.3837 31.6124 59.3543 35.8932 55.3385 37.5112C51.3226 39.1292 48.7386 40.1404 47.7206 38.9157C46.7027 37.691 41.5682 27.2528 41.5682 27.2528L42.161 27.0056C42.161 27.0056 47.6311 37.7022 48.3023 38.2416C48.9735 38.7809 54.0744 36.8932 63.1129 30.9719C66.5471 28.7247 70.9433 25.1517 70.9433 25.1517L71.7487 25.8034Z" fill="#3D333B"/>
<path d="M62.3299 15.0618L62.7326 15.5449C60.5172 17.5921 58.1081 19.4172 55.5398 20.9944C51.5351 23.3989 41.9373 27.736 41.9373 27.736L41.5458 27.2079C46.2751 25.2049 50.8579 22.8695 55.2601 20.2191C57.7165 18.6424 60.0773 16.9203 62.3299 15.0618Z" fill="#3D333B"/>
<path d="M19.5312 33.9382L43.783 47.9944V49.3652L43.4251 49.1517L19.2292 35.1292L19.5312 33.9382Z" fill="#A09940"/>
<path d="M30.8517 22.6685V29.7247L41.2102 35.7359C41.2102 35.7359 41.2102 33.0505 41.2102 31.9607C41.1636 31.113 40.9467 30.2837 40.5726 29.5225C40.0592 28.5979 39.3152 27.8235 38.4136 27.2753C35.6282 25.5112 30.8517 22.6685 30.8517 22.6685Z" fill="#45649B"/>
<path d="M29.4982 22.0393V29.0843L18.5692 22.6348C18.5692 22.6348 18.5692 19.9382 18.6923 19.1292C18.8153 18.3202 19.2068 16.2865 19.2068 16.2865L29.4982 22.0393Z" fill="#45649B"/>
<path d="M18.2112 16.0393C18.2112 16.0393 17.8085 18.0393 17.6967 18.7584C17.5848 19.4775 17.5289 22.1292 17.5289 22.1292C17.5289 22.1292 15.0455 20.6236 14.475 20.3315C13.9045 20.0393 13.4459 19.2079 14.9449 18.0843C15.9964 17.3443 17.0867 16.6617 18.2112 16.0393Z" fill="#45649B"/>
<path d="M0.9732 13.5562L1.10745 13.6461C1.30868 13.7778 1.47429 13.9577 1.58945 14.1694C1.70462 14.3812 1.76577 14.6183 1.76743 14.8596V16.4663C1.78157 17.4401 1.85629 18.412 1.99115 19.3764L0.503379 18.4438C0.049966 17.3824 -0.0935756 16.2133 0.0894922 15.073C0.122563 14.7721 0.218344 14.4815 0.3706 14.2201C0.522855 13.9588 0.728166 13.7326 0.9732 13.5562Z" fill="#3D333B"/>
<path d="M9.44122 23.5562C6.70742 22.2867 4.0876 20.783 1.61084 19.0618C1.13158 18.6576 0.682894 18.2182 0.268487 17.7472C0.268487 17.7472 -0.134227 18.3427 1.3088 20.3315C3.47023 22.2579 5.86422 23.9038 8.43445 25.2303C9.10562 23.5674 9.44122 23.5562 9.44122 23.5562Z" fill="#E2DD71"/>
<path d="M41.4339 41.4438L44.32 39.7696C44.53 39.6186 44.7014 39.4197 44.82 39.1892C44.9386 38.9587 45.0011 38.7033 45.0023 38.4438V37.0168C45.0023 36.5112 44.7003 36.2753 44.32 36.4887L41.4339 38.1629C41.2244 38.3153 41.0528 38.5142 40.9325 38.7442C40.8122 38.9742 40.7464 39.229 40.7404 39.4887V40.9157C40.7404 41.4438 41.0536 41.691 41.4339 41.4438Z" fill="#CECB5F"/>
<path d="M45.2484 36.7359C45.2484 36.7359 44.8569 36.4101 44.6667 36.4326C44.4766 36.455 44.9017 37.0505 44.9017 37.0505L45.2484 36.7359Z" fill="#CECB5F"/>
<path d="M41.5458 41.7697C41.5458 41.7697 41.0424 41.691 40.9082 41.4438C40.8731 41.3622 40.855 41.2743 40.855 41.1854C40.855 41.0965 40.8731 41.0085 40.9082 40.9269C40.9082 40.9269 41.5458 41.264 41.5458 41.7697Z" fill="#CECB5F"/>
<path d="M41.8702 41.691L44.7451 40.0168C44.9565 39.8664 45.1295 39.6678 45.25 39.4374C45.3706 39.207 45.4352 38.9513 45.4386 38.691V37.264C45.4386 36.7584 45.1254 36.5225 44.7451 36.7359L41.8702 38.4101C41.6607 38.5625 41.489 38.7614 41.3687 38.9914C41.2484 39.2214 41.1827 39.4762 41.1766 39.7359V41.1629C41.1766 41.6798 41.5458 41.9157 41.8702 41.691Z" fill="#DEEFFF"/>
</g>
<defs>
<clipPath id="clip0_35_44">
<rect width="86" height="59" fill="white" transform="translate(0 0.5)"/>
</clipPath>
</defs>
</svg>
