<svg width="18" height="24" viewBox="0 0 18 24" fill="none" xmlns="http://www.w3.org/2000/svg">
<path d="M8.80001 7.62939e-06C3.94766 7.62939e-06 0 3.89917 0 8.69186C0 14.6397 7.87515 23.3716 8.21044 23.7404C8.52537 24.0868 9.07522 24.0862 9.38958 23.7404C9.72487 23.3716 17.6 14.6397 17.6 8.69186C17.5999 3.89917 13.6523 7.62939e-06 8.80001 7.62939e-06ZM8.80001 13.065C6.35867 13.065 4.37255 11.1032 4.37255 8.69186C4.37255 6.28051 6.35872 4.31879 8.80001 4.31879C11.2413 4.31879 13.2274 6.28056 13.2274 8.69191C13.2274 11.1033 11.2413 13.065 8.80001 13.065Z" fill="#FB730B"/>
</svg>
