<svg width="24" height="38" viewBox="0 0 24 38" fill="none" xmlns="http://www.w3.org/2000/svg">
<path d="M12.9898 1.21019C12.7273 0.947734 12.3712 0.800293 12 0.800293C11.6288 0.800293 11.2727 0.947734 11.0102 1.21019L1.2102 11.0102C0.955175 11.2742 0.814063 11.6279 0.817253 11.995C0.820442 12.362 0.967679 12.7132 1.22725 12.9727C1.48682 13.2323 1.83796 13.3795 2.20503 13.3827C2.57211 13.3859 2.92575 13.2448 3.1898 12.9898L3.6 12.5796V21.8C3.6 22.1713 3.7475 22.5274 4.01005 22.7899C4.2726 23.0525 4.62869 23.2 5 23.2H7.8C8.1713 23.2 8.52739 23.0525 8.78995 22.7899C9.0525 22.5274 9.2 22.1713 9.2 21.8V19C9.2 18.6287 9.3475 18.2726 9.61005 18.01C9.8726 17.7475 10.2287 17.6 10.6 17.6H13.4C13.7713 17.6 14.1274 17.7475 14.3899 18.01C14.6525 18.2726 14.8 18.6287 14.8 19V21.8C14.8 22.1713 14.9475 22.5274 15.21 22.7899C15.4726 23.0525 15.8287 23.2 16.2 23.2H19C19.3713 23.2 19.7274 23.0525 19.9899 22.7899C20.2525 22.5274 20.4 22.1713 20.4 21.8V12.5796L20.8102 12.9898C21.0742 13.2448 21.4279 13.3859 21.795 13.3827C22.162 13.3795 22.5132 13.2323 22.7727 12.9727C23.0323 12.7132 23.1796 12.362 23.1827 11.995C23.1859 11.6279 23.0448 11.2742 22.7898 11.0102L12.9898 1.21019Z" fill="#FCA311"/>
<circle cx="11" cy="36" r="2" fill="#FCA311"/>
</svg>
