<svg width="26" height="25" viewBox="0 0 26 25" fill="none" xmlns="http://www.w3.org/2000/svg">
<path fill-rule="evenodd" clip-rule="evenodd" d="M8.85609 1.78735C7.97554 1.78735 7.26172 2.50117 7.26172 3.38172C7.26172 4.26226 7.97554 4.97608 8.85609 4.97608C9.73663 4.97608 10.4504 4.26226 10.4504 3.38172C10.4504 2.50117 9.73663 1.78735 8.85609 1.78735ZM5.59546 2.48904C5.98699 1.05561 7.29849 0.00195312 8.85609 0.00195312C10.4137 0.00195312 11.7252 1.0556 12.1167 2.48903L20.4605 2.48914C23.2426 2.48914 25.4978 4.74447 25.4978 7.52652C25.4978 10.3086 23.2426 12.5639 20.4605 12.5639C20.4605 12.5639 20.4605 12.5639 20.4605 12.5639L18.7477 12.564C18.3562 13.9974 17.0447 15.0511 15.4871 15.0511C13.9295 15.0511 12.618 13.9975 12.2265 12.5641L5.95409 12.5643C3.92916 12.5643 2.2876 14.2058 2.2876 16.2307C2.2876 18.2556 3.92902 19.8971 5.95383 19.8972C5.95375 19.8972 5.95391 19.8972 5.95383 19.8972L7.25227 19.8969C7.64374 18.4633 8.95528 17.4096 10.5129 17.4096C12.0704 17.4096 13.382 18.4629 13.7736 19.8963H22.4499L20.658 18.1045C20.3094 17.7559 20.3094 17.1906 20.658 16.842C21.0066 16.4934 21.5719 16.4934 21.9205 16.842L25.2363 20.1578C25.4037 20.3252 25.4978 20.5523 25.4978 20.789C25.4978 21.0258 25.4037 21.2529 25.2363 21.4203L21.9205 24.7359C21.5718 25.0845 21.0066 25.0845 20.658 24.7359C20.3094 24.3873 20.3094 23.822 20.658 23.4734L22.4499 21.6817H13.7736C13.382 23.1151 12.0707 24.1691 10.5129 24.1691C8.95542 24.1691 7.64398 23.1156 7.25238 21.6823L5.95429 21.6826C2.94331 21.6826 0.502197 19.2417 0.502197 16.2307C0.502197 13.2198 2.94307 10.7789 5.95403 10.7789C5.95402 10.7789 5.95404 10.7789 5.95403 10.7789L12.2264 10.7787C12.618 9.34522 13.9295 8.29157 15.4871 8.29157C17.0446 8.29157 18.3561 9.34519 18.7477 10.7786L20.4604 10.7785C22.2565 10.7785 23.7124 9.32258 23.7124 7.52652C23.7124 5.73049 22.2565 4.27454 20.4605 4.27454L12.1167 4.27443C11.7252 5.70784 10.4137 6.76148 8.85609 6.76148C7.29851 6.76148 5.98702 5.70785 5.59547 4.27444L1.39492 4.27454C0.901895 4.27455 0.50221 3.87489 0.502197 3.38186C0.502185 2.88884 0.90185 2.48915 1.39488 2.48914L5.59546 2.48904ZM15.4871 10.077C14.6065 10.077 13.8927 10.7908 13.8927 11.6713C13.8927 12.5519 14.6065 13.2657 15.4871 13.2657C16.3676 13.2657 17.0814 12.5519 17.0814 11.6713C17.0814 10.7908 16.3676 10.077 15.4871 10.077ZM10.5129 19.195C9.63239 19.195 8.91858 19.9088 8.91858 20.7894C8.91858 21.6699 9.6324 22.3837 10.5129 22.3837C11.3933 22.3837 12.1073 21.6697 12.1073 20.789C12.1073 19.9086 11.3936 19.195 10.5129 19.195Z" fill="#FCA311"/>
</svg>
