<svg width="28" height="28" viewBox="0 0 28 28" fill="none" xmlns="http://www.w3.org/2000/svg">
<path d="M14 22.75C18.8325 22.75 22.75 18.8325 22.75 14C22.75 9.16751 18.8325 5.25 14 5.25C9.16751 5.25 5.25 9.16751 5.25 14C5.25 18.8325 9.16751 22.75 14 22.75Z" stroke="#FB730B" stroke-width="2" stroke-linecap="round" stroke-linejoin="round"/>
<path d="M14 17.5C15.933 17.5 17.5 15.933 17.5 14C17.5 12.067 15.933 10.5 14 10.5C12.067 10.5 10.5 12.067 10.5 14C10.5 15.933 12.067 17.5 14 17.5Z" fill="white" stroke="#5491F5" stroke-width="2" stroke-linecap="round" stroke-linejoin="round"/>
<path d="M14 4.66667V2.33333" stroke="#FB730B" stroke-width="2" stroke-linecap="round" stroke-linejoin="round"/>
<path d="M4.66668 14H2.33334" stroke="#FB730B" stroke-width="2" stroke-linecap="round" stroke-linejoin="round"/>
<path d="M14 23.3333V25.6667" stroke="#FB730B" stroke-width="2" stroke-linecap="round" stroke-linejoin="round"/>
<path d="M23.3333 14H25.6667" stroke="#FB730B" stroke-width="2" stroke-linecap="round" stroke-linejoin="round"/>
</svg>
