<svg width="14" height="12" viewBox="0 0 14 12" fill="none" xmlns="http://www.w3.org/2000/svg">
<path d="M5.5 8.5L3 3L0.5 8.5M5.5 8.5C5.5 9.163 5.23661 9.7989 4.76777 10.2678C4.29893 10.7366 3.66304 11 3 11C2.33696 11 1.70107 10.7366 1.23223 10.2678C0.763392 9.7989 0.5 9.163 0.5 8.5M5.5 8.5H0.5" stroke="#FB730B" stroke-linecap="round" stroke-linejoin="round"/>
<path d="M13.5 8.5L11 3L8.5 8.5M13.5 8.5C13.5 9.163 13.2366 9.7989 12.7678 10.2678C12.2989 10.7366 11.663 11 11 11C10.337 11 9.70107 10.7366 9.23223 10.2678C8.76339 9.7989 8.5 9.163 8.5 8.5M13.5 8.5H8.5" stroke="#FB730B" stroke-linecap="round" stroke-linejoin="round"/>
<path d="M1.5 3H12.5" stroke="#FB730B" stroke-linecap="round" stroke-linejoin="round"/>
<path d="M7 3V1" stroke="#FB730B" stroke-linecap="round" stroke-linejoin="round"/>
</svg>
