<svg width="22" height="22" viewBox="0 0 22 22" fill="none" xmlns="http://www.w3.org/2000/svg">
<path d="M2.3501 2.35007C1.91252 2.78766 1.66669 3.38115 1.66669 3.99999V6.33332C1.66669 6.95216 1.91252 7.54565 2.3501 7.98324C2.78769 8.42082 3.38118 8.66666 4.00002 8.66666H6.33335C6.95219 8.66666 7.54568 8.42082 7.98327 7.98324C8.42085 7.54565 8.66669 6.95216 8.66669 6.33332V3.99999C8.66669 3.38115 8.42085 2.78766 7.98327 2.35007C7.54568 1.91249 6.95219 1.66666 6.33335 1.66666H4.00002C3.38118 1.66666 2.78769 1.91249 2.3501 2.35007Z" stroke="#BDC6D4" stroke-width="2" stroke-linecap="round" stroke-linejoin="round"/>
<path d="M14.0168 2.35007C13.5792 2.78766 13.3334 3.38115 13.3334 3.99999V6.33332C13.3334 6.95216 13.5792 7.54565 14.0168 7.98324C14.4544 8.42082 15.0478 8.66666 15.6667 8.66666H18C18.6189 8.66666 19.2124 8.42082 19.6499 7.98324C20.0875 7.54565 20.3334 6.95216 20.3334 6.33332V3.99999C20.3334 3.38115 20.0875 2.78766 19.6499 2.35007C19.2124 1.91249 18.6189 1.66666 18 1.66666H15.6667C15.0478 1.66666 14.4544 1.91249 14.0168 2.35007Z" stroke="#BDC6D4" stroke-width="2" stroke-linecap="round" stroke-linejoin="round"/>
<path d="M2.3501 14.0167C1.91252 14.4543 1.66669 15.0478 1.66669 15.6667V18C1.66669 18.6188 1.91252 19.2123 2.3501 19.6499C2.78769 20.0875 3.38118 20.3333 4.00002 20.3333H6.33335C6.95219 20.3333 7.54568 20.0875 7.98327 19.6499C8.42085 19.2123 8.66669 18.6188 8.66669 18V15.6667C8.66669 15.0478 8.42085 14.4543 7.98327 14.0167C7.54568 13.5792 6.95219 13.3333 6.33335 13.3333H4.00002C3.38118 13.3333 2.78769 13.5792 2.3501 14.0167Z" stroke="#BDC6D4" stroke-width="2" stroke-linecap="round" stroke-linejoin="round"/>
<path d="M14.0168 14.0167C13.5792 14.4543 13.3334 15.0478 13.3334 15.6667V18C13.3334 18.6188 13.5792 19.2123 14.0168 19.6499C14.4544 20.0875 15.0478 20.3333 15.6667 20.3333H18C18.6189 20.3333 19.2124 20.0875 19.6499 19.6499C20.0875 19.2123 20.3334 18.6188 20.3334 18V15.6667C20.3334 15.0478 20.0875 14.4543 19.6499 14.0167C19.2124 13.5792 18.6189 13.3333 18 13.3333H15.6667C15.0478 13.3333 14.4544 13.5792 14.0168 14.0167Z" stroke="#BDC6D4" stroke-width="2" stroke-linecap="round" stroke-linejoin="round"/>
</svg>
