<svg width="20" height="36" viewBox="0 0 20 36" fill="none" xmlns="http://www.w3.org/2000/svg">
<path d="M3.00001 0.200012C2.25741 0.200012 1.54521 0.495011 1.02011 1.02011C0.495011 1.54521 0.200012 2.25741 0.200012 3.00001V5.80001C0.200012 6.54262 0.495011 7.25481 1.02011 7.77991C1.54521 8.30501 2.25741 8.60001 3.00001 8.60001H5.80001C6.54262 8.60001 7.25481 8.30501 7.77991 7.77991C8.30501 7.25481 8.60001 6.54262 8.60001 5.80001V3.00001C8.60001 2.25741 8.30501 1.54521 7.77991 1.02011C7.25481 0.495011 6.54262 0.200012 5.80001 0.200012H3.00001ZM3.00001 11.4C2.25741 11.4 1.54521 11.695 1.02011 12.2201C0.495011 12.7452 0.200012 13.4574 0.200012 14.2V17C0.200012 17.7426 0.495011 18.4548 1.02011 18.9799C1.54521 19.505 2.25741 19.8 3.00001 19.8H5.80001C6.54262 19.8 7.25481 19.505 7.77991 18.9799C8.30501 18.4548 8.60001 17.7426 8.60001 17V14.2C8.60001 13.4574 8.30501 12.7452 7.77991 12.2201C7.25481 11.695 6.54262 11.4 5.80001 11.4H3.00001ZM11.4 3.00001C11.4 2.25741 11.695 1.54521 12.2201 1.02011C12.7452 0.495011 13.4574 0.200012 14.2 0.200012H17C17.7426 0.200012 18.4548 0.495011 18.9799 1.02011C19.505 1.54521 19.8 2.25741 19.8 3.00001V5.80001C19.8 6.54262 19.505 7.25481 18.9799 7.77991C18.4548 8.30501 17.7426 8.60001 17 8.60001H14.2C13.4574 8.60001 12.7452 8.30501 12.2201 7.77991C11.695 7.25481 11.4 6.54262 11.4 5.80001V3.00001ZM11.4 14.2C11.4 13.4574 11.695 12.7452 12.2201 12.2201C12.7452 11.695 13.4574 11.4 14.2 11.4H17C17.7426 11.4 18.4548 11.695 18.9799 12.2201C19.505 12.7452 19.8 13.4574 19.8 14.2V17C19.8 17.7426 19.505 18.4548 18.9799 18.9799C18.4548 19.505 17.7426 19.8 17 19.8H14.2C13.4574 19.8 12.7452 19.505 12.2201 18.9799C11.695 18.4548 11.4 17.7426 11.4 17V14.2Z" fill="#FCA311"/>
<circle cx="9" cy="34" r="2" fill="#FCA311"/>
</svg>
