<svg width="24" height="38" viewBox="0 0 24 38" fill="none" xmlns="http://www.w3.org/2000/svg">
<path fill-rule="evenodd" clip-rule="evenodd" d="M14.086 2.438C13.554 0.254003 10.446 0.254003 9.914 2.438C9.83458 2.76618 9.67879 3.07098 9.45932 3.32758C9.23984 3.58418 8.96289 3.78534 8.65099 3.91468C8.33909 4.04403 8.00105 4.0979 7.6644 4.07193C7.32774 4.04595 7.00197 3.94086 6.7136 3.7652C4.7928 2.5948 2.5948 4.7928 3.7652 6.7136C4.5212 7.954 3.8506 9.5724 2.4394 9.9154C0.254004 10.446 0.254004 13.5554 2.4394 14.0846C2.76767 14.1641 3.07252 14.3201 3.32912 14.5397C3.58572 14.7593 3.78682 15.0365 3.91604 15.3486C4.04526 15.6606 4.09895 15.9988 4.07274 16.3355C4.04653 16.6723 3.94116 16.9981 3.7652 17.2864C2.5948 19.2072 4.7928 21.4052 6.7136 20.2348C7.00192 20.0588 7.32772 19.9535 7.66446 19.9273C8.00121 19.9011 8.33939 19.9547 8.65146 20.084C8.96352 20.2132 9.24066 20.4143 9.4603 20.6709C9.67994 20.9275 9.83588 21.2323 9.9154 21.5606C10.446 23.746 13.5554 23.746 14.0846 21.5606C14.1644 21.2325 14.3205 20.9279 14.5402 20.6714C14.7599 20.415 15.037 20.214 15.3489 20.0849C15.6609 19.9557 15.999 19.9019 16.3356 19.928C16.6723 19.954 16.998 20.0592 17.2864 20.2348C19.2072 21.4052 21.4052 19.2072 20.2348 17.2864C20.0592 16.998 19.954 16.6723 19.928 16.3356C19.9019 15.9989 19.9557 15.6609 20.0849 15.3489C20.2141 15.037 20.415 14.7599 20.6714 14.5402C20.9279 14.3205 21.2325 14.1644 21.5606 14.0846C23.746 13.554 23.746 10.4446 21.5606 9.9154C21.2323 9.83587 20.9275 9.67994 20.6709 9.4603C20.4143 9.24066 20.2132 8.96352 20.084 8.65145C19.9547 8.33938 19.9011 8.00121 19.9273 7.66446C19.9535 7.32771 20.0589 7.00192 20.2348 6.7136C21.4052 4.7928 19.2072 2.5948 17.2864 3.7652C16.9981 3.94116 16.6723 4.04653 16.3355 4.07274C15.9988 4.09895 15.6606 4.04526 15.3486 3.91604C15.0365 3.78682 14.7593 3.58572 14.5397 3.32912C14.3201 3.07252 14.1641 2.76767 14.0846 2.4394L14.086 2.438ZM12 16.2C13.1139 16.2 14.1822 15.7575 14.9699 14.9699C15.7575 14.1822 16.2 13.1139 16.2 12C16.2 10.8861 15.7575 9.81781 14.9699 9.03015C14.1822 8.2425 13.1139 7.8 12 7.8C10.8861 7.8 9.81781 8.2425 9.03016 9.03015C8.2425 9.81781 7.8 10.8861 7.8 12C7.8 13.1139 8.2425 14.1822 9.03016 14.9699C9.81781 15.7575 10.8861 16.2 12 16.2Z" fill="#FCA311"/>
<circle cx="11" cy="36" r="2" fill="#FCA311"/>
</svg>
