<svg width="28" height="28" viewBox="0 0 28 28" fill="none" xmlns="http://www.w3.org/2000/svg">
<path d="M15.9542 5.0365C15.4572 2.98783 12.5428 2.98783 12.0458 5.0365C11.7238 6.36067 10.2072 6.98833 9.04517 6.279C7.24383 5.18233 5.1835 7.24383 6.28017 9.044C6.44502 9.31438 6.5437 9.61986 6.56818 9.93558C6.59266 10.2513 6.54224 10.5683 6.42104 10.8609C6.29983 11.1535 6.11126 11.4133 5.87067 11.6192C5.63008 11.8251 5.34427 11.9713 5.0365 12.0458C2.98783 12.5428 2.98783 15.4572 5.0365 15.9542C5.34399 16.0289 5.6295 16.1752 5.86982 16.3811C6.11014 16.587 6.29848 16.8467 6.41955 17.1391C6.54062 17.4314 6.59099 17.7483 6.56656 18.0638C6.54214 18.3793 6.44362 18.6846 6.279 18.9548C5.18233 20.7562 7.24383 22.8165 9.044 21.7198C9.31438 21.555 9.61986 21.4563 9.93558 21.4318C10.2513 21.4073 10.5683 21.4578 10.8609 21.579C11.1535 21.7002 11.4133 21.8887 11.6192 22.1293C11.8251 22.3699 11.9713 22.6557 12.0458 22.9635C12.5428 25.0122 15.4572 25.0122 15.9542 22.9635C16.0289 22.656 16.1752 22.3705 16.3811 22.1302C16.587 21.8899 16.8467 21.7015 17.1391 21.5804C17.4314 21.4594 17.7483 21.409 18.0638 21.4334C18.3793 21.4579 18.6846 21.5564 18.9548 21.721C20.7562 22.8177 22.8165 20.7562 21.7198 18.956C21.555 18.6856 21.4563 18.3801 21.4318 18.0644C21.4073 17.7487 21.4578 17.4317 21.579 17.1391C21.7002 16.8465 21.8887 16.5867 22.1293 16.3808C22.3699 16.1749 22.6557 16.0287 22.9635 15.9542C25.0122 15.4572 25.0122 12.5428 22.9635 12.0458C22.656 11.9711 22.3705 11.8248 22.1302 11.6189C21.8899 11.413 21.7015 11.1533 21.5804 10.8609C21.4594 10.5686 21.409 10.2517 21.4334 9.93624C21.4579 9.62073 21.5564 9.31543 21.721 9.04517C22.8177 7.24383 20.7562 5.1835 18.956 6.28017C18.6856 6.44502 18.3801 6.5437 18.0644 6.56818C17.7487 6.59266 17.4317 6.54224 17.1391 6.42104C16.8465 6.29983 16.5867 6.11126 16.3808 5.87067C16.1749 5.63008 16.0287 5.34427 15.9542 5.0365Z" stroke="#BDC6D4" stroke-width="2" stroke-linecap="round" stroke-linejoin="round"/>
<path d="M16.4749 16.4749C17.1313 15.8185 17.5 14.9283 17.5 14C17.5 13.0717 17.1313 12.1815 16.4749 11.5251C15.8185 10.8687 14.9283 10.5 14 10.5C13.0717 10.5 12.1815 10.8687 11.5251 11.5251C10.8687 12.1815 10.5 13.0717 10.5 14C10.5 14.9283 10.8687 15.8185 11.5251 16.4749C12.1815 17.1313 13.0717 17.5 14 17.5C14.9283 17.5 15.8185 17.1313 16.4749 16.4749Z" stroke="#BDC6D4" stroke-width="2" stroke-linecap="round" stroke-linejoin="round"/>
</svg>
