<svg width="353" height="259" viewBox="0 0 353 259" fill="none" xmlns="http://www.w3.org/2000/svg">
<g clip-path="url(#clip0_305_6121)">
<path d="M104.071 0.471734C158.731 -3.37016 216.039 16.6374 207.618 45.6374C199.197 74.6375 252.654 35.3364 273.989 45.799C289.177 53.2437 283.106 75.9057 290.455 85.0354C307.303 105.972 324.533 79.6087 345.977 95.427C367.42 111.245 334.966 258.38 312.748 259H28.6804C28.6804 259 -23.4405 222.245 12.8465 191.264C37.3777 170.315 19.7262 155.104 17.0587 145.514C13.9888 134.502 6.84743 115.271 37.9901 101.159C69.1327 87.0469 61.0946 56.3392 60.3271 49.9802C59.5597 43.6212 58.2477 5.80644 104.071 0.471734Z" fill="#F2F1F1"/>
<path d="M243.475 43.3837H227.953C227.688 43.3841 227.426 43.4366 227.182 43.5383C226.938 43.6399 226.716 43.7887 226.529 43.9761C226.342 44.1634 226.194 44.3858 226.093 44.6304C225.993 44.875 225.941 45.137 225.941 45.4016V52.9238C225.941 53.1885 225.992 53.4508 226.093 53.6955C226.194 53.9403 226.342 54.1628 226.529 54.3504C226.715 54.5379 226.937 54.6868 227.182 54.7886C227.426 54.8903 227.688 54.9429 227.953 54.9433H236.634C237.66 56.378 239.518 58.9468 239.681 58.9468C239.844 58.9468 239.539 56.5234 239.331 54.9433H243.475C243.74 54.9429 244.002 54.8903 244.246 54.7886C244.49 54.6868 244.712 54.5379 244.899 54.3504C245.086 54.1628 245.234 53.9403 245.335 53.6955C245.436 53.4508 245.487 53.1885 245.486 52.9238V45.4016C245.487 45.137 245.435 44.875 245.334 44.6304C245.233 44.3858 245.085 44.1634 244.899 43.9761C244.712 43.7887 244.49 43.6399 244.246 43.5383C244.001 43.4366 243.739 43.3841 243.475 43.3837Z" fill="#CDDFFA"/>
<path d="M233.59 50.8995C233.59 51.5861 234.49 52.1435 235.598 52.1435C236.707 52.1435 237.607 51.5861 237.607 50.8995C237.607 50.2128 236.708 49.6571 235.598 49.6571C234.488 49.6571 233.59 50.2128 233.59 50.8995Z" fill="#ADAEB5"/>
<path d="M235.597 24.4763C237.444 24.4729 239.248 25.0349 240.766 26.0868C242.285 27.1387 243.445 28.6302 244.091 30.3607C244.736 32.0913 244.837 33.9781 244.379 35.7675C243.921 37.5569 242.926 39.1632 241.528 40.3706C241.52 40.3706 240.113 41.899 239.88 43.4919L239.838 44.4613C239.825 44.781 239.7 45.0858 239.484 45.3224C239.465 45.3434 239.445 45.3644 239.424 45.3838H231.769L231.709 45.3224C231.494 45.0855 231.369 44.7808 231.356 44.4613L231.313 43.4919C231.081 41.899 229.674 40.3787 229.667 40.3706C228.269 39.1633 227.274 37.5571 226.816 35.7679C226.358 33.9786 226.459 32.092 227.104 30.3615C227.75 28.631 228.909 27.1395 230.428 26.0875C231.946 25.0354 233.75 24.4732 235.597 24.4763Z" fill="#F7CC7F"/>
<path d="M235.598 51.04C234.578 51.04 233.6 50.6347 232.878 49.9133C232.157 49.1919 231.751 48.2135 231.751 47.1933V45.3903H239.445V47.1933C239.445 48.2135 239.04 49.1919 238.319 49.9133C237.597 50.6347 236.619 51.04 235.598 51.04Z" fill="#544C60"/>
<path opacity="0.3" d="M233.327 40.4514C235.008 40.4526 236.656 39.9861 238.087 39.1042C239.518 38.2223 240.676 36.9596 241.43 35.4574C242.185 33.9553 242.506 32.2729 242.359 30.5984C242.212 28.9238 241.602 27.3233 240.597 25.9756C241.764 26.745 242.737 27.7742 243.439 28.9824C244.141 30.1907 244.554 31.5452 244.645 32.9398C244.736 34.3343 244.502 35.731 243.963 37.0202C243.424 38.3095 242.593 39.4562 241.536 40.3706C241.528 40.3706 240.121 41.899 239.888 43.4919L239.846 44.4613C239.833 44.781 239.708 45.0859 239.492 45.3224C239.473 45.3434 239.453 45.3644 239.432 45.3838H231.777L231.717 45.3224C231.503 45.0855 231.377 44.7808 231.364 44.4613L231.322 43.4919C231.089 41.899 229.682 40.3787 229.675 40.3706C229.191 39.9505 228.752 39.4804 228.366 38.9683C229.839 39.9366 231.564 40.4522 233.327 40.4514Z" fill="#EAB054"/>
<path d="M235.661 37.9214L237.46 30.076L239.04 34.6385L239.502 34.4785L237.364 28.3005L235.529 36.3058L233.65 31.7175L231.908 34.6562L232.33 34.9066L233.569 32.8128L235.661 37.9214Z" fill="white"/>
<path d="M237.928 46.5745H237.972C238.081 46.5853 238.19 46.5525 238.275 46.4832C238.36 46.4139 238.414 46.3137 238.426 46.2045L239.684 34.0568C239.69 34.0027 239.685 33.948 239.669 33.8959C239.654 33.8438 239.628 33.7953 239.594 33.7531C239.559 33.7109 239.517 33.6759 239.469 33.6502C239.421 33.6244 239.369 33.6083 239.314 33.6028H239.271C239.162 33.592 239.053 33.6246 238.968 33.6936C238.883 33.7626 238.829 33.8624 238.817 33.9712L237.56 46.1205C237.554 46.1745 237.559 46.2292 237.574 46.2813C237.59 46.3334 237.615 46.382 237.649 46.4242C237.684 46.4664 237.726 46.5014 237.774 46.5272C237.822 46.553 237.874 46.5691 237.928 46.5745Z" fill="#544C60"/>
<path d="M233.239 46.5745C233.182 46.5815 233.124 46.5769 233.068 46.5611C233.013 46.5453 232.961 46.5185 232.916 46.4824C232.87 46.4463 232.833 46.4016 232.805 46.3508C232.778 46.3 232.76 46.2443 232.755 46.1868L231.501 34.0811C231.494 34.0236 231.499 33.9654 231.515 33.9098C231.531 33.8542 231.558 33.8023 231.594 33.7572C231.63 33.7121 231.675 33.6747 231.726 33.647C231.777 33.6194 231.833 33.6022 231.89 33.5964C231.948 33.5895 232.006 33.5941 232.062 33.61C232.117 33.6259 232.169 33.6528 232.215 33.689C232.26 33.7253 232.297 33.7703 232.325 33.8212C232.352 33.8722 232.369 33.9281 232.375 33.9858L233.629 46.0898C233.636 46.1474 233.631 46.2058 233.616 46.2615C233.6 46.3173 233.573 46.3694 233.537 46.4146C233.5 46.4598 233.455 46.4972 233.404 46.5247C233.353 46.5522 233.297 46.5691 233.239 46.5745Z" fill="#544C60"/>
<path d="M231.848 46.2417H239.342C239.577 46.2417 239.768 46.0511 239.768 45.816C239.768 45.5809 239.577 45.3903 239.342 45.3903H231.848C231.613 45.3903 231.422 45.5809 231.422 45.816C231.422 46.0511 231.613 46.2417 231.848 46.2417Z" fill="#ADAEB5"/>
<path d="M231.848 47.9494H239.342C239.577 47.9494 239.768 47.7588 239.768 47.5237C239.768 47.2885 239.577 47.0979 239.342 47.0979H231.848C231.613 47.0979 231.422 47.2885 231.422 47.5237C231.422 47.7588 231.613 47.9494 231.848 47.9494Z" fill="#ADAEB5"/>
<path d="M231.848 49.8606H239.342C239.577 49.8606 239.768 49.67 239.768 49.4349C239.768 49.1998 239.577 49.0092 239.342 49.0092H231.848C231.613 49.0092 231.422 49.1998 231.422 49.4349C231.422 49.67 231.613 49.8606 231.848 49.8606Z" fill="#ADAEB5"/>
<path d="M276.467 120.708L275.506 124.348L271.722 125.017L270.934 129.174L266.679 128.644L265.581 133.305L261.605 133.3L259.813 137.61L261.446 138.292L262.786 135.069L266.982 135.075L268.038 130.595L272.365 131.133L273.234 126.547L276.929 125.892L277.821 122.519L280.339 122.597L280.389 120.829L276.467 120.708Z" fill="#466EB6"/>
<path d="M85.3898 118.401C85.4363 117.705 85.2757 117.011 84.9281 116.407C84.5805 115.803 84.0615 115.315 83.4368 115.005C82.8121 114.696 82.1096 114.578 81.4181 114.668C80.7266 114.757 80.0772 115.049 79.5518 115.508C79.0264 115.966 78.6487 116.57 78.4663 117.243C78.2839 117.916 78.3051 118.628 78.5272 119.289C78.7492 119.949 79.1622 120.53 79.7139 120.956C80.2656 121.382 80.9313 121.636 81.6268 121.684C82.561 121.747 83.4821 121.436 84.1876 120.821C84.8932 120.205 85.3255 119.335 85.3898 118.401Z" fill="#F7CC7F"/>
<path d="M79.41 128.387C79.6201 127.361 79.7477 126.262 80.0967 125.274C80.3956 124.424 81.7124 124.684 81.6526 125.597C81.5702 126.715 81.2212 127.849 80.9886 128.944C80.8933 129.389 80.3084 129.59 79.9206 129.458C79.4472 129.296 79.3179 128.833 79.41 128.387Z" fill="#F7CC7F"/>
<path d="M73.3657 124.005C74.5339 123.315 75.5534 122.459 76.631 121.642C77.4744 120.995 78.3825 122.102 77.6893 122.86C76.6941 123.95 75.3886 124.799 74.1267 125.548C73.7276 125.784 73.1718 125.548 72.9779 125.159C72.8808 124.954 72.867 124.719 72.9393 124.504C73.0116 124.289 73.1644 124.11 73.3657 124.005Z" fill="#F7CC7F"/>
<path d="M75.5744 117.675C75.6997 117.766 75.7861 117.9 75.8161 118.052C75.8461 118.203 75.8174 118.36 75.7359 118.491C75.3417 119.21 74.3384 119.175 73.6258 119.15C72.8791 119.119 72.141 118.979 71.4349 118.734C70.396 118.377 70.9502 116.759 72.0021 117.118C74.0395 117.822 74.8118 117.057 75.5744 117.675Z" fill="#F7CC7F"/>
<path d="M76.7054 110.799C77.7314 112.305 78.5699 112.814 78.4407 113.643C78.3631 114.128 77.9818 114.359 77.5149 114.252C76.9639 114.126 76.6634 113.541 76.3322 113.129C76.001 112.717 75.7053 112.339 75.4226 111.919C75.1657 111.538 75.1285 111.043 75.505 110.715C75.8281 110.441 76.4453 110.417 76.7054 110.799Z" fill="#F7CC7F"/>
<path d="M80.701 110.538C81.0242 109.625 81.1017 109.294 81.5266 108.869C81.8966 108.5 82.6786 108.736 82.7303 109.279C82.7901 109.912 82.6576 110.148 82.3119 111.106C82.2365 111.321 82.079 111.496 81.8742 111.594C81.6693 111.692 81.4339 111.705 81.2197 111.63C81.0054 111.554 80.8299 111.397 80.7317 111.192C80.6335 110.987 80.6208 110.752 80.6962 110.538H80.701Z" fill="#F7CC7F"/>
<path d="M85.0198 112.746C86.4998 111.615 86.7971 111.302 87.382 111.363C87.7229 111.399 88.1058 111.727 88.0282 112.111C87.8893 112.824 87.4757 113.018 86.1153 114.013C85.9453 114.153 85.7281 114.223 85.5083 114.207C85.2885 114.192 85.083 114.093 84.9342 113.93C84.653 113.607 84.6563 113.023 85.0166 112.746H85.0198Z" fill="#F7CC7F"/>
<path d="M90.9639 117.915C91.5472 118.225 91.3129 119.234 90.6812 119.317C90.0753 119.398 89.841 119.299 86.9037 118.761C86.4513 118.679 86.0764 118.346 86.112 117.848C86.141 117.425 86.566 116.971 87.0232 117.053C90.0737 117.604 90.379 117.603 90.9639 117.915Z" fill="#F7CC7F"/>
<path d="M86.3608 122.732C87.9765 124.295 88.2076 124.025 88.8425 124.975C89.1334 125.411 88.6535 126.106 88.1478 126.015C87.5015 125.896 87.3238 125.786 86.4772 125.112C85.9844 124.721 85.5077 124.304 85.0634 123.866C84.7273 123.543 84.8178 122.936 85.1474 122.648C85.5223 122.325 86.0264 122.408 86.3608 122.732Z" fill="#F7CC7F"/>
<path d="M106.62 48.0754L109.69 41.5581L104.746 36.1086L103.321 37.3963L107.4 41.8957L104.229 48.6295L110.764 53.8318L108.102 58.0469L109.818 58.9403L113.312 53.4053L106.62 48.0754Z" fill="#50BFA5"/>
<path d="M174.428 47.867C174.707 50.8865 172.111 53.646 169.232 54.1501C166.249 54.6719 163.591 52.7283 162.565 49.9802C160.541 44.5599 166.472 40.2866 169.689 43.5646C172.691 46.6343 171.741 51.1757 168.5 51.1757C167.277 51.1757 165.309 50.1514 166.089 48.6699C166.133 48.5967 166.196 48.5361 166.27 48.494C166.344 48.4519 166.429 48.4298 166.514 48.4298C166.6 48.4298 166.684 48.4519 166.758 48.494C166.833 48.5361 166.895 48.5967 166.939 48.6699C167.332 49.3388 167.301 49.363 167.487 49.5133C167.795 49.7332 168.17 49.8409 168.548 49.8186C171.849 49.7637 169.653 42.2124 165.763 44.0412C163.627 45.0445 162.997 47.4744 163.738 49.5957C164.452 51.6362 166.367 53.2178 168.585 53.0757C171.23 52.9141 173.45 50.4746 173.622 47.867C173.631 47.7661 173.677 47.6722 173.752 47.6039C173.827 47.5355 173.924 47.4976 174.025 47.4976C174.127 47.4976 174.224 47.5355 174.299 47.6039C174.374 47.6722 174.42 47.7661 174.429 47.867H174.428Z" fill="#F47458"/>
<path d="M305.327 168.161L305.353 165L307.964 163.222C308.031 163.177 308.084 163.114 308.117 163.04C308.151 162.966 308.162 162.884 308.151 162.804C308.14 162.723 308.107 162.648 308.056 162.585C308.004 162.523 307.936 162.476 307.859 162.45L304.868 161.448L303.994 158.411C303.972 158.333 303.928 158.263 303.868 158.209C303.809 158.155 303.735 158.119 303.655 158.104C303.576 158.09 303.494 158.098 303.419 158.127C303.343 158.157 303.278 158.207 303.23 158.272L301.356 160.815L298.205 160.71C298.124 160.708 298.044 160.728 297.974 160.769C297.904 160.809 297.847 160.868 297.809 160.94C297.771 161.011 297.753 161.092 297.758 161.172C297.764 161.253 297.791 161.331 297.838 161.397L299.67 163.969L298.596 166.943C298.569 167.019 298.563 167.101 298.58 167.18C298.597 167.26 298.635 167.332 298.691 167.391C298.747 167.449 298.818 167.491 298.896 167.511C298.974 167.531 299.057 167.529 299.134 167.505L302.141 166.552L304.627 168.491C304.691 168.54 304.766 168.571 304.846 168.58C304.926 168.589 305.006 168.576 305.079 168.542C305.151 168.507 305.213 168.454 305.257 168.387C305.301 168.319 305.325 168.241 305.327 168.161Z" fill="#F47458"/>
<path d="M72.5531 175.167L94.5525 180.595C94.78 180.652 95.0165 180.664 95.2485 180.629C95.4805 180.594 95.7033 180.514 95.9041 180.393C96.1049 180.272 96.2797 180.112 96.4185 179.923C96.5573 179.734 96.6573 179.519 96.7127 179.291L100.219 165.085C100.276 164.858 100.287 164.621 100.252 164.389C100.217 164.158 100.137 163.935 100.015 163.734C99.894 163.534 99.7342 163.359 99.545 163.22C99.3559 163.082 99.1411 162.982 98.9133 162.927L76.9123 157.498C76.6849 157.441 76.4485 157.43 76.2167 157.465C75.9849 157.5 75.7623 157.58 75.5617 157.701C75.361 157.822 75.1863 157.982 75.0477 158.171C74.909 158.36 74.8091 158.574 74.7537 158.802L71.2476 173.006C71.1344 173.466 71.2084 173.952 71.4532 174.357C71.698 174.762 72.0936 175.053 72.5531 175.167Z" fill="#F47458"/>
<path d="M97.708 171.91L103.321 181.564L94.4152 177.436L97.708 171.91Z" fill="#F47458"/>
<path d="M91.1466 169.079L88.8846 168.457C88.8846 168.457 86.5564 165.578 86.6614 164.798C86.7664 164.017 87.647 162.536 87.2528 162.213C86.8585 161.89 85.9602 161.499 85.1023 162.35C84.4834 162.969 84.1651 165.722 83.8517 165.832C83.6562 165.901 82.341 165.58 81.3845 165.331C81.0761 165.25 80.7513 165.255 80.4456 165.346C80.14 165.437 79.8651 165.61 79.6509 165.846C79.5075 166.004 79.4226 166.206 79.4106 166.419C79.3985 166.632 79.46 166.843 79.5846 167.016L79.9853 167.572L79.4489 168.001C79.2576 168.155 79.1349 168.378 79.1073 168.622C79.0798 168.866 79.1497 169.111 79.3019 169.304L79.625 169.712L79.2712 169.956C79.1633 170.03 79.0722 170.126 79.0038 170.237C78.9354 170.349 78.8913 170.473 78.8744 170.603C78.8575 170.732 78.8681 170.864 78.9056 170.989C78.943 171.115 79.0065 171.23 79.0919 171.329L79.3843 171.67L79.3067 171.756C79.1493 171.927 79.0619 172.152 79.0619 172.384C79.0619 172.617 79.1493 172.842 79.3067 173.013L79.604 173.336L85.6516 174.99C86.2185 175.146 86.8112 175.184 87.3933 175.102L89.6165 175.331C89.7318 175.343 89.8474 175.313 89.9426 175.247C90.0377 175.181 90.106 175.083 90.1352 174.971L91.5037 169.656C91.5314 169.532 91.5096 169.402 91.4429 169.294C91.3761 169.187 91.2697 169.109 91.1466 169.079Z" fill="white"/>
<path d="M230.197 142.218C230.214 153.38 226.45 164.219 219.517 172.968L215.51 164.848L206.446 183.235L188.397 185.857L186.793 182.61L180.595 170.053L174.399 182.608L172.794 185.855L154.744 183.235L145.672 164.854L141.665 172.974C134.734 164.223 130.972 153.381 130.993 142.218C130.993 114.822 153.204 92.6191 180.595 92.6191C207.986 92.6191 230.197 114.829 230.197 142.218Z" fill="#BDC6D4"/>
<path d="M221.448 142.218C221.448 162.673 206.422 179.618 186.791 182.608L180.595 170.053L174.399 182.608C154.776 179.622 139.742 162.678 139.742 142.218C139.742 119.656 158.032 101.368 180.595 101.368C203.158 101.368 221.448 119.663 221.448 142.218Z" fill="#29436D"/>
<path d="M165.842 192.069L146.405 194.893L159.321 207.483L160.898 216.673L145.675 208.671L130.452 216.673L133.358 199.722L121.042 187.718L138.063 185.245L145.675 169.824L153.286 185.245L170.306 187.718L165.842 192.069Z" fill="#FCA311"/>
<path d="M227.833 199.722L230.74 216.673L215.517 208.671L200.294 216.673L201.871 207.483L214.786 194.893L195.348 192.069L190.885 187.718L207.905 185.245L215.517 169.824L223.128 185.245L240.15 187.718L227.833 199.722Z" fill="#FCA311"/>
<path d="M180.597 175.021L189.701 193.47L210.061 196.428L195.329 210.787L198.806 231.065L180.597 221.491L162.384 231.065L165.863 210.787L151.131 196.428L171.491 193.47L180.597 175.021Z" fill="#FCA311"/>
<path d="M175.153 160.583H175.068C174.57 160.565 174.088 160.403 173.68 160.116C173.273 159.829 172.958 159.43 172.773 158.967C170.952 154.461 167.694 150.682 163.506 148.217C163.207 148.051 162.944 147.827 162.733 147.558C162.521 147.289 162.366 146.98 162.276 146.65C162.186 146.32 162.162 145.976 162.207 145.637C162.252 145.298 162.365 144.971 162.538 144.676C162.711 144.381 162.941 144.123 163.215 143.919C163.489 143.714 163.801 143.566 164.133 143.484C164.465 143.401 164.81 143.386 165.148 143.439C165.486 143.492 165.81 143.612 166.101 143.792C169.728 145.927 172.812 148.874 175.11 152.401C180.391 142.399 186.901 133.097 194.49 124.71C194.95 124.221 195.584 123.932 196.255 123.905C196.926 123.878 197.581 124.115 198.079 124.566C198.577 125.016 198.879 125.644 198.919 126.314C198.96 126.985 198.735 127.644 198.295 128.151C189.906 137.427 182.892 147.86 177.47 159.13C177.26 159.566 176.931 159.933 176.521 160.19C176.111 160.447 175.637 160.583 175.153 160.583Z" fill="white"/>
</g>
<defs>
<clipPath id="clip0_305_6121">
<rect width="353" height="259" fill="white"/>
</clipPath>
</defs>
</svg>
