<svg width="21" height="14" viewBox="0 0 21 14" fill="none" xmlns="http://www.w3.org/2000/svg">
<path d="M9.43103 10.6138C10.0238 10.6138 10.5062 11.3138 10.5062 12.1737C10.5062 13.0336 10.0238 13.734 9.43103 13.734H8.98651V10.6138H9.43103Z" fill="#010F19"/>
<path d="M8.98652 13.6739C8.42337 13.6739 7.96527 13.0011 7.96527 12.1736C7.96527 11.3462 8.42337 10.6738 8.98652 10.6738C9.54968 10.6738 10.0081 11.3466 10.0081 12.1736C10.0081 13.0007 9.55004 13.6739 8.98652 13.6739Z" fill="#05151E"/>
<path d="M8.98653 10.734C9.52039 10.734 9.95455 11.3799 9.95455 12.1737C9.95455 12.9675 9.52039 13.6138 8.98653 13.6138C8.45268 13.6138 8.01888 12.9679 8.01888 12.1737C8.01888 11.3795 8.45304 10.734 8.98653 10.734ZM8.98653 10.6138C8.39372 10.6138 7.91168 11.3138 7.91168 12.1737C7.91168 13.0336 8.39372 13.734 8.98653 13.734C9.57935 13.734 10.0617 13.034 10.0617 12.1737C10.0617 11.3134 9.57935 10.6138 8.98653 10.6138Z" fill="#010F19"/>
<path d="M11.5032 12.2651H7.88451C7.73586 12.265 7.58869 12.232 7.45149 12.1678C7.31429 12.1036 7.18979 12.0096 7.08516 11.8912L6.62063 11.3643L2.11826 11.4044C2.04497 11.4044 1.97229 11.3893 1.90386 11.3599C1.82128 11.3228 1.74714 11.2655 1.68686 11.1922C1.62658 11.1188 1.58169 11.0313 1.55546 10.936L1.34106 10.1939H6.89757L11.5032 9.61646V12.2651Z" fill="#010F19"/>
<path d="M2.32373 9.7666V12.3852C2.32373 12.5075 2.36706 12.6248 2.44419 12.7113C2.52133 12.7978 2.62594 12.8464 2.73502 12.8464H4.40376L4.47737 10.2887L3.32211 9.47168L2.32373 9.7666Z" fill="#05151E"/>
<path d="M14.7921 11.786V12.2749H13.7916C13.7916 12.2749 13.7848 11.9203 13.6569 11.7019L14.7921 11.786Z" fill="#010F19"/>
<path d="M14.4315 12.0438C14.4315 12.0753 14.4205 12.1056 14.4008 12.1281C14.381 12.1506 14.3542 12.1635 14.3261 12.164H14.2125C14.1841 12.164 14.1568 12.1513 14.1367 12.1288C14.1166 12.1063 14.1053 12.0757 14.1053 12.0438C14.1053 12.0119 14.1166 11.9813 14.1367 11.9588C14.1568 11.9363 14.1841 11.9236 14.2125 11.9236H14.3261C14.3542 11.9241 14.381 11.937 14.4008 11.9595C14.4205 11.982 14.4315 12.0123 14.4315 12.0438Z" fill="#FC6A64"/>
<path d="M14.3243 11.9248C14.3431 11.925 14.3616 11.9308 14.3778 11.9415C14.394 11.9523 14.4074 11.9676 14.4166 11.986C14.4259 12.0044 14.4306 12.0252 14.4304 12.0463C14.4302 12.0675 14.425 12.0881 14.4154 12.1063C14.4101 12.1074 14.4048 12.108 14.3994 12.1083H14.2857C14.2573 12.1083 14.23 12.0956 14.2099 12.0731C14.1898 12.0506 14.1785 12.02 14.1785 11.9881C14.1785 11.966 14.1841 11.9443 14.1946 11.9256C14.1999 11.9245 14.2053 11.9238 14.2107 11.9236L14.3243 11.9248Z" fill="#FC6A64"/>
<path d="M4.76965 10.8799C5.36246 10.8799 5.84486 11.5795 5.84486 12.4398C5.84486 13.3001 5.36103 14.0001 4.76965 14.0001H4.32477V10.8799H4.76965Z" fill="#072035"/>
<path d="M4.32476 13.948C3.75696 13.948 3.29529 13.2712 3.29529 12.439C3.29529 11.6067 3.75767 10.9312 4.32476 10.9312C4.89184 10.9312 5.35387 11.6079 5.35387 12.4398C5.35387 13.2716 4.89292 13.948 4.32476 13.948Z" fill="#0B3053"/>
<path d="M4.32478 10.9829C4.86685 10.9829 5.30816 11.6368 5.30816 12.4402C5.30816 13.2436 4.86757 13.8975 4.32478 13.8975C3.782 13.8975 3.34105 13.2436 3.34105 12.4398C3.34105 11.636 3.78307 10.9829 4.32478 10.9829ZM4.32478 10.8803C3.73197 10.8803 3.24957 11.5799 3.24957 12.4402C3.24957 13.3005 3.73268 14.0001 4.32478 14.0001C4.91688 14.0001 5.40035 13.3001 5.40035 12.4398C5.40035 11.5795 4.91831 10.8799 4.32478 10.8799V10.8803Z" fill="#072035"/>
<path d="M4.08362 10.8799C4.67643 10.8799 5.15883 11.5795 5.15883 12.4398C5.15883 13.3001 4.67643 14.0001 4.08362 14.0001H3.6391V10.8799H4.08362Z" fill="#072035"/>
<path d="M3.63909 13.948C3.07165 13.948 2.60962 13.272 2.60962 12.4398C2.60962 11.6075 3.07129 10.9312 3.63873 10.9312C4.20618 10.9312 4.6682 11.6079 4.6682 12.4398C4.6682 13.2716 4.20689 13.948 3.63909 13.948Z" fill="#0B3053"/>
<path d="M3.63906 10.9829C4.18185 10.9829 4.62279 11.6364 4.62279 12.4398C4.62279 13.2432 4.18185 13.8975 3.63906 13.8975C3.09628 13.8975 2.65569 13.2436 2.65569 12.4398C2.65569 11.636 3.09699 10.9829 3.63906 10.9829ZM3.63906 10.8803C3.04661 10.8803 2.56421 11.5799 2.56421 12.4402C2.56421 13.3005 3.04661 14.0005 3.63906 14.0005C4.23152 14.0005 4.71427 13.3001 4.71427 12.4398C4.71427 11.5795 4.23187 10.8799 3.63906 10.8799V10.8803Z" fill="#072035"/>
<path d="M3.63943 13.2624C3.95223 13.2624 4.2058 12.8943 4.2058 12.4402C4.2058 11.986 3.95223 11.6179 3.63943 11.6179C3.32663 11.6179 3.07306 11.986 3.07306 12.4402C3.07306 12.8943 3.32663 13.2624 3.63943 13.2624Z" fill="#1454AE"/>
<path d="M3.6391 11.6987C3.64848 11.7 3.65754 11.7034 3.66576 11.7086C3.67398 11.7139 3.68119 11.7209 3.68697 11.7293C3.69275 11.7376 3.69699 11.7472 3.69945 11.7575C3.70191 11.7677 3.70253 11.7784 3.70127 11.7889C3.70253 11.7994 3.70191 11.8101 3.69945 11.8203C3.69699 11.8305 3.69275 11.8401 3.68697 11.8485C3.68119 11.8569 3.67398 11.8639 3.66576 11.8692C3.65754 11.8744 3.64848 11.8778 3.6391 11.879C3.62972 11.8778 3.62065 11.8744 3.61244 11.8692C3.60422 11.8639 3.59701 11.8569 3.59123 11.8485C3.58544 11.8401 3.5812 11.8305 3.57875 11.8203C3.57629 11.8101 3.57567 11.7994 3.57692 11.7889C3.57567 11.7784 3.57629 11.7677 3.57875 11.7575C3.5812 11.7472 3.58544 11.7376 3.59123 11.7293C3.59701 11.7209 3.60422 11.7139 3.61244 11.7086C3.62065 11.7034 3.62972 11.7 3.6391 11.6987Z" fill="#0B3053"/>
<path d="M4.0003 12.8364C4.01217 12.855 4.01856 12.8773 4.01856 12.9001C4.01856 12.923 4.01217 12.9453 4.0003 12.9639C3.99535 12.9718 3.98879 12.9784 3.98115 12.983C3.97352 12.9876 3.96502 12.9901 3.95635 12.9903C3.94769 12.9901 3.9392 12.9875 3.93157 12.9829C3.92394 12.9784 3.91737 12.9718 3.9124 12.9639C3.90073 12.9452 3.89447 12.9229 3.89447 12.9001C3.89447 12.8773 3.90073 12.8551 3.9124 12.8364C3.91749 12.8287 3.92409 12.8223 3.93172 12.8179C3.93934 12.8134 3.94776 12.811 3.95635 12.8108C3.96494 12.811 3.97337 12.8134 3.98099 12.8179C3.98861 12.8223 3.99522 12.8287 4.0003 12.8364Z" fill="#0B3053"/>
<path d="M4.0003 11.916C4.01217 11.9346 4.01856 11.9569 4.01856 11.9797C4.01856 12.0026 4.01217 12.0249 4.0003 12.0434C3.99529 12.0514 3.98872 12.0579 3.98109 12.0624C3.97347 12.067 3.965 12.0696 3.95635 12.0699C3.94771 12.0696 3.93925 12.067 3.93163 12.0624C3.92401 12.0578 3.91743 12.0513 3.9124 12.0434C3.90073 12.0248 3.89447 12.0025 3.89447 11.9797C3.89447 11.9569 3.90073 11.9347 3.9124 11.916C3.91745 11.9082 3.92405 11.9018 3.93168 11.8974C3.93931 11.8929 3.94775 11.8905 3.95635 11.8904C3.96495 11.8905 3.9734 11.8929 3.98103 11.8974C3.98866 11.9018 3.99526 11.9082 4.0003 11.916Z" fill="#0B3053"/>
<path d="M4.08787 12.3499C4.10562 12.355 4.12134 12.3667 4.13256 12.383C4.14378 12.3992 4.14986 12.4192 4.14986 12.4398C4.14986 12.4604 4.14378 12.4804 4.13256 12.4967C4.12134 12.5129 4.10562 12.5246 4.08787 12.5298C4.07012 12.5246 4.0544 12.5129 4.04318 12.4967C4.03196 12.4804 4.02588 12.4604 4.02588 12.4398C4.02588 12.4192 4.03196 12.3992 4.04318 12.383C4.0544 12.3667 4.07012 12.355 4.08787 12.3499Z" fill="#0B3053"/>
<path d="M3.36604 12.8363C3.37771 12.8549 3.38397 12.8772 3.38397 12.9C3.38397 12.9228 3.37771 12.945 3.36604 12.9637C3.36103 12.9716 3.35446 12.9781 3.34683 12.9827C3.33921 12.9873 3.33074 12.9898 3.32209 12.9901C3.31344 12.9898 3.30498 12.9873 3.29735 12.9827C3.28973 12.9781 3.28315 12.9716 3.27814 12.9637C3.26627 12.9451 3.25989 12.9228 3.25989 12.9C3.25989 12.8771 3.26627 12.8548 3.27814 12.8363C3.28311 12.8283 3.28968 12.8218 3.29731 12.8172C3.30494 12.8126 3.31343 12.8101 3.32209 12.8098C3.33074 12.8101 3.33921 12.8127 3.34683 12.8173C3.35446 12.8218 3.36103 12.8284 3.36604 12.8363Z" fill="#0B3053"/>
<path d="M3.36604 11.9158C3.37771 11.9345 3.38397 11.9568 3.38397 11.9796C3.38397 12.0024 3.37771 12.0246 3.36604 12.0433C3.36103 12.0512 3.35446 12.0577 3.34683 12.0623C3.33921 12.0669 3.33074 12.0694 3.32209 12.0697C3.31344 12.0694 3.30498 12.0669 3.29735 12.0623C3.28973 12.0577 3.28315 12.0512 3.27814 12.0433C3.26627 12.0247 3.25989 12.0024 3.25989 11.9796C3.25989 11.9567 3.26627 11.9344 3.27814 11.9158C3.28311 11.9079 3.28968 11.9014 3.29731 11.8968C3.30494 11.8922 3.31343 11.8897 3.32209 11.8894C3.33074 11.8897 3.33921 11.8923 3.34683 11.8968C3.35446 11.9014 3.36103 11.9079 3.36604 11.9158Z" fill="#0B3053"/>
<path d="M3.6391 13.0007C3.64848 13.002 3.65754 13.0054 3.66576 13.0106C3.67398 13.0159 3.68119 13.0229 3.68697 13.0313C3.69275 13.0396 3.69699 13.0492 3.69945 13.0595C3.70191 13.0697 3.70253 13.0804 3.70127 13.0909C3.70253 13.1014 3.70191 13.1121 3.69945 13.1223C3.69699 13.1326 3.69275 13.1421 3.68697 13.1505C3.68119 13.1589 3.67398 13.1659 3.66576 13.1712C3.65754 13.1764 3.64848 13.1798 3.6391 13.181C3.62972 13.1798 3.62065 13.1764 3.61244 13.1712C3.60422 13.1659 3.59701 13.1589 3.59123 13.1505C3.58544 13.1421 3.5812 13.1326 3.57875 13.1223C3.57629 13.1121 3.57567 13.1014 3.57692 13.0909C3.57567 13.0804 3.57629 13.0697 3.57875 13.0595C3.5812 13.0492 3.58544 13.0396 3.59123 13.0313C3.59701 13.0229 3.60422 13.0159 3.61244 13.0106C3.62065 13.0054 3.62972 13.002 3.6391 13.0007Z" fill="#0B3053"/>
<path d="M3.19063 12.3499C3.19998 12.3511 3.20901 12.3545 3.2172 12.3597C3.22539 12.3649 3.23258 12.3719 3.23836 12.3802C3.24414 12.3886 3.24839 12.3981 3.25087 12.4083C3.25334 12.4185 3.254 12.4291 3.2528 12.4396C3.25405 12.4501 3.25343 12.4608 3.25098 12.471C3.24852 12.4813 3.24428 12.4909 3.2385 12.4992C3.23272 12.5076 3.22551 12.5146 3.21729 12.5199C3.20907 12.5251 3.20001 12.5285 3.19063 12.5298C3.18128 12.5284 3.17225 12.525 3.16407 12.5198C3.1559 12.5145 3.14873 12.5075 3.14298 12.4991C3.13724 12.4907 3.13303 12.4812 3.1306 12.471C3.12816 12.4607 3.12755 12.4501 3.12881 12.4396C3.12761 12.4292 3.12825 12.4186 3.13071 12.4084C3.13316 12.3982 3.13738 12.3887 3.14313 12.3804C3.14887 12.372 3.15602 12.365 3.16417 12.3598C3.17232 12.3546 3.18131 12.3512 3.19063 12.3499Z" fill="#0B3053"/>
<path d="M3.63905 11.9561C3.82308 11.9561 3.97244 12.1732 3.97244 12.4397C3.97244 12.7062 3.82451 12.9237 3.63905 12.9237C3.4536 12.9237 3.30566 12.7066 3.30566 12.4397C3.30566 12.1728 3.45539 11.9561 3.63905 11.9561Z" fill="#072035"/>
<path d="M4.84827 10.8799C5.44108 10.8799 5.92312 11.5795 5.92312 12.4398C5.92312 13.3001 5.44108 14.0001 4.84827 14.0001H4.40375V10.8799H4.84827Z" fill="#072035"/>
<path d="M4.40374 13.948C3.83594 13.948 3.37427 13.272 3.37427 12.4398C3.37427 11.6075 3.83594 10.9312 4.40374 10.9312C4.97154 10.9312 5.4325 11.6079 5.4325 12.4398C5.4325 13.2716 4.97118 13.948 4.40374 13.948Z" fill="#0B3053"/>
<path d="M4.40376 10.9829C4.94619 10.9829 5.38714 11.6368 5.38714 12.4402C5.38714 13.2436 4.94619 13.8979 4.40376 13.8979C3.86133 13.8979 3.42003 13.244 3.42003 12.4402C3.42003 11.6364 3.86026 10.9829 4.40376 10.9829ZM4.40376 10.8803C3.81095 10.8803 3.32855 11.5799 3.32855 12.4402C3.32855 13.3005 3.81095 14.0005 4.40376 14.0005C4.99657 14.0005 5.47897 13.3001 5.47897 12.4398C5.47897 11.5795 4.99657 10.8799 4.40376 10.8799V10.8803Z" fill="#072035"/>
<path d="M4.08362 10.8799C4.67643 10.8799 5.15883 11.5795 5.15883 12.4398C5.15883 13.3001 4.67643 14.0001 4.08362 14.0001H3.6391V10.8799H4.08362Z" fill="#072035"/>
<path d="M3.63909 13.948C3.07165 13.948 2.60962 13.272 2.60962 12.4398C2.60962 11.6075 3.07129 10.9312 3.63873 10.9312C4.20618 10.9312 4.6682 11.6079 4.6682 12.4398C4.6682 13.2716 4.20689 13.948 3.63909 13.948Z" fill="#0B3053"/>
<path d="M3.63906 10.9829C4.18185 10.9829 4.62279 11.6364 4.62279 12.4398C4.62279 13.2432 4.18185 13.8975 3.63906 13.8975C3.09628 13.8975 2.65569 13.2436 2.65569 12.4398C2.65569 11.636 3.09699 10.9829 3.63906 10.9829ZM3.63906 10.8803C3.04661 10.8803 2.56421 11.5799 2.56421 12.4402C2.56421 13.3005 3.04661 14.0005 3.63906 14.0005C4.23152 14.0005 4.71427 13.3001 4.71427 12.4398C4.71427 11.5795 4.23187 10.8799 3.63906 10.8799V10.8803Z" fill="#072035"/>
<path d="M3.63943 13.2624C3.95223 13.2624 4.2058 12.8943 4.2058 12.4402C4.2058 11.986 3.95223 11.6179 3.63943 11.6179C3.32663 11.6179 3.07306 11.986 3.07306 12.4402C3.07306 12.8943 3.32663 13.2624 3.63943 13.2624Z" fill="#1454AE"/>
<path d="M3.6391 11.6987C3.64848 11.7 3.65754 11.7034 3.66576 11.7086C3.67398 11.7139 3.68119 11.7209 3.68697 11.7293C3.69275 11.7376 3.69699 11.7472 3.69945 11.7575C3.70191 11.7677 3.70253 11.7784 3.70127 11.7889C3.70253 11.7994 3.70191 11.8101 3.69945 11.8203C3.69699 11.8305 3.69275 11.8401 3.68697 11.8485C3.68119 11.8569 3.67398 11.8639 3.66576 11.8692C3.65754 11.8744 3.64848 11.8778 3.6391 11.879C3.62972 11.8778 3.62065 11.8744 3.61244 11.8692C3.60422 11.8639 3.59701 11.8569 3.59123 11.8485C3.58544 11.8401 3.5812 11.8305 3.57875 11.8203C3.57629 11.8101 3.57567 11.7994 3.57692 11.7889C3.57567 11.7784 3.57629 11.7677 3.57875 11.7575C3.5812 11.7472 3.58544 11.7376 3.59123 11.7293C3.59701 11.7209 3.60422 11.7139 3.61244 11.7086C3.62065 11.7034 3.62972 11.7 3.6391 11.6987Z" fill="#0B3053"/>
<path d="M4.0003 12.8364C4.01217 12.855 4.01856 12.8773 4.01856 12.9001C4.01856 12.923 4.01217 12.9453 4.0003 12.9639C3.99535 12.9718 3.98879 12.9784 3.98115 12.983C3.97352 12.9876 3.96502 12.9901 3.95635 12.9903C3.94769 12.9901 3.9392 12.9875 3.93157 12.9829C3.92394 12.9784 3.91737 12.9718 3.9124 12.9639C3.90073 12.9452 3.89447 12.9229 3.89447 12.9001C3.89447 12.8773 3.90073 12.8551 3.9124 12.8364C3.91749 12.8287 3.92409 12.8223 3.93172 12.8179C3.93934 12.8134 3.94776 12.811 3.95635 12.8108C3.96494 12.811 3.97337 12.8134 3.98099 12.8179C3.98861 12.8223 3.99522 12.8287 4.0003 12.8364Z" fill="#0B3053"/>
<path d="M4.0003 11.916C4.01217 11.9346 4.01856 11.9569 4.01856 11.9797C4.01856 12.0026 4.01217 12.0249 4.0003 12.0434C3.99529 12.0514 3.98872 12.0579 3.98109 12.0624C3.97347 12.067 3.965 12.0696 3.95635 12.0699C3.94771 12.0696 3.93925 12.067 3.93163 12.0624C3.92401 12.0578 3.91743 12.0513 3.9124 12.0434C3.90073 12.0248 3.89447 12.0025 3.89447 11.9797C3.89447 11.9569 3.90073 11.9347 3.9124 11.916C3.91745 11.9082 3.92405 11.9018 3.93168 11.8974C3.93931 11.8929 3.94775 11.8905 3.95635 11.8904C3.96495 11.8905 3.9734 11.8929 3.98103 11.8974C3.98866 11.9018 3.99526 11.9082 4.0003 11.916Z" fill="#0B3053"/>
<path d="M4.08787 12.3499C4.10562 12.355 4.12134 12.3667 4.13256 12.383C4.14378 12.3992 4.14986 12.4192 4.14986 12.4398C4.14986 12.4604 4.14378 12.4804 4.13256 12.4967C4.12134 12.5129 4.10562 12.5246 4.08787 12.5298C4.07012 12.5246 4.0544 12.5129 4.04318 12.4967C4.03196 12.4804 4.02588 12.4604 4.02588 12.4398C4.02588 12.4192 4.03196 12.3992 4.04318 12.383C4.0544 12.3667 4.07012 12.355 4.08787 12.3499Z" fill="#0B3053"/>
<path d="M3.36604 12.8363C3.37771 12.8549 3.38397 12.8772 3.38397 12.9C3.38397 12.9228 3.37771 12.945 3.36604 12.9637C3.36103 12.9716 3.35446 12.9781 3.34683 12.9827C3.33921 12.9873 3.33074 12.9898 3.32209 12.9901C3.31344 12.9898 3.30498 12.9873 3.29735 12.9827C3.28973 12.9781 3.28315 12.9716 3.27814 12.9637C3.26627 12.9451 3.25989 12.9228 3.25989 12.9C3.25989 12.8771 3.26627 12.8548 3.27814 12.8363C3.28311 12.8283 3.28968 12.8218 3.29731 12.8172C3.30494 12.8126 3.31343 12.8101 3.32209 12.8098C3.33074 12.8101 3.33921 12.8127 3.34683 12.8173C3.35446 12.8218 3.36103 12.8284 3.36604 12.8363Z" fill="#0B3053"/>
<path d="M3.36604 11.9158C3.37771 11.9345 3.38397 11.9568 3.38397 11.9796C3.38397 12.0024 3.37771 12.0246 3.36604 12.0433C3.36103 12.0512 3.35446 12.0577 3.34683 12.0623C3.33921 12.0669 3.33074 12.0694 3.32209 12.0697C3.31344 12.0694 3.30498 12.0669 3.29735 12.0623C3.28973 12.0577 3.28315 12.0512 3.27814 12.0433C3.26627 12.0247 3.25989 12.0024 3.25989 11.9796C3.25989 11.9567 3.26627 11.9344 3.27814 11.9158C3.28311 11.9079 3.28968 11.9014 3.29731 11.8968C3.30494 11.8922 3.31343 11.8897 3.32209 11.8894C3.33074 11.8897 3.33921 11.8923 3.34683 11.8968C3.35446 11.9014 3.36103 11.9079 3.36604 11.9158Z" fill="#0B3053"/>
<path d="M3.6391 13.0007C3.64848 13.002 3.65754 13.0054 3.66576 13.0106C3.67398 13.0159 3.68119 13.0229 3.68697 13.0313C3.69275 13.0396 3.69699 13.0492 3.69945 13.0595C3.70191 13.0697 3.70253 13.0804 3.70127 13.0909C3.70253 13.1014 3.70191 13.1121 3.69945 13.1223C3.69699 13.1326 3.69275 13.1421 3.68697 13.1505C3.68119 13.1589 3.67398 13.1659 3.66576 13.1712C3.65754 13.1764 3.64848 13.1798 3.6391 13.181C3.62972 13.1798 3.62065 13.1764 3.61244 13.1712C3.60422 13.1659 3.59701 13.1589 3.59123 13.1505C3.58544 13.1421 3.5812 13.1326 3.57875 13.1223C3.57629 13.1121 3.57567 13.1014 3.57692 13.0909C3.57567 13.0804 3.57629 13.0697 3.57875 13.0595C3.5812 13.0492 3.58544 13.0396 3.59123 13.0313C3.59701 13.0229 3.60422 13.0159 3.61244 13.0106C3.62065 13.0054 3.62972 13.002 3.6391 13.0007Z" fill="#0B3053"/>
<path d="M3.19063 12.3499C3.19998 12.3511 3.20901 12.3545 3.2172 12.3597C3.22539 12.3649 3.23258 12.3719 3.23836 12.3802C3.24414 12.3886 3.24839 12.3981 3.25087 12.4083C3.25334 12.4185 3.254 12.4291 3.2528 12.4396C3.25405 12.4501 3.25343 12.4608 3.25098 12.471C3.24852 12.4813 3.24428 12.4909 3.2385 12.4992C3.23272 12.5076 3.22551 12.5146 3.21729 12.5199C3.20907 12.5251 3.20001 12.5285 3.19063 12.5298C3.18128 12.5284 3.17225 12.525 3.16407 12.5198C3.1559 12.5145 3.14873 12.5075 3.14298 12.4991C3.13724 12.4907 3.13303 12.4812 3.1306 12.471C3.12816 12.4607 3.12755 12.4501 3.12881 12.4396C3.12761 12.4292 3.12825 12.4186 3.13071 12.4084C3.13316 12.3982 3.13738 12.3887 3.14313 12.3804C3.14887 12.372 3.15602 12.365 3.16417 12.3598C3.17232 12.3546 3.18131 12.3512 3.19063 12.3499Z" fill="#0B3053"/>
<path d="M3.63905 11.9561C3.82308 11.9561 3.97244 12.1732 3.97244 12.4397C3.97244 12.7062 3.82451 12.9237 3.63905 12.9237C3.4536 12.9237 3.30566 12.7066 3.30566 12.4397C3.30566 12.1728 3.45539 11.9561 3.63905 11.9561Z" fill="#072035"/>
<path d="M5.08948 10.8799H3.84418C4.35052 10.8831 4.7618 11.6088 4.7618 12.5007C4.76171 12.5132 4.76383 12.5257 4.76804 12.5373C4.77226 12.5489 4.77848 12.5595 4.78635 12.5684C4.79423 12.5773 4.8036 12.5843 4.81392 12.5892C4.82424 12.594 4.83531 12.5965 4.84649 12.5965H4.92689C4.92689 12.5965 6.01068 12.5324 6.01068 12.4999C6.01068 11.6071 5.59724 10.8799 5.08948 10.8799Z" fill="#0B3053"/>
<path d="M5.16307 10.8625L3.9317 10.8798C4.43804 10.883 4.84969 11.6086 4.84969 12.5006C4.84969 12.5331 4.84969 12.5651 4.84969 12.5972H6.0128C6.02409 12.5973 6.03529 12.5949 6.04575 12.5901C6.05622 12.5854 6.06574 12.5783 6.07378 12.5694C6.08181 12.5605 6.0882 12.5499 6.09257 12.5383C6.09695 12.5266 6.09923 12.5141 6.09927 12.5014C6.09927 11.607 5.67083 10.8625 5.16307 10.8625Z" fill="#010F19"/>
<path d="M0.362003 9.20874V10.8624L0.841184 10.1472L0.927659 10.2441L0.420605 11.0019C0.402427 11.0289 0.378897 11.0509 0.351864 11.0661C0.324832 11.0812 0.295033 11.0892 0.264809 11.0892H0.0725649C0.0536109 11.0892 0.0354331 11.0808 0.0220306 11.0657C0.00862804 11.0507 0.00109863 11.0303 0.00109863 11.0091V9.28888C0.00109863 9.26763 0.00862804 9.24724 0.0220306 9.23221C0.0354331 9.21718 0.0536109 9.20874 0.0725649 9.20874H0.362003Z" fill="#05151E"/>
<path d="M9.43501 10.2334L0.362366 10.3308V0.552162L9.43501 0V10.2334Z" fill="#1473FA"/>
<path d="M9.43501 10.2335L0.362366 10.3309V1.07316L9.43501 0.520996V10.2335Z" fill="#6EB6FF"/>
<path d="M16.3822 10.1132V0.240419L9.435 0V10.2334L16.3822 10.1132Z" fill="#1473FA"/>
<path d="M16.3822 10.1133V0.761415L9.435 0.520996V10.2335L16.3822 10.1133Z" fill="#8EC3F7"/>
<g style="mix-blend-mode:multiply" opacity="0.3">
<path d="M11.2399 9.71729H9.435V10.2334L11.2745 10.2009L11.2399 9.71729Z" fill="#8EC3F7"/>
</g>
<g style="mix-blend-mode:multiply" opacity="0.25">
<path d="M9.43501 0V0.520908L0.362366 1.07307V0.552162L9.43501 0Z" fill="#1473FA"/>
</g>
<path d="M9.43501 9.71742L0.362366 9.81479V1.07316L9.43501 0.520996V9.71742Z" fill="#8EC3F7"/>
<g style="mix-blend-mode:screen" opacity="0.2">
<path d="M9.42786 9.7118V0.593506L0.362366 1.14527V9.80917L9.42786 9.7118Z" fill="#8EC3F7"/>
</g>
<g style="mix-blend-mode:screen" opacity="0.15">
<path d="M3.3775 0.961637L5.39857 0.838623L9.42784 8.20546V9.71169L7.87845 9.72852L3.3775 0.961637Z" fill="#8EC3F7"/>
</g>
<g style="mix-blend-mode:screen" opacity="0.15">
<path d="M6.02249 9.7482L2.17725 9.78947L0.362366 6.25491V1.14521L1.28607 1.08911L6.02249 9.7482Z" fill="#8EC3F7"/>
</g>
<g style="mix-blend-mode:screen" opacity="0.3">
<path d="M9.43501 9.83765V10.1534L0.362366 10.2508V9.93502L9.43501 9.83765Z" fill="#8EC3F7"/>
</g>
<path d="M7.27459 10.0212C7.27459 10.0628 7.25995 10.1027 7.23386 10.1322C7.20776 10.1618 7.17232 10.1786 7.13523 10.179H6.98479C6.96612 10.1794 6.94758 10.1755 6.93025 10.1677C6.91292 10.1599 6.89715 10.1484 6.88385 10.1337C6.87055 10.119 6.85999 10.1015 6.85278 10.0821C6.84557 10.0628 6.84186 10.0421 6.84186 10.0212C6.84186 9.97957 6.85649 9.93966 6.88259 9.9101C6.90868 9.88054 6.94413 9.86372 6.98122 9.86329H7.13201C7.15065 9.86303 7.16915 9.86692 7.18644 9.87473C7.20373 9.88255 7.21946 9.89413 7.23272 9.90882C7.24598 9.92351 7.25651 9.941 7.2637 9.96029C7.27089 9.97957 7.27459 10.0003 7.27459 10.0212Z" fill="#FC6A64"/>
<path d="M6.41051 10.0291C6.41051 10.0707 6.39588 10.1106 6.36978 10.1402C6.34369 10.1697 6.30824 10.1865 6.27115 10.187H6.12072C6.10205 10.1873 6.08351 10.1834 6.06618 10.1756C6.04885 10.1678 6.03308 10.1563 6.01977 10.1416C6.00647 10.1269 5.99591 10.1094 5.9887 10.0901C5.98149 10.0707 5.97778 10.05 5.97778 10.0291C5.97778 9.98752 5.99243 9.94765 6.01853 9.91815C6.04464 9.88866 6.08008 9.87192 6.11714 9.87161H6.26794C6.28657 9.87123 6.30508 9.87503 6.32239 9.88279C6.3397 9.89054 6.35545 9.90208 6.36873 9.91675C6.38201 9.93141 6.39254 9.9489 6.39972 9.96819C6.40689 9.98748 6.41056 10.0082 6.41051 10.0291Z" fill="#FC6A64"/>
<path d="M5.5465 10.0384C5.5465 10.0799 5.53185 10.1198 5.50575 10.1493C5.47964 10.1788 5.4442 10.1955 5.40714 10.1958H5.2567C5.23806 10.1961 5.21955 10.1923 5.20225 10.1845C5.18494 10.1768 5.16918 10.1652 5.15589 10.1506C5.14259 10.1359 5.13202 10.1185 5.12479 10.0992C5.11756 10.0799 5.11381 10.0593 5.11377 10.0384C5.11377 9.99679 5.12842 9.95692 5.15452 9.92742C5.18063 9.89793 5.21607 9.88119 5.25313 9.88088H5.40392C5.42254 9.88056 5.44104 9.8844 5.45832 9.89217C5.47561 9.89994 5.49134 9.91149 5.50461 9.92614C5.51788 9.9408 5.52842 9.95826 5.53561 9.97753C5.5428 9.99679 5.5465 10.0175 5.5465 10.0384Z" fill="#FC6A64"/>
<path d="M9.00261 10.0014C9.00262 10.043 8.98798 10.0829 8.96188 10.1125C8.93579 10.142 8.90035 10.1588 8.86325 10.1593H8.71282C8.69415 10.1596 8.67561 10.1557 8.65828 10.1479C8.64095 10.1402 8.62518 10.1286 8.61188 10.1139C8.59857 10.0992 8.58801 10.0817 8.5808 10.0624C8.57359 10.0431 8.56988 10.0223 8.56989 10.0014C8.56988 9.9598 8.58452 9.91988 8.61061 9.89032C8.63671 9.86076 8.67215 9.84394 8.70924 9.84352H8.86004C8.87868 9.84325 8.89718 9.84714 8.91446 9.85496C8.93175 9.86277 8.94748 9.87436 8.96075 9.88904C8.97401 9.90373 8.98454 9.92123 8.99173 9.94051C8.99891 9.9598 9.00261 9.98049 9.00261 10.0014Z" fill="#FC6A64"/>
<path d="M8.1386 10.0107C8.1386 10.0523 8.12396 10.0922 8.09787 10.1217C8.07178 10.1513 8.03633 10.1681 7.99924 10.1685H7.8488C7.83014 10.1689 7.8116 10.165 7.79427 10.1572C7.77694 10.1494 7.76116 10.1379 7.74786 10.1232C7.73456 10.1085 7.724 10.091 7.71679 10.0716C7.70958 10.0523 7.70587 10.0316 7.70587 10.0107C7.70587 9.96908 7.72051 9.92916 7.7466 9.8996C7.7727 9.87004 7.80814 9.85322 7.84523 9.8528H7.99602C8.01466 9.85253 8.03316 9.85642 8.05045 9.86423C8.06774 9.87205 8.08347 9.88364 8.09673 9.89832C8.11 9.91301 8.12053 9.9305 8.12771 9.94979C8.1349 9.96907 8.1386 9.98977 8.1386 10.0107Z" fill="#FC6A64"/>
<path d="M2.9544 10.0663C2.9544 10.1079 2.93976 10.1478 2.91367 10.1774C2.88757 10.207 2.85213 10.2238 2.81504 10.2242H2.6646C2.64593 10.2245 2.62739 10.2207 2.61006 10.2129C2.59273 10.2051 2.57696 10.1935 2.56366 10.1788C2.55036 10.1641 2.53979 10.1466 2.53259 10.1273C2.52538 10.108 2.52167 10.0873 2.52167 10.0663C2.52167 10.0247 2.5363 9.98482 2.5624 9.95526C2.58849 9.9257 2.62394 9.90888 2.66103 9.90846H2.81182C2.83046 9.90819 2.84896 9.91208 2.86625 9.9199C2.88353 9.92771 2.89927 9.9393 2.91253 9.95399C2.92579 9.96867 2.93632 9.98617 2.94351 10.0055C2.9507 10.0247 2.9544 10.0454 2.9544 10.0663Z" fill="#FC6A64"/>
<path d="M2.09038 10.0756C2.09038 10.1172 2.07575 10.1571 2.04965 10.1867C2.02356 10.2162 1.98811 10.2331 1.95102 10.2335H1.80059C1.78192 10.2338 1.76338 10.23 1.74605 10.2222C1.72872 10.2144 1.71295 10.2028 1.69964 10.1881C1.68634 10.1734 1.67578 10.1559 1.66857 10.1366C1.66136 10.1173 1.65765 10.0965 1.65765 10.0756C1.65765 10.034 1.67229 9.9941 1.69838 9.96454C1.72448 9.93498 1.75992 9.91816 1.79701 9.91774H1.94781C1.96645 9.91747 1.98495 9.92136 2.00223 9.92918C2.01952 9.93699 2.03525 9.94858 2.04852 9.96326C2.06178 9.97795 2.07231 9.99544 2.0795 10.0147C2.08668 10.034 2.09038 10.0547 2.09038 10.0756Z" fill="#FC6A64"/>
<path d="M1.22637 10.0849C1.22637 10.1265 1.21173 10.1664 1.18564 10.196C1.15954 10.2255 1.1241 10.2423 1.08701 10.2428H0.936573C0.917904 10.2431 0.899366 10.2392 0.882036 10.2314C0.864707 10.2237 0.848933 10.2121 0.835631 10.1974C0.82233 10.1827 0.811767 10.1652 0.804558 10.1459C0.797349 10.1266 0.793638 10.1058 0.79364 10.0849C0.793638 10.0433 0.808275 10.0034 0.83437 9.97382C0.860464 9.94426 0.895908 9.92744 0.932999 9.92702H1.08344C1.1021 9.9267 1.12064 9.93055 1.13797 9.93834C1.1553 9.94613 1.17108 9.95771 1.18438 9.9724C1.19768 9.98709 1.20824 10.0046 1.21545 10.0239C1.22266 10.0432 1.22637 10.064 1.22637 10.0849Z" fill="#FC6A64"/>
<path d="M4.68212 10.0475C4.68158 10.0889 4.66676 10.1285 4.64078 10.1579C4.6148 10.1874 4.57968 10.2044 4.54276 10.2054H4.39232C4.37365 10.2057 4.35512 10.2019 4.33779 10.1941C4.32046 10.1863 4.30468 10.1747 4.29138 10.16C4.27808 10.1453 4.26752 10.1278 4.26031 10.1085C4.2531 10.0892 4.24939 10.0685 4.24939 10.0475C4.24939 10.0059 4.26402 9.96603 4.29012 9.93647C4.31621 9.90691 4.35166 9.89009 4.38875 9.88967H4.53954C4.55819 9.88935 4.57672 9.8932 4.59402 9.901C4.61133 9.90879 4.62709 9.92038 4.64036 9.93507C4.65363 9.94977 4.66416 9.96729 4.67133 9.9866C4.6785 10.0059 4.68217 10.0266 4.68212 10.0475Z" fill="#FC6A64"/>
<path d="M3.81847 10.0572C3.81847 10.0988 3.80384 10.1387 3.77774 10.1682C3.75165 10.1978 3.7162 10.2146 3.67911 10.215H3.52867C3.51001 10.2154 3.49147 10.2115 3.47414 10.2037C3.45681 10.1959 3.44103 10.1843 3.42773 10.1697C3.41443 10.155 3.40387 10.1374 3.39666 10.1181C3.38945 10.0988 3.38574 10.0781 3.38574 10.0572C3.38612 10.0157 3.40102 9.97608 3.42723 9.94684C3.45343 9.9176 3.48885 9.90109 3.52582 9.90088H3.67661C3.71389 9.90056 3.74976 9.91684 3.77635 9.94613C3.80295 9.97543 3.81809 10.0154 3.81847 10.0572Z" fill="#FC6A64"/>
<g style="mix-blend-mode:screen" opacity="0.4">
<path d="M7.13267 9.86075C7.15133 9.86043 7.16987 9.86428 7.1872 9.87207C7.20453 9.87986 7.2203 9.89144 7.23361 9.90613C7.24691 9.92083 7.25747 9.93834 7.26468 9.95765C7.27189 9.97696 7.2756 9.99769 7.2756 10.0186C7.27561 10.0478 7.26844 10.0763 7.25487 10.1012C7.24791 10.1026 7.24086 10.1034 7.23379 10.1036H7.083C7.06433 10.1039 7.04579 10.1 7.02846 10.0923C7.01113 10.0845 6.99536 10.0729 6.98205 10.0582C6.96875 10.0435 6.95819 10.026 6.95098 10.0067C6.94377 9.98737 6.94006 9.96664 6.94006 9.9457C6.94008 9.91652 6.94738 9.88792 6.96115 9.86316C6.96813 9.86183 6.97516 9.86089 6.98223 9.86035L7.13267 9.86075Z" fill="#FC6A64"/>
<path d="M6.26864 9.87161C6.28731 9.87119 6.30586 9.87495 6.32321 9.88267C6.34056 9.8904 6.35635 9.90194 6.36967 9.91661C6.38299 9.93128 6.39355 9.94879 6.40075 9.96811C6.40795 9.98742 6.41163 10.0082 6.41158 10.0291C6.41155 10.0584 6.40425 10.0871 6.39049 10.112C6.38353 10.1134 6.37648 10.1142 6.36941 10.1144H6.21862C6.19995 10.1149 6.1814 10.1111 6.16405 10.1034C6.1467 10.0956 6.1309 10.0841 6.11759 10.0694C6.10427 10.0548 6.09371 10.0373 6.08651 10.0179C6.07931 9.99863 6.07563 9.9779 6.07568 9.95696C6.07576 9.92779 6.08306 9.89921 6.09677 9.87442C6.10373 9.87302 6.11078 9.87222 6.11785 9.87202L6.26864 9.87161Z" fill="#FC6A64"/>
<path d="M5.40463 9.88077C5.42328 9.8804 5.44181 9.8842 5.45914 9.89194C5.47647 9.89969 5.49224 9.91123 5.50555 9.92589C5.51886 9.94055 5.52942 9.95804 5.53664 9.97733C5.54385 9.99662 5.54756 10.0173 5.54756 10.0382C5.54754 10.0674 5.54024 10.096 5.52648 10.1208C5.51938 10.1221 5.51222 10.1231 5.50504 10.1236H5.3546C5.33593 10.1239 5.3174 10.1201 5.30007 10.1123C5.28274 10.1045 5.26696 10.0929 5.25366 10.0782C5.24036 10.0635 5.2298 10.046 5.22259 10.0267C5.21538 10.0074 5.21167 9.98666 5.21167 9.96572C5.21191 9.93639 5.21933 9.9077 5.23311 9.88278C5.24007 9.88138 5.24712 9.88058 5.25419 9.88037L5.40463 9.88077Z" fill="#FC6A64"/>
<path d="M8.86072 9.84351C8.88586 9.84323 8.91061 9.85052 8.93238 9.86462C8.95415 9.87873 8.97214 9.89913 8.98448 9.92369C8.99682 9.94825 9.00305 9.97608 9.00253 10.0043C9.002 10.0325 8.99474 10.06 8.9815 10.0839C8.97457 10.0856 8.96751 10.0866 8.96041 10.0867H8.80962C8.79095 10.0871 8.77241 10.0832 8.75508 10.0754C8.73775 10.0676 8.72198 10.056 8.70868 10.0414C8.69538 10.0267 8.68481 10.0092 8.67761 9.98984C8.6704 9.97053 8.66668 9.9498 8.66669 9.92886C8.6667 9.89968 8.67401 9.87109 8.68777 9.84632C8.69473 9.8448 8.70177 9.84386 8.70885 9.84351H8.86072Z" fill="#FC6A64"/>
<path d="M7.99673 9.8528C8.0154 9.85248 8.03394 9.85633 8.05127 9.86412C8.0686 9.87191 8.08437 9.88349 8.09767 9.89818C8.11097 9.91288 8.12154 9.93039 8.12875 9.9497C8.13595 9.96901 8.13967 9.98974 8.13966 10.0107C8.13953 10.04 8.13223 10.0687 8.11858 10.0936C8.11162 10.095 8.10457 10.0958 8.0975 10.096H7.9467C7.92804 10.0963 7.9095 10.0925 7.89217 10.0847C7.87484 10.0769 7.85906 10.0653 7.84576 10.0506C7.83246 10.036 7.8219 10.0184 7.81469 9.99913C7.80748 9.97982 7.80377 9.95909 7.80377 9.93815C7.80379 9.90897 7.81109 9.88037 7.82485 9.85561C7.83184 9.85428 7.83887 9.85334 7.84594 9.8528H7.99673Z" fill="#FC6A64"/>
<path d="M2.81253 9.90847C2.8312 9.90815 2.84973 9.912 2.86706 9.91979C2.88439 9.92758 2.90017 9.93916 2.91347 9.95385C2.92677 9.96854 2.93733 9.98605 2.94454 10.0054C2.95175 10.0247 2.95546 10.0454 2.95546 10.0663C2.95544 10.0957 2.94801 10.1245 2.93402 10.1493C2.92706 10.1507 2.92001 10.1515 2.91294 10.1517H2.7625C2.74383 10.152 2.72529 10.1482 2.70796 10.1404C2.69063 10.1326 2.67486 10.121 2.66156 10.1063C2.64826 10.0916 2.6377 10.0741 2.63049 10.0548C2.62328 10.0355 2.61957 10.0148 2.61957 9.99381C2.61981 9.96449 2.62723 9.9358 2.64101 9.91087C2.64797 9.90945 2.65502 9.90865 2.66209 9.90847H2.81253Z" fill="#FC6A64"/>
<path d="M1.94851 9.91774C1.96718 9.91742 1.98572 9.92127 2.00305 9.92906C2.02038 9.93686 2.03615 9.94843 2.04945 9.96312C2.06276 9.97782 2.07332 9.99533 2.08053 10.0146C2.08774 10.034 2.09145 10.0547 2.09145 10.0756C2.09147 10.105 2.08403 10.1338 2.07001 10.1586C2.06305 10.16 2.056 10.1608 2.04892 10.161H1.89849C1.87982 10.1613 1.86128 10.1574 1.84395 10.1496C1.82662 10.1419 1.81085 10.1303 1.79755 10.1156C1.78424 10.1009 1.77368 10.0834 1.76647 10.0641C1.75926 10.0448 1.75555 10.024 1.75555 10.0031C1.7557 9.97387 1.76312 9.94528 1.77699 9.92055C1.78392 9.9188 1.79098 9.91786 1.79808 9.91774H1.94851Z" fill="#FC6A64"/>
<path d="M1.08413 9.92678C1.1028 9.92646 1.12134 9.9303 1.13867 9.93809C1.156 9.94589 1.17177 9.95747 1.18507 9.97216C1.19838 9.98685 1.20894 10.0044 1.21615 10.0237C1.22336 10.043 1.22707 10.0637 1.22707 10.0847C1.22709 10.114 1.21965 10.1428 1.20563 10.1676C1.19866 10.169 1.19162 10.1698 1.18454 10.17H1.03411C1.01547 10.1703 0.996959 10.1665 0.979653 10.1587C0.962347 10.1509 0.946589 10.1394 0.933293 10.1248C0.919996 10.1101 0.909426 10.0926 0.902196 10.0734C0.894966 10.0541 0.891219 10.0334 0.891174 10.0125C0.891317 9.98331 0.898743 9.95471 0.912614 9.92998C0.919566 9.92843 0.926615 9.92749 0.933697 9.92717L1.08413 9.92678Z" fill="#FC6A64"/>
<path d="M4.53915 9.89005C4.5578 9.88968 4.57633 9.89348 4.59366 9.90122C4.61099 9.90897 4.62676 9.92051 4.64007 9.93517C4.65338 9.94983 4.66395 9.96732 4.67116 9.98661C4.67837 10.0059 4.68209 10.0266 4.68208 10.0475C4.68212 10.0768 4.67468 10.1054 4.66064 10.1301C4.65369 10.1316 4.64664 10.1326 4.63956 10.1329H4.48912C4.47046 10.1332 4.45192 10.1293 4.43459 10.1216C4.41726 10.1138 4.40148 10.1022 4.38818 10.0875C4.37488 10.0728 4.36432 10.0553 4.35711 10.036C4.3499 10.0167 4.34619 9.99593 4.34619 9.975C4.34644 9.94567 4.35385 9.91698 4.36763 9.89205C4.37459 9.89066 4.38164 9.88985 4.38871 9.88965L4.53915 9.89005Z" fill="#FC6A64"/>
<path d="M3.6766 9.9009C3.69527 9.90058 3.71381 9.90443 3.73114 9.91222C3.74847 9.92001 3.76424 9.93159 3.77754 9.94628C3.79084 9.96097 3.80141 9.97848 3.80862 9.99779C3.81582 10.0171 3.81954 10.0378 3.81953 10.0588C3.81957 10.088 3.81213 10.1167 3.79809 10.1413C3.79118 10.1431 3.78411 10.144 3.77701 10.1441H3.62658C3.60791 10.1444 3.58937 10.1406 3.57204 10.1328C3.55471 10.125 3.53894 10.1134 3.52563 10.0987C3.51233 10.084 3.50177 10.0665 3.49456 10.0472C3.48735 10.0279 3.48364 10.0072 3.48364 9.98625C3.48389 9.95692 3.4913 9.92823 3.50508 9.9033C3.51204 9.90189 3.51909 9.90108 3.52616 9.9009H3.6766Z" fill="#FC6A64"/>
</g>
<path d="M11.0734 9.79862V12.7057C11.0735 12.8414 11.1216 12.9716 11.2072 13.0675C11.2929 13.1635 11.409 13.2174 11.53 13.2174H13.3821L13.4636 10.3816L12.1814 9.47485L11.0734 9.79862Z" fill="#072035"/>
<path d="M12.5634 10.2566C13.3181 10.2566 13.729 11.0816 13.729 12.0954C13.729 13.1092 13.3181 13.253 12.5634 13.253C11.8087 13.253 11.1945 13.1096 11.1945 12.0954C11.1945 11.0812 11.8087 10.2566 12.5634 10.2566Z" fill="#010F19"/>
<path d="M12.8078 10.8799C13.4006 10.8799 13.883 11.5795 13.883 12.4398C13.883 13.3001 13.401 14.0001 12.8078 14.0001H12.3647V10.8799H12.8078Z" fill="#072035"/>
<path d="M12.3647 13.9478C11.7973 13.9478 11.3353 13.2711 11.3353 12.4388C11.3353 11.6066 11.7973 10.9302 12.3647 10.9302C12.9322 10.9302 13.3942 11.607 13.3942 12.4388C13.3942 13.2707 12.9308 13.9478 12.3647 13.9478Z" fill="#0B3053"/>
<path d="M12.3648 10.9829C12.9072 10.9829 13.3485 11.6368 13.3485 12.4402C13.3485 13.2436 12.9058 13.8975 12.3648 13.8975C11.8238 13.8975 11.381 13.2436 11.381 12.4398C11.381 11.636 11.8209 10.9829 12.3648 10.9829ZM12.3648 10.8803C11.7719 10.8803 11.2896 11.5799 11.2896 12.4402C11.2896 13.3005 11.7705 14.0001 12.3648 14.0001C12.959 14.0001 13.44 13.3001 13.44 12.4398C13.44 11.5795 12.9576 10.8799 12.3648 10.8799V10.8803Z" fill="#072035"/>
<path d="M12.3633 13.2624C12.6761 13.2624 12.9297 12.8943 12.9297 12.4402C12.9297 11.986 12.6761 11.6179 12.3633 11.6179C12.0505 11.6179 11.7969 11.986 11.7969 12.4402C11.7969 12.8943 12.0505 13.2624 12.3633 13.2624Z" fill="#1454AE"/>
<path d="M12.3647 11.6988C12.3815 11.6939 12.3991 11.695 12.4153 11.702C12.4314 11.709 12.4452 11.7214 12.4547 11.7376C12.4642 11.7538 12.469 11.7729 12.4683 11.7923C12.4677 11.8116 12.4616 11.8303 12.451 11.8456C12.4405 11.861 12.4259 11.8722 12.4093 11.8778C12.3928 11.8834 12.3751 11.883 12.3587 11.8768C12.3424 11.8705 12.3282 11.8587 12.3181 11.8429C12.308 11.8272 12.3026 11.8083 12.3026 11.7889C12.3013 11.7784 12.3019 11.7677 12.3044 11.7575C12.3068 11.7472 12.3111 11.7377 12.3169 11.7293C12.3227 11.7209 12.3299 11.7139 12.3381 11.7086C12.3463 11.7034 12.3554 11.7 12.3647 11.6988Z" fill="#0B3053"/>
<path d="M12.7242 12.8364C12.7361 12.855 12.7425 12.8773 12.7425 12.9001C12.7425 12.923 12.7361 12.9453 12.7242 12.9639C12.7194 12.972 12.7129 12.9786 12.7053 12.9832C12.6976 12.9878 12.6891 12.9902 12.6804 12.9902C12.6718 12.9902 12.6632 12.9878 12.6556 12.9832C12.648 12.9786 12.6415 12.972 12.6367 12.9639C12.6248 12.9453 12.6184 12.923 12.6184 12.9001C12.6184 12.8773 12.6248 12.855 12.6367 12.8364C12.6417 12.8287 12.6482 12.8223 12.6558 12.8178C12.6633 12.8134 12.6717 12.811 12.6803 12.8108C12.6888 12.811 12.6973 12.8134 12.7049 12.8178C12.7125 12.8223 12.7191 12.8287 12.7242 12.8364Z" fill="#0B3053"/>
<path d="M12.7242 11.916C12.7361 11.9346 12.7425 11.9569 12.7425 11.9797C12.7425 12.0026 12.7361 12.0249 12.7242 12.0434C12.7194 12.0515 12.7129 12.0582 12.7053 12.0628C12.6976 12.0674 12.6891 12.0698 12.6804 12.0698C12.6718 12.0698 12.6632 12.0674 12.6556 12.0628C12.648 12.0582 12.6415 12.0515 12.6367 12.0434C12.6248 12.0249 12.6184 12.0026 12.6184 11.9797C12.6184 11.9569 12.6248 11.9346 12.6367 11.916C12.6416 11.9082 12.6481 11.9018 12.6557 11.8973C12.6633 11.8928 12.6717 11.8905 12.6803 11.8904C12.6889 11.8905 12.6973 11.8928 12.705 11.8973C12.7126 11.9018 12.7192 11.9082 12.7242 11.916Z" fill="#0B3053"/>
<path d="M12.8118 12.3499C12.8285 12.345 12.8462 12.3462 12.8624 12.3532C12.8785 12.3601 12.8923 12.3726 12.9018 12.3888C12.9113 12.405 12.916 12.4242 12.9153 12.4436C12.9147 12.4629 12.9086 12.4816 12.898 12.4969C12.8874 12.5122 12.8727 12.5234 12.8562 12.529C12.8396 12.5345 12.8219 12.5341 12.8055 12.5278C12.7892 12.5215 12.775 12.5096 12.765 12.4938C12.7549 12.478 12.7496 12.459 12.7496 12.4396C12.7484 12.4292 12.7491 12.4185 12.7515 12.4083C12.754 12.3981 12.7583 12.3886 12.7641 12.3803C12.7698 12.3719 12.777 12.3649 12.7852 12.3597C12.7934 12.3545 12.8024 12.3512 12.8118 12.3499Z" fill="#0B3053"/>
<path d="M12.0899 12.8364C12.1018 12.855 12.1082 12.8773 12.1082 12.9001C12.1082 12.923 12.1018 12.9452 12.0899 12.9638C12.0851 12.9719 12.0786 12.9786 12.071 12.9832C12.0634 12.9878 12.0548 12.9902 12.0462 12.9902C12.0375 12.9902 12.029 12.9878 12.0213 12.9832C12.0137 12.9786 12.0072 12.9719 12.0024 12.9638C11.9905 12.9452 11.9841 12.923 11.9841 12.9001C11.9841 12.8773 11.9905 12.855 12.0024 12.8364C12.0072 12.8283 12.0137 12.8217 12.0213 12.8171C12.029 12.8125 12.0375 12.8101 12.0462 12.8101C12.0548 12.8101 12.0634 12.8125 12.071 12.8171C12.0786 12.8217 12.0851 12.8283 12.0899 12.8364Z" fill="#0B3053"/>
<path d="M12.0899 11.916C12.1018 11.9346 12.1082 11.9568 12.1082 11.9797C12.1082 12.0026 12.1018 12.0248 12.0899 12.0434C12.0851 12.0515 12.0786 12.0582 12.071 12.0628C12.0634 12.0674 12.0548 12.0698 12.0462 12.0698C12.0375 12.0698 12.029 12.0674 12.0213 12.0628C12.0137 12.0582 12.0072 12.0515 12.0024 12.0434C11.9905 12.0248 11.9841 12.0026 11.9841 11.9797C11.9841 11.9568 11.9905 11.9346 12.0024 11.916C12.0072 11.9079 12.0137 11.9012 12.0213 11.8967C12.029 11.8921 12.0375 11.8896 12.0462 11.8896C12.0548 11.8896 12.0634 11.8921 12.071 11.8967C12.0786 11.9012 12.0851 11.9079 12.0899 11.916Z" fill="#0B3053"/>
<path d="M12.3647 13.0008C12.3815 12.9959 12.3991 12.9971 12.4153 13.004C12.4314 13.011 12.4452 13.0234 12.4547 13.0396C12.4642 13.0558 12.469 13.0749 12.4683 13.0943C12.4677 13.1136 12.4616 13.1323 12.451 13.1476C12.4405 13.163 12.4259 13.1742 12.4093 13.1798C12.3928 13.1854 12.3751 13.185 12.3587 13.1788C12.3424 13.1725 12.3282 13.1607 12.3181 13.1449C12.308 13.1292 12.3026 13.1103 12.3026 13.0909C12.3013 13.0804 12.3019 13.0697 12.3044 13.0595C12.3068 13.0493 12.3111 13.0397 12.3169 13.0313C12.3227 13.0229 12.3299 13.0159 12.3381 13.0106C12.3463 13.0054 12.3554 13.002 12.3647 13.0008Z" fill="#0B3053"/>
<path d="M11.9149 12.3499C11.9316 12.345 11.9493 12.3462 11.9654 12.3532C11.9816 12.3601 11.9954 12.3726 12.0049 12.3888C12.0144 12.405 12.0191 12.4242 12.0184 12.4436C12.0177 12.4629 12.0117 12.4816 12.0011 12.4969C11.9905 12.5122 11.9758 12.5234 11.9593 12.529C11.9427 12.5345 11.925 12.5341 11.9086 12.5278C11.8923 12.5215 11.8781 12.5096 11.868 12.4938C11.858 12.478 11.8526 12.459 11.8527 12.4396C11.8515 12.4292 11.8522 12.4185 11.8546 12.4083C11.8571 12.3981 11.8614 12.3886 11.8671 12.3803C11.8729 12.3719 11.8801 12.3649 11.8883 12.3597C11.8965 12.3545 11.9055 12.3512 11.9149 12.3499Z" fill="#0B3053"/>
<path d="M12.3648 11.9561C12.5488 11.9561 12.6982 12.1732 12.6982 12.4397C12.6982 12.7062 12.5488 12.9237 12.3648 12.9237C12.1807 12.9237 12.0314 12.7066 12.0314 12.4397C12.0314 12.1728 12.1793 11.9561 12.3648 11.9561Z" fill="#072035"/>
<path d="M17.5778 10.6138C18.1706 10.6138 18.653 11.3138 18.653 12.1737C18.653 13.0336 18.1706 13.734 17.5778 13.734H17.1333V10.6138H17.5778Z" fill="#010F19"/>
<path d="M17.1333 13.6739C16.5702 13.6739 16.1117 13.0011 16.1117 12.1736C16.1117 11.3462 16.5702 10.6738 17.1333 10.6738C17.6965 10.6738 18.1535 11.3466 18.1535 12.1736C18.1535 13.0007 17.6968 13.6739 17.1333 13.6739Z" fill="#05151E"/>
<path d="M17.1333 10.734C17.6672 10.734 18.1013 11.3799 18.1013 12.1737C18.1013 12.9675 17.6672 13.6138 17.1333 13.6138C16.5995 13.6138 16.1653 12.9679 16.1653 12.1737C16.1653 11.3795 16.5998 10.734 17.1333 10.734ZM17.1333 10.6138C16.5405 10.6138 16.0581 11.3138 16.0581 12.1737C16.0581 13.0336 16.5405 13.734 17.1333 13.734C17.7261 13.734 18.2085 13.034 18.2085 12.1737C18.2085 11.3134 17.7261 10.6138 17.1333 10.6138Z" fill="#010F19"/>
<path d="M15.2949 7.3657C15.4867 7.48391 15.8162 7.57607 16.3865 7.57607C16.5362 7.57607 16.7274 7.57927 16.9489 7.58288C17.1244 7.58609 17.3138 7.58929 17.5114 7.59129H17.6679H17.9255C18.077 7.59129 18.2178 7.5913 18.349 7.58769H18.3879H18.4694C18.5423 7.58609 18.6122 7.58408 18.6791 7.58168L18.7967 7.57687C18.9086 7.57246 19.0111 7.56645 19.1044 7.55964L19.1505 7.55643L19.2384 7.54962L19.3195 7.54201H19.3331C19.3788 7.5372 19.4217 7.53279 19.4621 7.52799H19.4681L19.5668 7.51476C19.63 7.50595 19.6854 7.49633 19.7347 7.48671C19.952 7.44384 20.0424 7.39615 20.0788 7.35929L20.0831 7.35528L20.087 7.35128C20.092 7.34679 20.0968 7.34198 20.1013 7.33685C18.5434 7.05276 16.9007 7.23147 15.2949 7.3657Z" fill="#0B3053"/>
<path d="M17.6693 6.71936C17.7653 6.71984 17.861 6.73071 17.9552 6.75182C18.3672 6.84197 18.5894 7.06917 18.573 7.16293C18.5623 7.22464 18.4204 7.316 18.1499 7.316C18.0539 7.31532 17.9582 7.30445 17.864 7.28355C17.6887 7.24909 17.5217 7.17388 17.3738 7.06276C17.2766 6.98262 17.2398 6.90969 17.2462 6.87203C17.2569 6.81032 17.3988 6.71936 17.6693 6.71936ZM17.6693 6.55908C17.3674 6.55908 17.1365 6.66527 17.1058 6.83957C17.0651 7.07358 17.3917 7.34165 17.8365 7.44062C17.9402 7.46379 18.0456 7.47573 18.1513 7.47628C18.4533 7.47628 18.6841 7.3701 18.7149 7.19579C18.7556 6.96219 18.429 6.69372 17.9841 6.59474C17.8804 6.5717 17.775 6.55989 17.6693 6.55948V6.55908Z" fill="#0B3053"/>
<path d="M18.4143 6.85791C18.2503 6.90599 18.0709 6.99054 17.9498 7.16044C17.7077 7.03112 17.4457 6.95522 17.178 6.93685" stroke="#0B3053" stroke-width="4" stroke-miterlimit="10"/>
<path d="M15.5743 7.10799V7.44818C15.6365 7.45098 17.5753 7.59283 17.694 7.59083V7.04748C17.6957 6.88159 17.6529 6.71894 17.5711 6.58073C17.4892 6.44251 17.3722 6.33512 17.2352 6.27253C17.3062 6.16916 17.345 6.04244 17.3456 5.9119C17.3469 5.84016 17.3355 5.76883 17.3122 5.70203C17.2888 5.63524 17.2539 5.57429 17.2094 5.5227C17.1649 5.47111 17.1118 5.4299 17.053 5.40145C16.9943 5.373 16.9311 5.35787 16.8671 5.35693H16.8489L16.4201 5.37417C16.2861 5.38246 16.16 5.44802 16.0677 5.55735C15.9755 5.66668 15.9241 5.81148 15.9241 5.96199C15.9236 6.08972 15.9625 6.21372 16.0342 6.313C15.8976 6.3821 15.7816 6.49378 15.7001 6.63474C15.6185 6.77569 15.5749 6.93997 15.5743 7.10799Z" fill="#0B3053"/>
<path d="M14.7946 5.39746C14.8718 5.8815 14.9643 6.49537 15.0172 6.92733C15.0319 7.04353 15.0615 7.28555 15.4417 7.43902V7.04754C15.4435 6.88164 15.4007 6.719 15.3188 6.58078C15.237 6.44256 15.1199 6.33517 14.9829 6.27259C15.054 6.16921 15.0928 6.0425 15.0933 5.91196C15.0947 5.80263 15.0671 5.69531 15.0139 5.60368C14.9607 5.51205 14.8843 5.44026 14.7946 5.39746Z" fill="#0B3053"/>
<path d="M20.6634 7.03271H20.8128C20.9162 7.03271 21 6.93871 21 6.82275V5.55855C21 5.44259 20.9162 5.34858 20.8128 5.34858H20.6634C20.56 5.34858 20.4762 5.44259 20.4762 5.55855V6.82275C20.4762 6.93871 20.56 7.03271 20.6634 7.03271Z" fill="#05151E"/>
<path d="M20.7159 6.93774V7.86376C20.7162 7.91341 20.7 7.9614 20.6705 7.99842C20.641 8.03544 20.6003 8.05884 20.5562 8.06411L20.0849 8.1182" stroke="#05151E" stroke-width="2.34" stroke-miterlimit="10"/>
<path d="M20.0534 8.28271H20.1778C20.2159 8.28271 20.2468 8.24809 20.2468 8.20538V8.00864C20.2468 7.96593 20.2159 7.9313 20.1778 7.9313H20.0534C20.0154 7.9313 19.9845 7.96593 19.9845 8.00864V8.20538C19.9845 8.24809 20.0154 8.28271 20.0534 8.28271Z" fill="#05151E"/>
<path d="M11.2188 4.88743C11.2738 4.56166 11.3792 4.3545 11.5236 4.20143C11.6868 4.03255 11.8968 3.93157 12.1185 3.91533C12.1185 3.91533 13.655 3.85483 13.9409 3.85803C14.9586 3.87086 17.3591 3.84802 17.993 3.88768C18.5758 3.92375 18.9296 4.03354 19.1908 4.14333C19.4106 4.23549 19.6736 4.50396 19.7725 4.74438C20.1656 5.69043 20.3364 6.74787 20.4354 7.78367C20.5486 8.99135 20.5323 10.2099 20.3868 11.4132L14.697 11.7967H13.5082C13.476 11.7966 13.4448 11.7844 13.4195 11.762C13.3943 11.7397 13.3766 11.7084 13.3692 11.6733L13.2262 11.0005C13.1616 10.6972 13.0124 10.4249 12.8004 10.2231C12.5883 10.0214 12.3244 9.90066 12.047 9.87853L11.074 9.80239C11.1198 8.57225 11.1319 5.40313 11.2188 4.88743ZM14.7206 4.9307C14.801 5.40433 14.9468 6.33675 15.0197 6.92738C15.0415 7.10489 15.0997 7.57611 16.389 7.57611C16.5387 7.57611 16.7299 7.57932 16.9514 7.58332C17.2462 7.58813 17.5807 7.59414 17.9276 7.59414C19.5989 7.59414 19.9934 7.44589 20.0799 7.35733L20.0838 7.35332L20.0881 7.34972C20.121 7.31994 20.1462 7.28084 20.1612 7.23646C20.1762 7.19208 20.1803 7.14404 20.1731 7.09728C20.0902 6.57081 19.9781 6.05063 19.8376 5.53976C19.7589 5.27049 19.6656 5.00687 19.5582 4.75039C19.527 4.67444 19.4722 4.61378 19.4041 4.57969C19.3152 4.53642 19.154 4.48232 18.8853 4.4723C18.6863 4.46509 18.4068 4.44546 18.0827 4.42262C17.4367 4.37694 15.2487 4.33607 15.0097 4.36692L14.9868 4.36932C14.8975 4.37974 14.8056 4.39617 14.7528 4.47551C14.6945 4.56126 14.6834 4.71873 14.7195 4.93231L14.7206 4.9307ZM14.424 8.05054C14.4415 7.01674 14.4115 5.82586 14.136 4.80488C14.1071 4.69598 14.05 4.59913 13.9721 4.52653C13.8941 4.45394 13.7987 4.40886 13.6979 4.39697C13.3306 4.3545 12.7142 4.30681 12.1728 4.37573C12.0728 4.38873 11.9799 4.4404 11.9101 4.52186C11.8403 4.60332 11.798 4.70948 11.7905 4.82211C11.7583 5.29013 11.7219 6.10034 11.793 6.72182C11.7998 6.78097 11.8221 6.83652 11.8571 6.88145C11.8921 6.92638 11.9382 6.95868 11.9895 6.97426L12.051 6.9931C12.2958 7.06837 12.5323 7.17429 12.756 7.30885L14.2164 8.18798C14.2378 8.19992 14.2615 8.20566 14.2854 8.20467C14.3092 8.20369 14.3325 8.19601 14.3531 8.18234C14.3736 8.16867 14.3908 8.14944 14.403 8.12642C14.4152 8.1034 14.422 8.07731 14.4229 8.05054H14.424Z" fill="#FCBF38"/>
<path d="M13.3235 7.10796V7.64891L14.2168 8.18584C14.238 8.19872 14.2618 8.20525 14.286 8.2048C14.3101 8.20436 14.3337 8.19695 14.3545 8.1833C14.3753 8.16965 14.3927 8.15022 14.4049 8.12687C14.417 8.10353 14.4237 8.07705 14.4241 8.05001C14.4387 7.20293 14.4212 6.25047 14.2626 5.37134L14.1696 5.37494C14.0356 5.38324 13.9095 5.44879 13.8173 5.55812C13.725 5.66745 13.6737 5.81226 13.6737 5.96277C13.6732 6.0905 13.7121 6.21449 13.7837 6.31378C13.6472 6.38276 13.5312 6.49429 13.4496 6.6351C13.368 6.7759 13.3242 6.94004 13.3235 7.10796Z" fill="#0B3053"/>
<g style="mix-blend-mode:multiply" opacity="0.3">
<path d="M11.2188 4.88734C11.2738 4.56157 11.3792 4.35441 11.5236 4.20134C11.6868 4.03246 11.8968 3.93148 12.1185 3.91524C12.1185 3.91524 13.461 3.85113 13.848 3.9485C14.0442 3.99819 14.2732 4.25343 14.3565 4.51469C14.6884 5.5545 14.7921 10.5452 14.7921 11.7862L14.6984 11.7946H13.5082C13.476 11.7946 13.4448 11.7824 13.4195 11.76C13.3943 11.7376 13.3766 11.7063 13.3692 11.6712L13.2262 10.9984C13.1616 10.6951 13.0124 10.4228 12.8004 10.221C12.5883 10.0193 12.3244 9.89856 12.047 9.87643L11.074 9.8003C11.1198 8.57216 11.1319 5.40304 11.2188 4.88734ZM11.7905 6.72013C11.7973 6.77928 11.8196 6.83483 11.8546 6.87976C11.8896 6.92469 11.9357 6.95699 11.987 6.97257L12.0485 6.9914C12.2933 7.06668 12.5298 7.17259 12.7535 7.30716L14.2139 8.18629C14.2352 8.19845 14.2589 8.20442 14.2828 8.20365C14.3067 8.20288 14.3301 8.19539 14.3508 8.18187C14.3714 8.16835 14.3887 8.14924 14.4011 8.12628C14.4134 8.10332 14.4205 8.07725 14.4215 8.05045C14.439 7.01665 14.409 5.82577 14.1335 4.80479C14.1046 4.69589 14.0475 4.59904 13.9695 4.52644C13.8916 4.45385 13.7962 4.40877 13.6954 4.39688C13.3281 4.35441 12.7117 4.30672 12.1703 4.37564C12.0703 4.38864 11.9774 4.44031 11.9076 4.52177C11.8378 4.60323 11.7955 4.70939 11.788 4.82202C11.7573 5.28844 11.7215 6.09865 11.793 6.72013H11.7905Z" fill="#FCBF38"/>
</g>
<path d="M12.78 4.41925C13.0839 4.42073 13.3875 4.43932 13.6897 4.47495C13.7765 4.48512 13.8587 4.52394 13.9258 4.58649C13.9929 4.64905 14.042 4.73253 14.0667 4.82636C14.3501 5.87779 14.3676 7.10073 14.3526 8.04878C14.3523 8.06915 14.3449 8.08857 14.3319 8.10283C14.3189 8.11708 14.3014 8.12502 14.2833 8.12491C14.2718 8.1249 14.2604 8.12159 14.2504 8.11529L12.79 7.23656C12.5615 7.09977 12.3199 6.99224 12.07 6.916L12.0074 6.89557C11.9697 6.88426 11.9357 6.86063 11.91 6.82767C11.8842 6.79471 11.8678 6.75391 11.8627 6.71044C11.7912 6.08696 11.8309 5.26272 11.8606 4.82716C11.867 4.73313 11.9024 4.64452 11.9606 4.57652C12.0189 4.50853 12.0965 4.4654 12.18 4.45451C12.3793 4.43045 12.5796 4.41894 12.78 4.42005M12.78 4.33991C12.5771 4.33884 12.3743 4.35048 12.1725 4.37477C12.0725 4.38777 11.9796 4.43944 11.9098 4.5209C11.84 4.60235 11.7977 4.70852 11.7902 4.82115C11.758 5.28917 11.7216 6.09938 11.7927 6.72086C11.7995 6.78001 11.8218 6.83556 11.8568 6.88049C11.8918 6.92542 11.9379 6.95772 11.9892 6.9733L12.0507 6.99213C12.2955 7.06741 12.532 7.17332 12.7557 7.30788L14.2161 8.18702C14.2367 8.19931 14.2596 8.20578 14.2829 8.20585C14.3198 8.20586 14.3552 8.18967 14.3815 8.16075C14.4078 8.13183 14.423 8.09249 14.4237 8.05118C14.4412 7.01738 14.4112 5.8265 14.1357 4.80553C14.1068 4.69662 14.0497 4.59977 13.9717 4.52717C13.8938 4.45458 13.7984 4.4095 13.6976 4.39761C13.4646 4.37077 13.1312 4.34152 12.7807 4.34152L12.78 4.33991Z" fill="#072035"/>
<path d="M11.7894 4.82035C11.7941 4.74895 11.8128 4.67959 11.8442 4.61725C11.8756 4.5549 11.9189 4.50111 11.971 4.45972C11.9423 4.51929 11.9251 4.58496 11.9206 4.65245C11.8888 5.12047 11.8523 5.93068 11.9231 6.55216C11.93 6.61132 11.9524 6.66686 11.9875 6.71178C12.0225 6.75669 12.0686 6.78899 12.12 6.8046L12.1814 6.82344C12.4263 6.89871 12.6627 7.00463 12.8864 7.13919L14.3469 8.01752C14.3703 8.03164 14.3968 8.03803 14.4233 8.03595C14.4233 8.03996 14.4233 8.04436 14.4233 8.04877C14.4223 8.07557 14.4153 8.10164 14.4029 8.1246C14.3905 8.14756 14.3732 8.16668 14.3526 8.18019C14.3319 8.19371 14.3086 8.2012 14.2846 8.20197C14.2607 8.20274 14.237 8.19677 14.2157 8.18461L12.7553 7.30547C12.5316 7.17091 12.2951 7.065 12.0503 6.98972L11.9888 6.97089C11.9375 6.95531 11.8914 6.92301 11.8564 6.87808C11.8215 6.83315 11.7991 6.7776 11.7923 6.71845C11.7215 6.09857 11.7573 5.28836 11.7894 4.82035Z" fill="#072035"/>
<path opacity="0.85" d="M14.423 8.05041C14.4405 7.01661 14.4105 5.82574 14.135 4.80476C14.106 4.69585 14.049 4.599 13.971 4.5264C13.893 4.45381 13.7977 4.40873 13.6969 4.39685C13.3295 4.35437 12.7131 4.30669 12.1718 4.37561C12.0717 4.38861 11.9788 4.44027 11.9091 4.52173C11.8393 4.60319 11.797 4.70936 11.7894 4.82199C11.7573 5.29 11.7208 6.10021 11.7919 6.7217C11.7988 6.78084 11.8211 6.83639 11.8561 6.88132C11.8911 6.92625 11.9371 6.95855 11.9885 6.97414L12.0499 6.99297C12.2948 7.06824 12.5312 7.17416 12.755 7.30872L14.2154 8.18785C14.2368 8.20006 14.2606 8.20602 14.2846 8.20517C14.3087 8.20432 14.3321 8.19669 14.3528 8.18299C14.3735 8.16929 14.3908 8.14996 14.403 8.12679C14.4153 8.10361 14.4222 8.07735 14.423 8.05041Z" fill="#81BCF7"/>
<g style="mix-blend-mode:screen" opacity="0.2">
<path d="M13.5189 4.37636L14.409 6.77534C14.4291 7.2117 14.4301 7.64366 14.423 8.05117C14.4219 8.07796 14.4149 8.10404 14.4025 8.127C14.3902 8.14996 14.3729 8.16907 14.3522 8.18259C14.3316 8.19611 14.3082 8.20359 14.2843 8.20436C14.2604 8.20513 14.2367 8.19917 14.2154 8.187L14.0985 8.11648L12.994 4.34351C13.1866 4.34871 13.3653 4.36154 13.5189 4.37636Z" fill="#81BCF7"/>
</g>
<g style="mix-blend-mode:screen" opacity="0.2">
<path d="M12.4258 7.13594L11.8956 4.53901C11.9663 4.44801 12.0648 4.38986 12.1718 4.37593C12.2876 4.3611 12.4066 4.35229 12.5255 4.34668L13.4864 7.65164C13.4663 7.67304 13.4448 7.69273 13.4221 7.71054L12.755 7.30984C12.648 7.2455 12.5382 7.18745 12.4258 7.13594Z" fill="#81BCF7"/>
</g>
<path d="M12.78 4.45939C13.1323 4.45939 13.4671 4.48944 13.6858 4.51469C13.7656 4.52418 13.8411 4.55995 13.9028 4.6175C13.9645 4.67505 14.0096 4.75179 14.0324 4.83805C14.3144 5.88387 14.3319 7.1032 14.3158 8.04804C14.3158 8.05294 14.3148 8.05777 14.3131 8.06227C14.3114 8.06678 14.3089 8.07085 14.3058 8.07427C14.3027 8.0777 14.299 8.0804 14.295 8.08222C14.2909 8.08405 14.2866 8.08496 14.2822 8.08491C14.2766 8.08488 14.271 8.08322 14.2661 8.0801L12.8057 7.20137C12.5751 7.06251 12.3313 6.95323 12.0789 6.8756L12.0171 6.85637C11.9862 6.84709 11.9584 6.82776 11.9373 6.8008C11.9162 6.77384 11.9027 6.74047 11.8985 6.7049C11.827 6.08502 11.867 5.26239 11.8967 4.82963C11.9024 4.74487 11.9342 4.66497 11.9867 4.60364C12.0392 4.5423 12.109 4.50334 12.1843 4.49345C12.3823 4.46973 12.5813 4.45836 12.7803 4.45939M12.7803 4.33918C12.5774 4.33811 12.3746 4.34975 12.1729 4.37404C12.0728 4.38704 11.9799 4.4387 11.9102 4.52016C11.8404 4.60162 11.7981 4.70779 11.7905 4.82042C11.7584 5.28843 11.7219 6.09864 11.793 6.72013C11.7999 6.77928 11.8222 6.83483 11.8572 6.87976C11.8922 6.92469 11.9382 6.95698 11.9896 6.97257L12.051 6.9914C12.2959 7.06667 12.5323 7.17259 12.7561 7.30715L14.2165 8.18628C14.237 8.19858 14.26 8.20504 14.2833 8.20512C14.3201 8.20512 14.3555 8.18893 14.3818 8.16002C14.4082 8.1311 14.4233 8.09176 14.4241 8.05045C14.4416 7.01664 14.4116 5.82577 14.1361 4.80479C14.1071 4.69589 14.0501 4.59903 13.9721 4.52644C13.8941 4.45385 13.7988 4.40876 13.698 4.39688C13.465 4.37003 13.1316 4.34078 12.7811 4.34078L12.7803 4.33918Z" fill="#072035"/>
<path d="M11.7894 4.82035C11.7941 4.74895 11.8128 4.67959 11.8442 4.61725C11.8756 4.5549 11.9189 4.50111 11.971 4.45972C11.9423 4.51929 11.9251 4.58496 11.9206 4.65245C11.8888 5.12047 11.8523 5.93068 11.9231 6.55216C11.93 6.61132 11.9524 6.66686 11.9875 6.71178C12.0225 6.75669 12.0686 6.78899 12.12 6.8046L12.1814 6.82344C12.4263 6.89871 12.6627 7.00463 12.8864 7.13919L14.3469 8.01752C14.3703 8.03164 14.3968 8.03803 14.4233 8.03595C14.4233 8.03996 14.4233 8.04436 14.4233 8.04877C14.4223 8.07557 14.4153 8.10164 14.4029 8.1246C14.3905 8.14756 14.3732 8.16668 14.3526 8.18019C14.3319 8.19371 14.3086 8.2012 14.2846 8.20197C14.2607 8.20274 14.237 8.19677 14.2157 8.18461L12.7553 7.30547C12.5316 7.17091 12.2951 7.065 12.0503 6.98972L11.9888 6.97089C11.9375 6.95531 11.8914 6.92301 11.8564 6.87808C11.8215 6.83315 11.7991 6.7776 11.7923 6.71845C11.7215 6.09857 11.7573 5.28836 11.7894 4.82035Z" fill="#072035"/>
<path d="M13.3574 5.08374H13.1666C13.0342 5.08374 12.9268 5.20412 12.9268 5.35261V6.97023C12.9268 7.11872 13.0342 7.2391 13.1666 7.2391H13.3574C13.4898 7.2391 13.5972 7.11872 13.5972 6.97023V5.35261C13.5972 5.20412 13.4898 5.08374 13.3574 5.08374Z" fill="#05151E"/>
<path d="M13.2899 7.11768V8.30294C13.29 8.36616 13.311 8.42709 13.3488 8.47399C13.3866 8.52089 13.4385 8.55046 13.4946 8.55699L14.0981 8.62631" stroke="#05151E" stroke-width="3" stroke-miterlimit="10"/>
<path d="M14.1389 8.38989H13.9795C13.9308 8.38989 13.8912 8.4342 13.8912 8.48887V8.7405C13.8912 8.79516 13.9308 8.83948 13.9795 8.83948H14.1389C14.1876 8.83948 14.2271 8.79516 14.2271 8.7405V8.48887C14.2271 8.4342 14.1876 8.38989 14.1389 8.38989Z" fill="#05151E"/>
<path d="M14.9883 4.16771C16.1113 4.1044 18.1195 4.24345 18.89 4.2719C19.1708 4.28231 19.3545 4.33801 19.4745 4.39611C19.5827 4.44938 19.6698 4.54515 19.7193 4.66538C19.83 4.92953 19.926 5.20104 20.007 5.4784C20.1501 5.99805 20.2642 6.52719 20.3486 7.06276C20.3612 7.14476 20.354 7.22904 20.3278 7.30689C20.3016 7.38474 20.2573 7.45332 20.1996 7.50553C19.8154 7.89741 17.2898 7.7772 16.3879 7.7772C14.9965 7.7772 14.8753 7.22865 14.8417 6.95577C14.7721 6.39039 14.6306 5.4792 14.5441 4.96911C14.4126 4.19456 14.8625 4.17493 14.9883 4.16771ZM14.7195 4.92904C14.7999 5.40267 14.9457 6.33509 15.0186 6.92572C15.0404 7.10323 15.0987 7.57445 16.3879 7.57445C16.5376 7.57445 16.7288 7.57766 16.9504 7.58166C17.2452 7.58647 17.5796 7.59248 17.9266 7.59248C19.5978 7.59248 19.9923 7.44422 20.0788 7.35567L20.0827 7.35166L20.087 7.34806C20.1199 7.31828 20.1452 7.27918 20.1601 7.2348C20.1751 7.19042 20.1792 7.14237 20.1721 7.09562C20.0891 6.56914 19.9771 6.04897 19.8365 5.5381C19.7578 5.26883 19.6645 5.00521 19.5571 4.74873C19.5259 4.67359 19.4716 4.61357 19.4042 4.57963C19.3152 4.53636 19.154 4.48226 18.8853 4.47225C18.6863 4.46503 18.4068 4.4454 18.0827 4.42256C17.4367 4.37688 15.2487 4.33601 15.0097 4.36686L14.9868 4.36927C14.8975 4.37968 14.8057 4.39611 14.7528 4.47545C14.6945 4.5612 14.6835 4.71867 14.7195 4.93225V4.92904Z" fill="#0B3053"/>
<path opacity="0.85" d="M14.7196 4.93223C14.8 5.40545 14.9461 6.33788 15.0186 6.92891C15.0408 7.10642 15.0987 7.57764 16.3879 7.57764C16.5377 7.57764 16.7288 7.58084 16.9504 7.58445C17.1258 7.58765 17.3152 7.59086 17.5128 7.59286H17.6693H17.927C18.0785 7.59286 18.2193 7.59286 18.3504 7.58926H18.3894H18.4708C18.5437 7.58765 18.6136 7.58565 18.6806 7.58325L18.7967 7.57684C18.9086 7.57243 19.0111 7.56642 19.1044 7.55961L19.1505 7.5564L19.2384 7.54959L19.3195 7.54198H19.3331C19.3788 7.53717 19.4217 7.53276 19.4621 7.52795H19.4681L19.5668 7.51473C19.63 7.50591 19.6854 7.4963 19.7347 7.48668C19.952 7.4438 20.0424 7.39612 20.0788 7.35926L20.0831 7.35525L20.087 7.35124C20.12 7.32149 20.1453 7.2824 20.1602 7.23801C20.1752 7.19362 20.1793 7.14556 20.1721 7.0988C20.0893 6.57247 19.9773 6.05242 19.8369 5.54169C19.7579 5.27255 19.6646 5.00895 19.5575 4.75231C19.5269 4.67571 19.4723 4.61429 19.4042 4.57961C19.3152 4.53594 19.154 4.48224 18.8853 4.47223C18.6867 4.46461 18.4069 4.44498 18.0828 4.42214C17.972 4.41452 17.8155 4.40651 17.6315 4.3997C17.0701 4.37766 16.2511 4.35963 15.6736 4.35682C15.337 4.35442 15.0826 4.35682 15.0097 4.36644L14.9872 4.36925C14.8975 4.37926 14.8057 4.39569 14.7528 4.47543C14.6999 4.55517 14.6835 4.71825 14.7196 4.93223Z" fill="#81BCF7"/>
<g style="mix-blend-mode:screen" opacity="0.2">
<path d="M15.6725 4.35669L17.5128 7.59113H17.6693H17.9269C18.0785 7.59113 18.2192 7.59113 18.3504 7.58752H18.3893H18.4708C18.5437 7.58592 18.6136 7.58391 18.6806 7.58151C18.7199 7.58151 18.7585 7.5787 18.7956 7.5767C18.9075 7.57229 19.01 7.56628 19.1033 7.55947L19.1494 7.55626L19.2373 7.54945L19.3184 7.54184H19.332C19.3777 7.53743 19.4206 7.53263 19.461 7.52782H19.467C19.5016 7.52381 19.5345 7.5194 19.5657 7.51459C19.6289 7.50578 19.6843 7.49616 19.7336 7.48654L17.6289 4.40117C17.069 4.37753 16.25 4.3603 15.6725 4.35669Z" fill="#81BCF7"/>
</g>
<path d="M16.4902 10.97C16.4775 10.97 16.4655 10.9644 16.4565 10.9544C16.4476 10.9444 16.4426 10.9308 16.4426 10.9167V9.78472C16.4427 9.77079 16.4476 9.75743 16.4562 9.74742C16.4649 9.73742 16.4767 9.73155 16.4891 9.73103L19.8216 9.65089C19.8279 9.65073 19.8342 9.65199 19.8401 9.65459C19.846 9.65719 19.8514 9.66109 19.856 9.66605C19.8605 9.67101 19.8642 9.67693 19.8667 9.68348C19.8692 9.69003 19.8705 9.69707 19.8705 9.70419V10.7256C19.8705 10.7393 19.8658 10.7525 19.8574 10.7624C19.8489 10.7724 19.8374 10.7782 19.8251 10.7789L16.4902 10.97Z" fill="#0B3053"/>
<path d="M19.8222 9.70447V10.725L16.4901 10.9166V9.78501L19.8222 9.70487M19.8222 9.59708H19.8201L16.4876 9.67722C16.4626 9.67785 16.4388 9.68944 16.4213 9.70951C16.4038 9.72958 16.394 9.75654 16.394 9.78461V10.9166C16.3941 10.945 16.4042 10.9723 16.4221 10.9924C16.4401 11.0125 16.4644 11.0239 16.4897 11.024H16.4947L19.8272 10.8332C19.8517 10.8317 19.8748 10.8197 19.8916 10.7998C19.9085 10.7798 19.9179 10.7534 19.918 10.7258V9.70407C19.918 9.67559 19.9079 9.64827 19.8899 9.62813C19.872 9.60799 19.8476 9.59668 19.8222 9.59668V9.59708Z" fill="#072035"/>
<path d="M18.9722 9.59644V10.8863" stroke="#FCBF38" stroke-width="6.27" stroke-miterlimit="10"/>
<path d="M17.3409 9.63916V10.9887" stroke="#FCBF38" stroke-width="6.27" stroke-miterlimit="10"/>
<path d="M19.9795 9.97729L16.3336 10.1083" stroke="#FCBF38" stroke-width="6.27" stroke-miterlimit="10"/>
<path d="M19.9795 10.5127L16.3336 10.6433" stroke="#FCBF38" stroke-width="6.27" stroke-miterlimit="10"/>
<path d="M20.4454 10.9363L20.8199 11.0517C20.8569 11.0632 20.8895 11.0879 20.9127 11.1221C20.936 11.1564 20.9486 11.1982 20.9486 11.2412V11.6531C20.9485 11.7199 20.9347 11.7858 20.9082 11.8455C20.8816 11.9053 20.8431 11.9574 20.7956 11.9977C20.7361 12.0482 20.6649 12.0782 20.5905 12.0843L16.711 12.3984C16.6542 12.4028 16.5973 12.4048 16.5405 12.4036L14.8943 12.3744C14.8664 12.3744 14.8395 12.3622 14.8195 12.3403C14.7995 12.3185 14.7879 12.2887 14.7871 12.2574V11.2328L16.2554 11.2921C16.2868 11.2921 16.3183 11.2921 16.3497 11.2921L20.2889 11.0665C20.3235 11.0646 20.3568 11.0513 20.3847 11.0282C20.4126 11.0052 20.4339 10.9735 20.4458 10.9371L20.4454 10.9363Z" fill="#81BCF7"/>
<g style="mix-blend-mode:multiply" opacity="0.4">
<path d="M16.3494 11.2913L20.2886 11.0657C20.3232 11.0638 20.3565 11.0505 20.3844 11.0274C20.4123 11.0044 20.4335 10.9727 20.4454 10.9363L20.8199 11.0517C20.8605 11.0642 20.8958 11.0926 20.9193 11.1318H20.9118L20.2818 11.2232C20.2496 11.2276 20.2175 11.2304 20.1853 11.232L16.7124 11.4043C16.7124 11.4043 14.9615 11.4187 14.7867 11.2332L16.255 11.2925C16.2865 11.2933 16.3179 11.2929 16.3494 11.2913Z" fill="#81BCF7"/>
</g>
<g style="mix-blend-mode:multiply" opacity="0.6">
<path d="M19.8097 11.9937L20.1603 11.9741C20.2074 11.9714 20.2519 11.9485 20.2844 11.9101C20.3169 11.8717 20.335 11.8207 20.335 11.7678V11.5582C20.335 11.5302 20.33 11.5025 20.3201 11.4767C20.3103 11.451 20.2959 11.4278 20.2778 11.4085C20.2598 11.3892 20.2384 11.3742 20.215 11.3644C20.1915 11.3547 20.1666 11.3504 20.1417 11.3518L19.7915 11.3711C19.7443 11.3738 19.6999 11.3968 19.6673 11.4351C19.6347 11.4735 19.6165 11.5244 19.6164 11.5774V11.7874C19.6164 11.8154 19.6215 11.8431 19.6313 11.8688C19.6412 11.8945 19.6556 11.9177 19.6736 11.937C19.6917 11.9563 19.7131 11.9713 19.7365 11.981C19.7599 11.9908 19.7848 11.9951 19.8097 11.9937Z" fill="#81BCF7"/>
<path d="M17.1501 12.1541L17.5006 12.1345C17.5479 12.1318 17.5924 12.1089 17.6249 12.0705C17.6575 12.0321 17.6757 11.9812 17.6757 11.9282V11.7186C17.6758 11.6906 17.6707 11.6629 17.6609 11.6371C17.6511 11.6114 17.6367 11.5882 17.6186 11.5689C17.6005 11.5496 17.5791 11.5346 17.5557 11.5248C17.5323 11.5151 17.5074 11.5108 17.4824 11.5122L17.1319 11.5315C17.0847 11.5342 17.0403 11.5572 17.0077 11.5955C16.9751 11.6339 16.9569 11.6848 16.9568 11.7378V11.9478C16.9568 11.9758 16.9619 12.0035 16.9717 12.0292C16.9816 12.0549 16.996 12.0781 17.014 12.0974C17.0321 12.1167 17.0535 12.1317 17.0769 12.1414C17.1003 12.1512 17.1252 12.1555 17.1501 12.1541Z" fill="#81BCF7"/>
</g>
<g style="mix-blend-mode:multiply" opacity="0.6">
<path d="M19.7114 11.3975C19.6962 11.4279 19.688 11.4623 19.6879 11.4972V11.7072C19.6879 11.7352 19.693 11.7629 19.7028 11.7886C19.7126 11.8143 19.727 11.8375 19.7451 11.8568C19.7632 11.8761 19.7846 11.8911 19.808 11.9008C19.8313 11.9106 19.8563 11.9149 19.8812 11.9136L20.2317 11.8939C20.2597 11.8921 20.287 11.883 20.3114 11.8675C20.2964 11.8982 20.2746 11.9241 20.2482 11.9428C20.2217 11.9614 20.1915 11.9722 20.1603 11.9741L19.8097 11.9937C19.7848 11.9951 19.7599 11.9907 19.7365 11.981C19.7131 11.9712 19.6917 11.9562 19.6736 11.9369C19.6556 11.9176 19.6412 11.8944 19.6313 11.8687C19.6215 11.843 19.6164 11.8153 19.6164 11.7873V11.5774C19.6165 11.5406 19.6254 11.5046 19.6421 11.473C19.6588 11.4413 19.6828 11.4153 19.7114 11.3975Z" fill="#81BCF7"/>
<path d="M17.0522 11.5579C17.0368 11.5883 17.0286 11.6226 17.0283 11.6576V11.8676C17.0283 11.8956 17.0334 11.9233 17.0432 11.949C17.053 11.9747 17.0674 11.9979 17.0855 12.0172C17.1036 12.0365 17.125 12.0515 17.1483 12.0612C17.1717 12.071 17.1966 12.0753 17.2216 12.074L17.5721 12.0543C17.6001 12.0525 17.6274 12.0434 17.6518 12.0279C17.6368 12.0586 17.6151 12.0846 17.5886 12.1033C17.5621 12.1219 17.5319 12.1327 17.5006 12.1345L17.1501 12.1541C17.1252 12.1555 17.1003 12.1511 17.0769 12.1414C17.0535 12.1316 17.0321 12.1166 17.014 12.0973C16.996 12.078 16.9816 12.0548 16.9717 12.0291C16.9619 12.0034 16.9568 11.9757 16.9568 11.9477V11.7378C16.9569 11.701 16.9659 11.6649 16.9826 11.6332C16.9994 11.6016 17.0234 11.5756 17.0522 11.5579Z" fill="#81BCF7"/>
</g>
<path d="M16.1732 9.54541V11.01C16.1732 11.0303 16.1697 11.0504 16.1628 11.0691C16.1559 11.0879 16.1458 11.1049 16.133 11.1193C16.1202 11.1337 16.1051 11.1451 16.0883 11.1529C16.0716 11.1606 16.0537 11.1646 16.0356 11.1646H15.1655C15.1289 11.1646 15.0939 11.1483 15.068 11.1193C15.0421 11.0903 15.0276 11.051 15.0276 11.01V8.88827C15.0276 8.86438 15.0326 8.84084 15.0421 8.81949C15.0517 8.79815 15.0655 8.7796 15.0826 8.76532C15.0997 8.75104 15.1195 8.74142 15.1405 8.73724C15.1614 8.73305 15.183 8.73441 15.2034 8.74121C15.3374 8.78609 15.5339 8.9071 15.6586 8.99125C15.8373 9.11145 15.9595 9.20041 16.0392 9.26092C16.0805 9.29251 16.1143 9.33494 16.1377 9.38453C16.161 9.43411 16.1732 9.48934 16.1732 9.54541Z" fill="#D6E6FD"/>
<path d="M16.066 10.8421V10.2811C16.0658 10.2598 16.0618 10.2388 16.0543 10.2192C16.0468 10.1996 16.036 10.1819 16.0223 10.167C16.0087 10.1521 15.9927 10.1404 15.975 10.1324C15.9574 10.1245 15.9385 10.1206 15.9195 10.1209L15.2763 10.1321C15.2382 10.1326 15.2019 10.1499 15.1751 10.1803C15.1484 10.2107 15.1334 10.2517 15.1334 10.2944V10.8421C15.1334 10.8633 15.1371 10.8843 15.1444 10.9039C15.1517 10.9235 15.1624 10.9413 15.1759 10.9562C15.1893 10.9711 15.2053 10.9828 15.2228 10.9908C15.2404 10.9987 15.2592 11.0027 15.2781 11.0024H15.9213C15.9402 11.0027 15.959 10.9987 15.9765 10.9908C15.9941 10.9828 16.01 10.9711 16.0235 10.9562C16.037 10.9413 16.0477 10.9235 16.0549 10.9039C16.0622 10.8843 16.066 10.8633 16.066 10.8421Z" fill="#B7D7FD"/>
<path d="M16.066 9.83879V9.66048C16.066 9.61357 16.0557 9.56737 16.0361 9.52594C16.0165 9.4845 15.9881 9.44911 15.9534 9.42287C15.8755 9.36437 15.7626 9.28342 15.6036 9.17604C15.4707 9.08628 15.2877 8.97569 15.1726 8.93842C15.1698 8.93784 15.1669 8.93784 15.1641 8.93842C15.1602 8.93842 15.1564 8.93928 15.1528 8.94096C15.1492 8.94264 15.1459 8.94509 15.1432 8.94819C15.1405 8.95128 15.1383 8.95495 15.1369 8.95898C15.1354 8.96302 15.1347 8.96733 15.1348 8.97168V9.85322C15.135 9.87456 15.139 9.89565 15.1465 9.91526C15.154 9.93488 15.1649 9.95264 15.1785 9.96753C15.1922 9.98242 15.2083 9.99414 15.226 10.002C15.2437 10.0099 15.2626 10.0138 15.2816 10.0135L15.9248 10.0023C15.9437 10.002 15.9623 9.99757 15.9796 9.9892C15.997 9.98083 16.0126 9.96869 16.0258 9.95349C16.0389 9.9383 16.0492 9.92034 16.0561 9.90065C16.063 9.88096 16.0664 9.85994 16.066 9.83879Z" fill="#B7D7FD"/>
<g style="mix-blend-mode:multiply" opacity="0.3">
<path d="M15.2234 10.1453C15.217 10.1633 15.2138 10.1824 15.2137 10.2018V10.7495C15.2135 10.7709 15.217 10.7921 15.2242 10.8119C15.2314 10.8317 15.2421 10.8497 15.2556 10.8649C15.269 10.88 15.2851 10.8919 15.3028 10.9C15.3204 10.9081 15.3394 10.9121 15.3584 10.9118H16.0016C16.0213 10.9118 16.0407 10.9073 16.0588 10.8986C16.0488 10.9297 16.0304 10.9565 16.0062 10.9755C15.982 10.9944 15.9532 11.0045 15.9237 11.0044H15.2805C15.2616 11.0046 15.2428 11.0007 15.2253 10.9927C15.2077 10.9848 15.1918 10.973 15.1783 10.9581C15.1648 10.9432 15.1542 10.9255 15.1469 10.9059C15.1396 10.8863 15.1358 10.8653 15.1358 10.8441V10.2943C15.1356 10.2625 15.1438 10.2314 15.1594 10.2049C15.175 10.1783 15.1972 10.1576 15.2234 10.1453Z" fill="#B7D7FD"/>
<path d="M15.1641 8.93525C15.1669 8.93467 15.1698 8.93467 15.1726 8.93525C15.1851 8.93926 15.1987 8.94487 15.2127 8.95048V9.75588C15.2127 9.7773 15.2165 9.79851 15.2239 9.81825C15.2313 9.83799 15.2422 9.85586 15.2559 9.8708C15.2696 9.88574 15.2858 9.89745 15.3036 9.90524C15.3214 9.91304 15.3404 9.91675 15.3595 9.91616L16.0027 9.90494C16.0217 9.90493 16.0404 9.90043 16.0578 9.89172C16.0476 9.92228 16.0295 9.94872 16.0058 9.96759C15.9821 9.98646 15.9539 9.99688 15.9248 9.9975L15.2816 10.0087C15.2626 10.009 15.2437 10.0051 15.226 9.99725C15.2083 9.98936 15.1922 9.97764 15.1785 9.96275C15.1649 9.94786 15.154 9.9301 15.1465 9.91049C15.139 9.89087 15.135 9.86979 15.1348 9.84844V8.9669C15.135 8.9584 15.1383 8.95035 15.1437 8.94444C15.1492 8.93854 15.1565 8.93524 15.1641 8.93525Z" fill="#B7D7FD"/>
</g>
<g style="mix-blend-mode:multiply" opacity="0.4">
<path d="M15.2899 8.9873L15.585 9.40443C15.6362 9.47687 15.7014 9.53535 15.7757 9.57546C15.85 9.61558 15.9314 9.63629 16.0138 9.63604H16.0667C16.0637 9.59305 16.0521 9.55138 16.0326 9.51418C16.0132 9.47698 15.9865 9.44521 15.9545 9.42126C15.877 9.36276 15.764 9.28142 15.6047 9.17403C15.5029 9.10526 15.3978 9.04292 15.2899 8.9873Z" fill="#B7D7FD"/>
</g>
<g style="mix-blend-mode:multiply" opacity="0.4">
<path d="M15.7215 10.1243V10.3115C15.7215 10.3318 15.7251 10.3519 15.732 10.3707C15.7389 10.3894 15.7491 10.4065 15.7619 10.4208C15.7747 10.4352 15.7899 10.4466 15.8066 10.4544C15.8234 10.4621 15.8413 10.4661 15.8594 10.4661H16.066V10.2826C16.0657 10.2613 16.0617 10.2402 16.0542 10.2206C16.0467 10.2009 16.0358 10.1832 16.0222 10.1683C16.0085 10.1534 15.9924 10.1417 15.9747 10.1338C15.957 10.1259 15.9381 10.122 15.9191 10.1223L15.7215 10.1243Z" fill="#B7D7FD"/>
</g>
<path d="M20.1049 9.29971V10.7643C20.1049 10.7846 20.1085 10.8047 20.1154 10.8235C20.1224 10.8422 20.1325 10.8593 20.1453 10.8736C20.1581 10.888 20.1733 10.8994 20.1901 10.9072C20.2068 10.9149 20.2247 10.9189 20.2428 10.9189H20.4405C20.5039 10.2236 20.5247 9.52421 20.5026 8.82568C20.3854 8.90582 20.3 8.96914 20.2389 9.01522C20.1976 9.04681 20.1638 9.08924 20.1405 9.13882C20.1171 9.18841 20.1049 9.24364 20.1049 9.29971Z" fill="#D6E6FD"/>
<path d="M20.2121 10.0367V10.5977C20.2121 10.6402 20.2272 10.681 20.254 10.711C20.2808 10.7411 20.3171 10.758 20.355 10.758H20.4529C20.4768 10.466 20.4932 10.1722 20.5023 9.87645L20.3593 9.87405C20.3401 9.87367 20.321 9.87761 20.3031 9.88562C20.2852 9.89364 20.2689 9.90557 20.2552 9.92072C20.2415 9.93587 20.2307 9.95393 20.2232 9.97385C20.2158 9.99377 20.212 10.0151 20.2121 10.0367Z" fill="#B7D7FD"/>
<path d="M20.2121 9.41246V9.59238C20.2121 9.63489 20.2272 9.67565 20.254 9.70571C20.2808 9.73577 20.3171 9.75266 20.355 9.75266L20.5076 9.75546C20.5129 9.51745 20.5129 9.2793 20.5076 9.04102C20.4319 9.09391 20.3718 9.13759 20.3247 9.17325C20.2898 9.19962 20.2612 9.23526 20.2416 9.277C20.2219 9.31874 20.2118 9.36527 20.2121 9.41246Z" fill="#B7D7FD"/>
<g style="mix-blend-mode:multiply" opacity="0.3">
<path d="M20.2214 10.6521C20.2317 10.683 20.2501 10.7097 20.2742 10.7286C20.2983 10.7475 20.327 10.7577 20.3564 10.7579H20.4544L20.4619 10.6653H20.2785C20.2589 10.6652 20.2395 10.6607 20.2214 10.6521Z" fill="#B7D7FD"/>
<path d="M20.2214 9.64844C20.2315 9.679 20.2496 9.70544 20.2733 9.72431C20.297 9.74318 20.3252 9.7536 20.3543 9.75422L20.5069 9.75703C20.5069 9.72657 20.5069 9.69612 20.5087 9.66567L20.2764 9.66166C20.2574 9.66156 20.2387 9.65706 20.2214 9.64844Z" fill="#B7D7FD"/>
</g>
<g style="mix-blend-mode:multiply" opacity="0.4">
<path d="M20.2128 9.3895H20.2657C20.3509 9.38953 20.4348 9.36716 20.5108 9.32419C20.5108 9.23043 20.5108 9.13626 20.508 9.0437C20.4322 9.09659 20.3722 9.14027 20.325 9.17593C20.2932 9.19975 20.2666 9.23133 20.2471 9.26832C20.2277 9.3053 20.216 9.34673 20.2128 9.3895Z" fill="#B7D7FD"/>
</g>
<g style="mix-blend-mode:multiply" opacity="0.4">
<path d="M20.2121 10.0364V10.2215H20.4186C20.4439 10.2213 20.4686 10.2134 20.4901 10.1986C20.4953 10.0918 20.4996 9.98494 20.503 9.87809L20.36 9.87528C20.3408 9.87481 20.3218 9.87861 20.3039 9.88648C20.2861 9.89434 20.2698 9.90611 20.256 9.9211C20.2422 9.93609 20.2313 9.954 20.2237 9.97379C20.2162 9.99358 20.2122 10.0148 20.2121 10.0364Z" fill="#B7D7FD"/>
</g>
<path d="M11.8055 9.25976C11.8536 9.25966 11.8997 9.23818 11.9337 9.20003C11.9678 9.16188 11.9869 9.11016 11.987 9.05621V8.36981C11.987 8.31583 11.9679 8.26405 11.9339 8.22588C11.8998 8.1877 11.8536 8.16626 11.8055 8.16626C11.7817 8.16626 11.7581 8.17153 11.7361 8.18176C11.7141 8.19199 11.6941 8.207 11.6773 8.2259C11.6604 8.24481 11.6471 8.26725 11.638 8.29195C11.6289 8.31664 11.6243 8.3431 11.6243 8.36981V9.05942C11.6251 9.11277 11.6445 9.16367 11.6784 9.20114C11.7123 9.23861 11.7579 9.25967 11.8055 9.25976Z" fill="#0B3053"/>
<path d="M11.8323 4.18726C11.6676 4.3275 11.6308 4.58435 11.6097 4.81515C11.5215 5.77801 11.4796 6.74549 11.4843 7.7134" stroke="#FC9A38" stroke-linecap="round" stroke-linejoin="round"/>
<path d="M11.4789 7.91577C11.4832 8.43855 11.4874 8.96133 11.4914 9.4841" stroke="#FC9A38" stroke-linecap="round" stroke-linejoin="round"/>
<path d="M13.5954 11.4444L13.4446 10.7395C13.3779 10.4259 13.2236 10.1444 13.0044 9.9359C12.7851 9.7274 12.5122 9.60283 12.2254 9.58032L11.6586 9.53784" stroke="#FC9A38" stroke-linecap="round" stroke-linejoin="round"/>
<path d="M17.2602 3.83339H17.5386V3.67751C17.5386 3.63607 17.5239 3.59632 17.4977 3.56701C17.4716 3.53771 17.4362 3.52124 17.3992 3.52124C17.3809 3.52124 17.3628 3.52528 17.3459 3.53314C17.329 3.541 17.3137 3.55252 17.3008 3.56704C17.2879 3.58155 17.2776 3.59878 17.2707 3.61774C17.2637 3.6367 17.2601 3.65701 17.2602 3.67751V3.83339Z" fill="#FC6A64"/>
<path d="M17.5696 3.8667H17.2295V3.82663C17.2295 3.81441 17.2338 3.80269 17.2415 3.79405C17.2492 3.7854 17.2597 3.78055 17.2706 3.78055H17.5282C17.5391 3.78055 17.5495 3.7854 17.5572 3.79405C17.565 3.80269 17.5693 3.81441 17.5693 3.82663V3.8667H17.5696Z" fill="#0B3053"/>
<g style="mix-blend-mode:screen" opacity="0.4">
<path d="M17.4682 3.71326C17.4313 3.71326 17.3959 3.69684 17.3699 3.66761C17.3438 3.63838 17.3292 3.59873 17.3292 3.55739C17.3292 3.55258 17.3292 3.54737 17.3292 3.54257C17.3502 3.52892 17.3741 3.52173 17.3985 3.52173C17.4354 3.52173 17.4709 3.53819 17.497 3.5675C17.5232 3.59681 17.5378 3.63656 17.5378 3.678V3.71366L17.4682 3.71326Z" fill="#FC6A64"/>
</g>
<path d="M16.608 3.83339H16.8864V3.67751C16.8864 3.63607 16.8717 3.59632 16.8456 3.56701C16.8194 3.53771 16.784 3.52124 16.747 3.52124C16.7288 3.52124 16.7106 3.52528 16.6938 3.53314C16.6769 3.541 16.6615 3.55252 16.6486 3.56704C16.6357 3.58155 16.6255 3.59878 16.6185 3.61774C16.6115 3.6367 16.608 3.65701 16.608 3.67751V3.83339Z" fill="#FC6A64"/>
<path d="M16.9175 3.86679H16.5773V3.82672C16.5773 3.8145 16.5817 3.80277 16.5894 3.79413C16.5971 3.78549 16.6075 3.78064 16.6184 3.78064H16.8775C16.8885 3.78064 16.899 3.78553 16.9068 3.79425C16.9146 3.80297 16.9189 3.81479 16.9189 3.82712V3.86719L16.9175 3.86679Z" fill="#0B3053"/>
<g style="mix-blend-mode:screen" opacity="0.4">
<path d="M16.816 3.71326C16.7791 3.71326 16.7438 3.69684 16.7177 3.66761C16.6916 3.63838 16.677 3.59873 16.677 3.55739C16.677 3.55258 16.677 3.54737 16.677 3.54257C16.6981 3.52886 16.722 3.52167 16.7463 3.52173C16.7833 3.52173 16.8187 3.53819 16.8449 3.5675C16.871 3.59681 16.8857 3.63656 16.8857 3.678V3.71366L16.816 3.71326Z" fill="#FC6A64"/>
</g>
<path d="M15.9556 3.83339H16.2339V3.67751C16.234 3.65701 16.2304 3.6367 16.2234 3.61774C16.2165 3.59878 16.2063 3.58155 16.1933 3.56704C16.1804 3.55252 16.1651 3.541 16.1482 3.53314C16.1313 3.52528 16.1132 3.52124 16.0949 3.52124C16.058 3.52124 16.0225 3.53771 15.9964 3.56701C15.9702 3.59632 15.9556 3.63607 15.9556 3.67751V3.83339Z" fill="#FC6A64"/>
<path d="M16.265 3.8668H15.9248V3.82673C15.9251 3.81472 15.9296 3.80331 15.9372 3.79493C15.9449 3.78654 15.9552 3.78185 15.9659 3.78186H16.2236C16.2346 3.78186 16.2451 3.78675 16.2529 3.79547C16.2606 3.80419 16.265 3.81601 16.265 3.82834V3.86841V3.8668Z" fill="#0B3053"/>
<g style="mix-blend-mode:screen" opacity="0.4">
<path d="M16.1639 3.71326C16.127 3.71326 16.0917 3.69684 16.0656 3.66761C16.0395 3.63838 16.0249 3.59873 16.0249 3.55739C16.0249 3.55258 16.0249 3.54737 16.0249 3.54257C16.046 3.52886 16.0699 3.52167 16.0942 3.52173C16.1125 3.52173 16.1306 3.52577 16.1475 3.53363C16.1644 3.54149 16.1797 3.55301 16.1926 3.56752C16.2056 3.58204 16.2158 3.59927 16.2227 3.61823C16.2297 3.63719 16.2333 3.6575 16.2332 3.678V3.71366L16.1639 3.71326Z" fill="#FC6A64"/>
</g>
</svg>
